<svg version="1.1" id="Capa_1" xmlns="http://www.w3.org/2000/svg" xmlns:xlink="http://www.w3.org/1999/xlink" x="0px" y="0px" viewBox="0 0 1200 1200" enable-background="new 0 0 1200 1200" xml:space="preserve">
<path d="M883.794,274.96c1.731-4.892,7.47-14.481,5.027-19.599c-2.59-5.426-8.742-3.535-11.054,0.826&#10;&#9;c-1.536,2.898-2.287,6.464-3.383,9.561c-3.903-3.234-8.136-6.095-12.662-8.429c0.478-6.819,0.956-13.638,1.434-20.457&#10;&#9;c0.354-5.055,3.641-17.716-1.8-21.018c-9.718-5.897-9.422,10.303-9.767,15.233c-0.507,7.232-1.014,14.465-1.521,21.697&#10;&#9;c-32.816-9.027-61.017,14.449-72.719,43.552c-14.288,35.534-2.622,74.143,5.263,109.727c-5.194-2.629-31.092-20.518-31.312-6.84&#10;&#9;c-0.091,5.688,8.74,8.403,12.841,10.608c7.171,3.856,14.627,7.315,21.601,11.502c1.688,9.154,3.057,18.397,4.122,27.694&#10;&#9;c-4.347-2.291-16.184-12.795-18.415-2.24c-1.685,7.967,14.268,13.679,19.758,16.16c4.082,50.473,1.224,106.116-17.841,153.611&#10;&#9;c-14.916,37.158-48.259,72.953-91.571,70.353c0.797-42.565,2.152-84.33,4.113-124.237c3.696-1.094,10.058-1.726,11.527-5.957&#10;&#9;c2.643-7.616-6.01-8.393-10.881-6.689c3.173-59.947,8.079-119.735,16.201-179.223c5.909-0.915,24.779-2.986,23.988-11.74&#10;&#9;c-0.963-10.656-17.074-1.769-22.295-0.697c6.153-44.787,12.416-89.65,14.337-134.862c6.935-2.851,13.987-5.408,20.966-8.148&#10;&#9;c4.41-1.731,13.251-3.425,12.646-9.768c-1.163-12.2-27.739,2.749-33.185,4.882c0.641-28.025,0.377-57.088-9.115-83.823&#10;&#9;c5.025-3.25,22.383-10.187,18.485-18.191c-4.41-9.055-18.507,4.026-23.154,6.996c-5.86-11.948-13.611-21.409-23.268-28.524&#10;&#9;c4.78-2.643,21.56-8.596,15.411-16.421c-5.056-6.435-18.168,4.3-23.125,7.04c2.087-5.691,14.543-24.194,4.534-27.291&#10;&#9;c-9.357-2.896-14.841,20.467-16.934,26.502c-18.639-5.619-38.778-2.441-56.246,5.504c-2.558-5.09-8.339-24.024-16.656-19.848&#10;&#9;c-8.365,4.2,3.52,20.309,6.086,25.414c-11.061,6.637-21.046,15.323-29.091,25.389c-4.18-5.238-23.119-30.883-30.639-21.692&#10;&#9;c-4.852,5.929,3.976,10.935,7.56,14.281c5.782,5.398,11.095,11.295,15.872,17.598c-19.476,31.704-22.713,70.472-22.56,106.8&#10;&#9;c0.143,33.928,1.913,67.864,2.431,101.793c1.104,72.245,0.588,144.533-1.54,216.755c-1.075,36.499-2.563,72.994-4.898,109.435&#10;&#9;c-24.253-1.023-48.6-22.617-65.455-38.434c-19.427-18.231-28.156-40.859-30.82-67.049c3.927-2.18,13.098-5.159,13.696-10.399&#10;&#9;c1.177-10.312-10.285-5.157-14.679-2.718c-2.099-39.961-0.203-80.202-6.896-119.821c-5.694-33.708-18.326-77.233-50.614-94.936&#10;&#9;c1.139-6.246,7.057-25.719-0.873-28.922c-10.823-4.372-9.544,19.196-10.425,24.411c-6.453-1.711-13.266-2.051-19.914-1.081&#10;&#9;c0-5.033,3.087-30.739-8.679-24.658c-6.589,3.405-3.265,21.717-3.265,27.857c-26.092,10.63-36.8,41.224-39.594,67.027&#10;&#9;c-2.984,27.556-2.226,55.485,1.848,82.889c8.505,57.205,31.485,111.781,66.612,157.726c-4.2,2.49-13.076,6.988-8.49,13.162&#10;&#9;c4.566,6.147,11.713-1.281,16.011-3.704c6.143,7.49,12.611,14.719,19.356,21.702c-4.131,3.1-15.126,8.957-8.702,15.161&#10;&#9;c5.307,5.125,13.093-3.525,17.239-6.636c37.245,36.079,82.493,64.503,132.65,82.843c-5.99,35.734-4.671,72.856-6.637,108.978&#10;&#9;c-4.184-1.895-20.506-10.029-17.914,2.315c1.199,5.712,12.725,8.449,17.235,10.492c-0.918,17.367-1.781,34.774-2.582,52.124&#10;&#9;c-4.516-1.646-10.695,0.05-9.603,6.122c0.793,4.409,5.441,5.092,9.045,6.204c-1.554,34.938-2.872,69.886-3.956,104.841&#10;&#9;c-0.542,17.478-1.025,34.958-1.448,52.439c-0.211,8.711-0.407,17.422-0.587,26.134c-0.103,4.965-2.288,15.71,5.659,15.867&#10;&#9;c6.9,0.136,6.124-7.747,6.218-12.368c0.177-8.702,0.369-17.404,0.576-26.105c0.415-17.465,0.891-34.928,1.426-52.389&#10;&#9;c1.07-34.935,2.376-69.862,3.917-104.78c4.678,1.442,13.146,2.478,11.715-5.47c-0.891-4.949-7.167-5.624-11.174-6.86&#10;&#9;c0.769-16.789,1.596-33.643,2.476-50.469c4.656,2.109,17.13,5.026,13.311-5.11c-1.603-4.256-8.86-5.988-12.634-7.697&#10;&#9;c2.02-37.434,0.492-76.165,6.883-113.161c10.86-9.312-20.784-17.211-25.774-19.337c-13.402-5.711-26.462-12.218-39.093-19.477&#10;&#9;c-25.341-14.564-48.936-32.163-70.041-52.388c3.559-2.378,6.229-6.793,2.42-10.46c-3.791-3.65-7.734-0.484-11.013,1.976&#10;&#9;c-6.172-6.335-12.115-12.875-17.772-19.647c4.557-1.65,13.561-3.015,10.418-10.173c-3.1-7.059-13.463-1.578-18.23,0.405&#10;&#9;c-33.111-42.718-55.318-93.166-64.502-146.439c-4.48-25.985-5.882-52.549-3.791-78.845c1.794-22.56,7.055-51.314,28.683-63.69&#10;&#9;c-6.678,12.901-10.89,27.077-12.411,41.522c-0.529,5.019-3.297,39.036,9.51,30.136c4.799-3.335,1.865-11.945,1.8-16.831&#10;&#9;c-0.094-7.059,0.559-14.113,1.895-21.043c1.337-6.937,3.356-13.734,6.054-20.265c2.661-6.441,7.284-12.122,9.809-18.483&#10;&#9;c4.268-0.272,8.565,0.163,12.649,1.335c-0.829,3.51-3.407,8.744-1.637,12.305c-3.6,4.639,2.421,12.604,4.201,16.932&#10;&#9;c2.205,5.36,4.098,10.846,5.682,16.42c1.717,6.044,3.038,12.2,3.988,18.41c0.699,4.564,0.209,12.56,6.872,12.574&#10;&#9;c16.137,0.032-6.991-55.975-10.707-63.364c0,0,0,0-0.001-0.001c1.614-2.095,1.999-5.685,2.611-8.137&#10;&#9;c28.878,18.964,38.511,61.835,42.871,93.61c5.247,38.237,3.065,76.858,5.747,115.255c-3.299,1.831-8.958,3.703-10.09,7.658&#10;&#9;c-2.239,7.825,6.709,8.227,11.335,5.314c3.901,30.922,17.088,55.44,40.848,75.56c18.926,16.027,46.441,39.912,73.401,35.378&#10;&#9;c4.909,1.049,14.787,1.621,16.076-4.947c1.496-7.628-6.263-6.449-10.801-6.401c8.623-134.871,8.564-270.436,4.466-405.466&#10;&#9;c-1.212-39.935-1.601-82.647,17.729-118.874c2.33,2.839,6.825,2.893,9.181,0.047c3.162-3.819-0.02-7.785-2.206-11.043&#10;&#9;c7.287-9.834,16.642-18.326,27.118-24.733l4.604,9.162c-39.718,35.442-32.286,93.613-31.032,141.381&#10;&#9;c1.56,59.433,0.538,118.935-3.027,178.282c-0.883,14.694-1.922,29.379-3.119,44.051c-1.182,14.487-3.838,29.376-4.057,43.89&#10;&#9;c-0.058,3.87,0.862,8.221,5.778,8.212c7.276-0.014,6.442-10.232,6.929-15.145c1.46-14.711,2.761-29.439,3.904-44.178&#10;&#9;c4.626-59.635,6.683-119.471,6.162-179.283c-0.254-29.221-2.295-58.499-1.952-87.713c0.335-28.56,5.526-59.555,27.529-79.856&#10;&#9;c3.743,0.987,7.555-2.051,7.469-5.903c4.572-3.044,17.414-5.716,14.698-13.365c-3.048-8.583-15.232-0.415-19.593,2.308l-3.732-7.425&#10;&#9;c16.096-7.195,34.949-9.886,51.706-3.252c0.351,0.195,0.727,0.359,1.126,0.484c0,0,0.001,0,0.001,0&#10;&#9;c38.317,16.214,43.129,65.575,43.437,101.536c0.483,56.442-7.559,112.504-15.253,168.284c-5.446,1.095-6.446,8.628-1.515,11.137&#10;&#9;c-8.241,60.568-13.098,121.47-16.247,182.504c-3.686,1.09-8.55,1.674-9.415,6.189c-0.993,5.183,4.336,8.2,8.787,6.452&#10;&#9;c-6.065,126.625-6.166,253.613-2.328,380.308c1.748,57.721,4.382,115.431,8.522,173.033c0.354,4.921-0.846,14.5,3.788,17.519&#10;&#9;c6.187,4.032,9.073-3.116,8.887-8.006c-0.559-14.736-2.11-29.494-3.018-44.218c-1.945-31.54-3.486-63.104-4.72-94.679&#10;&#9;c-3.081-78.785-4.341-157.648-3.918-236.491c41.602-0.018,88.674-18.034,117.46-48.51c32.784-34.709,51.68-80.596,67.257-125.024&#10;&#9;c10.49-29.92,19.049-60.517,25.614-91.535c3.03-1.759,3.902-5.91,1.787-8.711c7.189-36.114,11.725-72.785,13.424-109.571&#10;&#9;C908.063,337.397,906.536,301.14,883.794,274.96z M894.541,371.223c-1.72,35.006-5.946,69.69-12.625,103.87&#10;&#9;c-4.869-1.623-23.834-11.083-23.71,0.384c0.08,7.454,15.92,9.609,21.294,11.4c-10.36,48.71-25.321,97.144-46.197,142.423&#10;&#9;c-18.461,40.041-43.085,76.474-83.969,95.669c-21.12,9.916-44.793,16.696-68.257,16.74c0.11-14.33,0.279-28.623,0.509-42.839&#10;&#9;c45.839,2.555,82.878-32.518,100.378-71.964c21.635-48.765,25.324-107.352,21.623-159.9c8.197-1.642,4.226-10.052-1.049-12.202&#10;&#9;c-0.62-6.227-1.373-12.447-2.269-18.658c5.782,2.275,8.636-3.478,7.565-8.182c-1.32-5.793-6.749-10.597-11.345-13.889&#10;&#9;c-6.808-34.349-20.982-71.942-10.34-106.932c8.176-26.884,32.823-52.169,63.068-42.242c-0.345,4.918-3.374,16.335,1.041,20.107&#10;&#9;c9.33,7.973,10.21-9.809,10.543-14.551c3.335,2.133,6.444,4.626,9.313,7.356c-1.354,3.827-4.962,9.857-3.731,14&#10;&#9;c1.136,3.826,5.87,5.426,9.131,3.186c2.168-1.489,2.77-4.466,3.591-6.786C895.89,311.96,895.909,343.378,894.541,371.223z&#10;&#9; M578.221,642.418c-0.005,17.954-0.244,35.907-0.709,53.855c-0.834,32.148-2.396,64.278-4.692,96.354&#10;&#9;c-0.435,6.081,1.256,39.413-10.615,34.211c-6.112-2.679-3.053-12.262-2.65-17.286c0.649-8.081,1.25-16.166,1.804-24.255&#10;&#9;c2.186-31.905,3.642-63.861,4.372-95.832c0.358-15.68,0.542-31.364,0.546-47.049c0.002-7.456,0.631-15.526-1.469-22.773&#10;&#9;c-1.218-4.203-4.725-9.618,0.846-12.495C579.192,600.159,578.223,636.238,578.221,642.418z M562.939,914.567&#10;&#9;c-0.814,9.744-1.557,19.494-2.229,29.248c-1.272,18.468-2.29,36.954-3.054,55.45c-1.393,33.732-1.954,67.499-1.659,101.258&#10;&#9;c0.048,5.491,4.586,37.964-8.247,31.442c-5.863-2.98-3.489-14.537-3.566-19.867c-0.117-8.197-0.185-16.395-0.203-24.594&#10;&#9;c-0.073-33.97,0.705-67.943,2.327-101.874c0.81-16.952,1.832-33.893,3.066-50.82c0.635-8.715,1.327-17.427,2.076-26.133&#10;&#9;c0.414-4.819-0.178-14.114,7.202-13.561C567.265,895.897,563.371,909.395,562.939,914.567z M342.374,459.69&#10;&#9;c0.186,6.938,0.853,13.848,1.911,20.706c2.125,13.763,5.821,27.234,10.379,40.379c4.541,13.094,9.947,25.866,15.669,38.482&#10;&#9;c2.435,5.369,17.5,27.855,6.216,30.414c-8.697,1.972-17.035-25.257-19.863-31.644c-5.574-12.593-10.771-25.371-15.059-38.464&#10;&#9;c-2.858-8.728-21.228-74.078-5.1-73.441C343.746,446.294,342.247,454.948,342.374,459.69z M398.881,486.929&#10;&#9;c0.2,6.619,4.937,31.334-5.64,31.316c-10.049-0.017-6.1-24.422-6.298-30.956c-0.22-7.289-0.546-14.576-0.981-21.855&#10;&#9;c-0.275-4.591-1.624-12.116,5.155-12.578C401.773,452.102,398.676,480.134,398.881,486.929z M634.012,589.077&#10;&#9;c-3.143-6.261,0.053-20.278,0.397-27.19c0.974-19.609,2.29-39.199,3.857-58.769c3.127-39.05,7.254-78.011,11.71-116.929&#10;&#9;c7.587-66.257,19.882-133.566,19.183-200.408c-0.158-15.117-1.234-30.245-3.685-45.171c-1.209-7.359-2.759-14.666-4.68-21.872&#10;&#9;c-1.273-4.773-6.279-13.563-1.04-17.428c11.042-8.146,15.22,24.944,16.331,30.729c2.888,15.03,4.376,30.305,4.861,45.596&#10;&#9;c2.117,66.699-10.33,134.094-17.982,200.167c-8.042,69.436-15.25,139.06-17.649,208.954&#10;&#9;C645.098,593.076,636.687,594.406,634.012,589.077z M651.337,678.794c2.146,21.278,0.785,43.519,1.171,64.883&#10;&#9;c0.744,41.212,1.487,82.424,2.231,123.636c1.468,81.356,2.936,162.711,4.404,244.067c0.166,9.211,0.332,18.423,0.499,27.634&#10;&#9;c0.028,1.548,0.356,3.421,0.089,4.954c-1.394,8.007-10.307,8.007-11.944,0.216c-1.038-4.942-0.199-11.031-0.29-16.051&#10;&#9;c-0.227-12.605-0.455-25.211-0.682-37.816c-1.549-85.848-3.098-171.696-4.647-257.544c-0.679-37.623-1.358-75.246-2.037-112.869&#10;&#9;c-0.2-11.055-0.399-22.11-0.598-33.165c-0.09-4.988-2.047-15.792,5.8-15.792C650.429,670.947,650.964,675.099,651.337,678.794z&#10;&#9; M615.361,593.676c-0.895,8.514-1.607,17.047-2.167,25.59c-1.195,18.205-1.7,36.45-1.801,54.692&#10;&#9;c-0.198,35.685,1.159,71.351,1.993,107.02c1.516,64.859-0.974,129.475-5.667,194.164c-1.177,16.22-2.448,32.432-3.746,48.642&#10;&#9;c-0.445,5.554,0.858,17.98-2.81,22.333c-3.301,3.918-8.886,2.707-10.495-2.102c-1.959-5.855,1.034-16.594,1.525-22.736&#10;&#9;c0.601-7.521,1.196-15.042,1.778-22.564c1.255-16.228,2.45-32.46,3.518-48.701c4.224-64.25,5.088-128.259,3.342-192.611&#10;&#9;c-0.875-32.262-1.79-64.539-1.234-96.815c0.28-16.276,0.929-32.551,2.149-48.785c0.516-6.862-0.932-39,9.932-37.535&#10;&#9;C620.222,575.358,615.916,588.4,615.361,593.676z M602.957,438.084c0.584-12.99,1.297-25.975,2.139-38.951&#10;&#9;c1.616-24.91,3.706-49.789,6.264-74.62c4.561-44.27,10.611-88.387,18.148-132.249c2.018-11.743,4.143-23.469,6.375-35.173&#10;&#9;c0.892-4.675,2.786-19.856,11.375-13.039c5.743,4.559-0.966,22.241-2.062,28.206c-1.967,10.706-3.843,21.428-5.631,32.166&#10;&#9;c-7.433,44.636-13.312,89.532-17.645,134.574c-2.139,22.24-3.901,44.515-5.28,66.815c-0.739,11.947-1.368,23.901-1.886,35.859&#10;&#9;c-0.247,5.707,2.528,22.056-6.603,22.056C598.093,463.728,602.69,444.022,602.957,438.084z M832.998,401.282&#10;&#9;c1.847,13.803,3.693,27.607,5.54,41.41c0.864,6.456,3.055,13.991,2.746,20.527c-0.365,7.714-9.358,9.382-11.819,1.736&#10;&#9;c-0.552-1.717-0.521-3.892-0.758-5.666c-1.445-10.799-2.889-21.599-4.334-32.398c-3.687-27.562-7.374-55.125-11.061-82.687&#10;&#9;c-1.291-9.647-2.812-19.321-3.539-29.024c-0.31-4.132-1.37-35.755,10.387-24.48c3.881,3.722,1.082,14.547,1.28,19.375&#10;&#9;c0.287,6.975,1.217,13.904,2.142,20.818C826.72,354.355,829.859,377.819,832.998,401.282z M833.016,535.536&#10;&#9;c-1.835,7.892-3.286,15.868-4.653,23.852c-2.723,15.903-5.012,31.921-9.045,47.564c-3.43,13.303-8.049,26.407-14.747,38.439&#10;&#9;c-3.197,5.742-14.61,27.606-23.061,22.146c-8.386-5.418,8.337-20.478,11.582-26.005c6.763-11.517,11.232-24.256,14.559-37.146&#10;&#9;c4.002-15.505,6.26-31.386,8.962-47.15c1.189-6.937,3.335-40.896,14.438-37.826C838.481,521.454,834.129,530.751,833.016,535.536z&#10;&#9; M874.141,334.776c1.052,6.097,7.466,30.319-3.344,30.635c-9.409,0.275-7.158-20.909-8.172-27.097&#10;&#9;c-0.988-6.035-2.309-12.016-3.97-17.901c-1.236-4.378-4.42-11.287,2.064-13.384C871.063,303.676,873.103,328.765,874.141,334.776z&#10;&#9; M606.463,1099.8c0,4.977,2.061,16.608-5.972,16.608c-8.02,0-5.972-11.63-5.972-16.608c0-5.087-2.018-16.608,5.972-16.608&#10;&#9;C608.495,1083.192,606.463,1094.698,606.463,1099.8z M546.81,718.03c1.94,5.63-3.521,8.399-8.196,7.29&#10;&#9;c-5.309-1.259-11.236-5.434-16.18-7.828c-5.478-2.652-10.951-5.316-16.387-8.053c-21.67-10.909-42.35-23.356-61.99-37.607&#10;&#9;c-3.27-2.372-11.296-6.405-12.313-10.664c-0.921-3.856,1.74-7.676,5.847-7.662c4.617,0.016,9.975,6.112,13.459,8.642&#10;&#9;c5.219,3.79,10.513,7.476,15.888,11.041c21.021,13.942,43.422,25.218,66.104,36.164C536.959,711.243,545.213,713.394,546.81,718.03z&#10;&#9;" style="fill: rgb(160, 11, 38);"/>
</svg>