<svg version="1.1" id="Capa_1" xmlns="http://www.w3.org/2000/svg" xmlns:xlink="http://www.w3.org/1999/xlink" x="0px" y="0px" viewBox="0 0 1200 1200" enable-background="new 0 0 1200 1200" xml:space="preserve">
<g>
	<path fill="#231F20" d="M247.801,110.423c-30.818,0-30.675,43.247-1.089,43.247C283.078,153.67,278.62,110.423,247.801,110.423z" style="fill: rgb(160, 11, 38);"/>
	<path fill="#231F20" d="M339.122,476.324c-10.84,0-19.628,8.788-19.628,19.628s8.788,19.628,19.628,19.628&#10;&#9;&#9;c10.84,0,19.628-8.788,19.628-19.628S349.962,476.324,339.122,476.324z" style="fill: rgb(160, 11, 38);"/>
	<path fill="#231F20" d="M798.561,563.088c-6.542,0-11.844,5.303-11.844,11.844c0,6.542,5.303,11.845,11.844,11.845&#10;&#9;&#9;c6.542,0,11.845-5.303,11.845-11.845C810.406,568.39,805.103,563.088,798.561,563.088z" style="fill: rgb(160, 11, 38);"/>
	<path fill="#231F20" d="M1055.831,403.981c0,0,9.829-25.556,4.915-38.333c-4.915-12.777-22.607-4.915-22.607-4.915&#10;&#9;&#9;c8.846-50.127-15.726-46.196-15.726-46.196c3.931-28.504-11.795-34.402-18.675-30.47c-6.88,3.932-13.761,6.88-13.761,6.88&#10;&#9;&#9;c6.88-19.658,1.966-63.888-15.726-62.906c-17.692,0.983-20.641,19.658-33.418,45.213c-12.778,25.555-36.367,33.418-36.367,33.418&#10;&#9;&#9;c-34.402-1.966-109.101,79.615-126.794,90.426c-17.692,10.812-78.632,7.863-123.845,0c-45.213-7.863-106.153-18.675-151.366-45.213&#10;&#9;&#9;c-45.213-26.538-53.404-65.854-64.544-99.928c-11.139-34.074-21.624-57.008-32.763-69.458&#10;&#9;&#9;c-11.139-12.45-34.074-37.35-46.524-58.973c-12.45-21.624-30.798-27.521-46.524-33.418c-15.726-5.898-20.969-1.966-20.313-7.864&#10;&#9;&#9;c0.655-5.897,5.897-9.173,2.621-16.382c-3.276-7.208-9.174,0-11.139-8.518c-1.966-8.519-9.174-10.484-13.761-1.311&#10;&#9;&#9;s-5.242,7.208-10.484,0c-5.242-7.208-10.484-4.587-11.139,5.242c-0.655,9.829-3.932,11.139-7.208,5.897&#10;&#9;&#9;c-3.276-5.242-8.518-10.484-13.76-8.518c-5.242,1.966,0.655,10.484-5.242,15.071c-5.897,4.587-8.518-7.208-13.105-16.382&#10;&#9;&#9;c-4.587-9.174-10.484-7.208-9.829,4.587c0.655,11.795,5.242,19.003-1.31,20.313c-6.553,1.31-6.553-0.655-12.45-11.139&#10;&#9;&#9;c-5.897-10.484-13.105-11.795-13.761-3.932c-0.655,7.864,2.621,30.142,2.621,30.142s-11.139,0-9.173,4.587&#10;&#9;&#9;c1.966,4.587,7.208,13.76,0.655,12.45c-6.553-1.31-11.14,3.277-6.553,5.897c4.587,2.621,9.829,5.242,9.829,5.242&#10;&#9;&#9;c-3.276,11.139,7.208,13.105,7.208,13.105c-19.003,0-32.108,15.726-36.039,29.487c-3.931,13.76-2.949,12.778,14.744,2.949&#10;&#9;&#9;c17.692-9.829,27.521-1.966,27.521-1.966c-10.812,0.983-20.641,5.897-27.521,16.709c-6.88,10.812,0,9.829,3.932,6.88&#10;&#9;&#9;c3.931-2.949,24.572-8.846,24.572-8.846s3.931,2.949,11.795,5.897c7.863,2.949,10.812,5.897,6.88,12.777&#10;&#9;&#9;c-3.932,6.88-2.949,24.572,7.863,31.453c10.812,6.88,20.641,16.709,20.641,16.709c1.966,24.572-3.932,55.042-8.846,73.717&#10;&#9;&#9;c-4.914,18.675,4.915,46.196,3.932,67.82c-0.983,21.624-0.983,59.957,6.88,82.563c7.863,22.607,6.88,76.666,14.743,107.136&#10;&#9;&#9;c7.864,30.47,31.453,65.854,55.042,108.119s39.316,28.504,57.008,38.333c17.692,9.829,44.23,14.743,50.128,35.384&#10;&#9;&#9;c5.897,20.641,21.624,34.402,28.504,41.281c6.88,6.88,14.743,22.607,10.812,43.248s-7.863,27.521-4.915,41.282&#10;&#9;&#9;c2.949,13.76,18.675,20.64,18.675,20.64c-4.915,13.761-69.786,73.717-82.563,93.375c-12.778,19.659-26.538,28.505-39.316,36.367&#10;&#9;&#9;c-12.778,7.864-18.675,0-31.453,0.983c-12.778,0.983-14.744,0.983-6.88,6.88c7.863,5.897-2.949,9.828-20.641,10.812&#10;&#9;&#9;c-17.692,0.982-57.008,0-65.854,2.949c-8.846,2.948-2.949,7.863,1.966,6.88c4.914-0.983,17.692,1.965,17.692,1.965&#10;&#9;&#9;c3.932,12.778,30.47,9.829,43.247,9.829c12.778,0,36.367,7.863,46.196,0.983c9.829-6.88,25.555-10.813,25.555-10.813&#10;&#9;&#9;s0.983,5.898-6.88,13.761c-7.863,7.864-1.966,16.709-1.966,16.709s12.777,3.932,17.692-1.966c4.915-5.897,10.812-3.932,17.692-6.88&#10;&#9;&#9;c6.88-2.949,10.812-19.658,10.812-19.658c9.829-9.829,16.71-21.624,16.71-21.624s6.88-7.863,21.624,0.983&#10;&#9;&#9;c14.743,8.846,25.556,3.931,29.487,1.966s10.812,0.983,10.812,0.983c0.983-14.744-7.863-19.658-21.624-20.641&#10;&#9;&#9;c-13.761-0.983-21.624-6.88-21.624-6.88c5.897-7.863,4.914-20.641,4.914-20.641s32.436-33.418,49.145-50.127&#10;&#9;&#9;c16.71-16.71,36.367-45.213,36.367-45.213c12.777,0,15.726-7.864,24.572-13.761c8.846-5.898,16.709-12.777,15.726-27.521&#10;&#9;&#9;c-0.983-14.743,10.812-12.777,10.812-12.777s22.607,20.641,37.35,31.453c14.744,10.812,16.71,24.572,18.675,35.384&#10;&#9;&#9;c1.966,10.812,20.641,11.795,20.641,11.795c6.88,16.709,31.453,11.794,31.453,11.794c2.948,41.282-11.795,109.102-15.726,122.862&#10;&#9;&#9;c-3.932,13.761-5.898,6.88-15.726,3.932c-9.829-2.949-21.624,4.915-15.726,4.915c5.897,0,10.812,6.88,4.914,8.845&#10;&#9;&#9;c-5.897,1.966-20.641-2.948-33.418-2.948s-42.265-4.915-51.111-2.949c-8.846,1.966-13.761-2.948-26.539,1.966&#10;&#9;&#9;c-12.777,4.915-5.897,17.692-5.897,17.692c2.949-11.794,12.777-6.88,12.777-6.88s8.846,12.778,17.692,10.812s28.504,0,42.265,2.948&#10;&#9;&#9;c13.76,2.949,37.35,2.949,37.35,2.949s-14.744,8.846-18.675,20.641c-3.931,11.794,3.931,17.692,3.931,17.692l3.932-6.88&#10;&#9;&#9;c7.863,1.966,13.76-6.88,21.624-8.846c7.863-1.966,25.555-1.966,29.487-4.915c3.932-2.949,15.726-10.812,15.726-10.812&#10;&#9;&#9;c12.778-0.983,21.624-3.931,20.641-15.726c-0.983-11.795,0.983-16.709,5.898-14.744c4.914,1.966,10.812,17.693,20.641,15.727&#10;&#9;&#9;c9.829-1.966,13.76-6.88,13.76-6.88c3.932-1.966,7.864,1.966,7.864,1.966c2.949-7.864,0.983-12.777-7.864-13.761&#10;&#9;&#9;c-8.846-0.983-15.726,0-21.623-10.812c-5.898-10.812-15.726-18.675-15.726-18.675c4.915-42.264,13.761-135.64,13.761-135.64&#10;&#9;&#9;s8.846-5.897,14.743-17.692c5.897-11.795,8.846-35.385,8.846-35.385c15.726-14.743,27.521-5.897,45.213,5.898&#10;&#9;&#9;c17.692,11.795,40.299-6.88,40.299-6.88c14.744,3.931,20.641,0.983,36.367-14.743c15.726-15.726,63.888-48.162,80.598-74.7&#10;&#9;&#9;c16.709-26.538,0-57.991-24.572-90.426c-24.572-32.436-60.94-49.145-60.94-49.145c2.949,0,42.265-1.966,60.94-1.966&#10;&#9;&#9;c18.675,0,52.093-11.794,52.093-11.794s17.692,12.777,31.453,11.794c13.761-0.982,31.453-19.658,27.521-22.606&#10;&#9;&#9;c-3.931-2.949-4.915-7.863-4.915-7.863c13.761-4.915,10.812-16.709,10.812-16.709c22.607,1.966,18.675-13.76,18.675-13.76&#10;&#9;&#9;c6.88-11.795-0.983-24.572-11.795-31.453c-10.812-6.88-12.777-18.675-12.777-18.675c28.504-17.692,13.761-43.247,13.761-43.247&#10;&#9;&#9;c14.743-17.692,8.846-39.316,8.846-39.316C1061.729,419.708,1055.831,403.981,1055.831,403.981z M948.521,363.19&#10;&#9;&#9;c29.571-5.091,52.691,30.405,6.785,63.191c-45.906,32.787-108.027,23.219-108.027,23.219&#10;&#9;&#9;C883.536,435.168,918.951,368.281,948.521,363.19z M864.298,486.604c-0.033,6.044-4.959,10.916-11.003,10.884&#10;&#9;&#9;c-6.044-0.033-10.916-4.959-10.883-11.003c0.033-6.043,4.959-10.916,11.002-10.883&#10;&#9;&#9;C859.458,475.634,864.331,480.561,864.298,486.604z M607.061,431.521c28.734,0.947,56.993,4.224,85.239,6.657&#10;&#9;&#9;c28.617,2.465,58.864,8.406,86.955-0.492c25.011-7.922,41.954-28.64,61.17-45.225c21.751-19.217,46.38-35.551,72.656-47.507&#10;&#9;&#9;c3.361-1.529,5.977,3.245,3.103,5.334c-23.141,16.727-45.057,34.084-65.172,53.75c-18.846,18.034-36.275,37.919-60.748,48.429&#10;&#9;&#9;c-16.663,7.569-38.632,5.898-56.388,5.044c-14.531-0.699-28.865-2.313-43.158-4.046c-28.567-3.483-56.888-8.247-84.524-16.741&#10;&#9;&#9;C603.241,435.817,603.868,431.364,607.061,431.521z M832.262,595.448c0,9.812-7.954,17.767-17.767,17.767&#10;&#9;&#9;c-5.349,0-10.09-2.414-13.347-6.154c-3.174,4.845-8.631,8.057-14.854,8.057c-9.812,0-17.767-7.955-17.767-17.767&#10;&#9;&#9;c0-2.393,0.488-4.669,1.346-6.753c-8.018-1.716-14.036-8.829-14.036-17.359c0-9.812,7.954-17.766,17.767-17.766&#10;&#9;&#9;c2.122,0,4.129,0.434,6.015,1.117c-0.17-0.986-0.305-1.986-0.305-3.02c0-9.813,7.954-17.767,17.767-17.767&#10;&#9;&#9;c9.812,0,17.767,7.954,17.767,17.767c0,0.288-0.071,0.557-0.085,0.843c2.167-0.942,4.551-1.477,7.065-1.477&#10;&#9;&#9;c9.812,0,17.767,7.954,17.767,17.767c0,6.942-4.02,12.889-9.824,15.813C831.314,589.148,832.262,592.175,832.262,595.448z&#10;&#9;&#9; M690.849,682.469c0,45.213,26.211,51.766,26.211,51.766s-55.042-7.864-53.732-48.49&#10;&#9;&#9;C664.301,655.59,690.849,656.25,690.849,682.469z M661.499,589.124c-9.905-5.34-17.491-13.884-21.745-24.312&#10;&#9;&#9;c-5.368-13.159-6.796-28.256-10.936-41.927c-3.353-11.071-10.75-20.295-17.08-29.835c-7.156-10.784,11.52-7.269,15.48-5.228&#10;&#9;&#9;c15.045,7.753,25.892,22.311,29.582,38.754c1.064,4.74,1.73,9.632,2.336,14.557c1.354,10.998,2.372,22.391,7.126,32.56&#10;&#9;&#9;c1.696,3.628,5.831,7.529,4.194,11.9C669.146,589.096,664.506,590.746,661.499,589.124z M685.561,638.058&#10;&#9;&#9;c-17.856-8.948-14.801-35.35,9.92-35.641c24.721-0.291,64.557,27.1,76.368,60.386C749.051,644.76,710.043,650.325,685.561,638.058z&#10;&#9;&#9; M695.305,503.724c0.055-10.179,8.352-18.385,18.531-18.33c10.179,0.056,18.385,8.352,18.33,18.531&#10;&#9;&#9;c-0.055,10.178-8.352,18.385-18.531,18.33C703.456,522.199,695.249,513.903,695.305,503.724z M770.478,501.438&#10;&#9;&#9;c0.045-8.27,6.786-14.938,15.056-14.893c8.27,0.045,14.938,6.786,14.893,15.056c-0.045,8.27-6.786,14.938-15.056,14.893&#10;&#9;&#9;C777.101,516.449,770.434,509.708,770.478,501.438z M418.104,350.352c3.901-7.922,13.149-18.404,23.101-15.336&#10;&#9;&#9;c-0.407,1.713-1.362,2.896-2.281,4.455c-14.639,24.851,1.694,56.539,16.122,77.474c7.564,10.975,16.266,21.981,26.821,30.232&#10;&#9;&#9;c6.165,4.819,13.118,8.829,20.747,10.779c1.942,0.497,22.85,1.1,22.221-0.214c0.012,0.024-0.261,0.127-0.517,0.225&#10;&#9;&#9;c14.309-5.874,21.51-23.352,11.886-36.535c-8.831-12.099-34.903-15.735-37.093,3.718c-4.085-11.858,6.868-22.662,17.628-25.182&#10;&#9;&#9;c13.157-3.08,28.012,2.955,37.199,12.346c21.737,22.218,11.093,58.402-14.739,71.818c-34.132,17.725-66.076-1.721-90.151-26.436&#10;&#9;&#9;c-26.204-26.9-44.598-62.304-83.191-73.047c-18.975-5.282-35.985-2.272-54.933-0.304c0.533-0.93,1.314-1.495,2.186-2.146&#10;&#9;&#9;c29.392-21.934,67.621-20.417,99.208-4.575C408.831,375.875,416.777,353.048,418.104,350.352z M370.621,320.703&#10;&#9;&#9;c0.033-6.043,4.959-10.916,11.002-10.883c6.044,0.033,10.916,4.959,10.884,11.002c-0.033,6.044-4.959,10.916-11.003,10.884&#10;&#9;&#9;C375.461,331.673,370.589,326.747,370.621,320.703z M387.28,251.665c8.27,0.045,14.938,6.786,14.893,15.056&#10;&#9;&#9;c-0.045,8.27-6.786,14.938-15.056,14.893s-14.938-6.786-14.893-15.056C372.269,258.288,379.01,251.62,387.28,251.665z&#10;&#9;&#9; M355.725,189.208c11.074,0.06,20.002,9.086,19.942,20.16c-0.061,11.074-9.087,20.002-20.16,19.942&#10;&#9;&#9;c-11.074-0.061-20.002-9.087-19.942-20.16C335.626,198.075,344.652,189.147,355.725,189.208z M341.071,298.739&#10;&#9;&#9;c-18.34-13.479-62.371-10.339-74.024-23.396c-11.653-13.057-1.234-35.46,29.167-22.876&#10;&#9;&#9;C326.616,265.05,341.071,298.739,341.071,298.739z M197.744,163.764c-12.104-7.037-21.624-7.816-28.485-8.294&#10;&#9;&#9;c-4.151-0.289,9.829-9.432,23.589-10.689c-3.634-17.975,15.726-44.643,47.179-45.901c40.129-1.604,65.526,4.402,87.806,19.492&#10;&#9;&#9;c22.279,15.09,22.279,67.279-49.8,64.135C219.588,179.958,205.517,184.437,197.744,163.764z M278.021,303.325&#10;&#9;&#9;c39.248,1.034,69.747,32.396,69.747,32.396c-26.193-7.185-73.911,15.123-92.473,5.553&#10;&#9;&#9;C236.733,331.703,238.772,302.291,278.021,303.325z M247.775,394.686c0,0,55.422,9.964,43.483,55.143&#10;&#9;&#9;C291.258,449.828,248.45,454.726,247.775,394.686z M272.018,605.743c0,0,10.757-39.042,42.334-27.54&#10;&#9;&#9;C314.352,578.203,315.556,611.255,272.018,605.743z M326.985,668.085c0,0-33.784-56.603,15.29-80.772&#10;&#9;&#9;C342.275,587.313,382.484,623.11,326.985,668.085z M343.408,549.195c-5.259,8.029-14.302,13.353-24.616,13.353&#10;&#9;&#9;c-16.261,0-29.442-13.182-29.442-29.442c0-3.966,0.808-7.737,2.23-11.19c-13.288-2.844-23.26-14.63-23.26-28.767&#10;&#9;&#9;c0-16.26,13.182-29.442,29.442-29.442c3.516,0,6.842,0.72,9.968,1.851c-0.281-1.634-0.505-3.291-0.505-5.005&#10;&#9;&#9;c0-16.261,13.182-29.442,29.442-29.442c16.261,0,29.443,13.182,29.443,29.442c0,0.478-0.118,0.923-0.141,1.396&#10;&#9;&#9;c3.591-1.56,7.542-2.448,11.708-2.448c16.26,0,29.442,13.182,29.442,29.443c0,11.503-6.662,21.36-16.279,26.205&#10;&#9;&#9;c2.558,4.364,4.129,9.38,4.129,14.804c0,16.261-13.182,29.443-29.442,29.443C356.662,559.394,348.806,555.395,343.408,549.195z&#10;&#9;&#9; M395.995,703.914c-8.27-0.045-14.938-6.786-14.893-15.056c0.045-8.27,6.786-14.938,15.056-14.893&#10;&#9;&#9;c8.27,0.045,14.938,6.786,14.893,15.056C411.006,697.291,404.265,703.96,395.995,703.914z M404.953,641.353&#10;&#9;&#9;c-10.178-0.055-18.385-8.352-18.33-18.531c0.055-10.179,8.352-18.385,18.531-18.33c10.179,0.055,18.385,8.352,18.33,18.531&#10;&#9;&#9;C423.428,633.202,415.131,641.408,404.953,641.353z M433.804,568.218c-10.114,8.09-19.438,1.083-13.358-10.625&#10;&#9;&#9;c5.832-11.232,8.107-23.758,11.628-35.798c1.93-6.6,6.784-27.477,17.725-17.674c5.417,4.854,5.426,14.343,5.198,20.644&#10;&#9;&#9;C454.394,541.4,446.798,557.824,433.804,568.218z M444.032,656.595c-0.112-11.61,2.513-24.372,6.278-34.911&#10;&#9;&#9;c3.475-9.728,9.771-18.087,13.766-27.562c8.279-19.633,11.958-40.448,15.115-61.407l0.031-0.203&#10;&#9;&#9;c1.004-6.666,10.66-7.332,12.562-0.85c3.248,11.067,4.327,23.833,4.028,34.932c-0.707,26.232-11.877,43.001-24.16,64.716&#10;&#9;&#9;c-4.951,8.753-9.542,18.611-14.621,28.123l-0.165,0.309C453.6,665.856,444.098,663.494,444.032,656.595z M520.502,876.589&#10;&#9;&#9;c-6.098,0.914-11.908-1.626-15.473-6.144c-2.084,5.364-6.894,9.497-12.991,10.411c-9.055,1.357-17.497-4.883-18.854-13.939&#10;&#9;&#9;c-1.357-9.055,4.883-17.496,13.939-18.853c0.289-0.043,0.574-0.057,0.861-0.085c-1.293-36.597-8.817-72.623-13.655-92.451&#10;&#9;&#9;c-0.347,0.075-0.69,0.157-1.045,0.211c-9.055,1.357-17.497-4.883-18.854-13.938c-1.357-9.056,4.883-17.497,13.939-18.854&#10;&#9;&#9;c6.098-0.914,11.908,1.627,15.473,6.144c2.084-5.364,6.894-9.497,12.992-10.41c9.055-1.357,17.496,4.883,18.853,13.938&#10;&#9;&#9;c1.357,9.056-4.883,17.497-13.938,18.854c-0.403,0.061-0.803,0.088-1.204,0.119c2.996,41.964,9.747,75.132,13.879,92.441&#10;&#9;&#9;c0.384-0.086,0.767-0.175,1.163-0.235c9.055-1.357,17.496,4.883,18.853,13.939C535.798,866.791,529.557,875.232,520.502,876.589z&#10;&#9;&#9; M526.778,658.346c-5.01,11.77-7.322,25.154-9.325,37.728c0,0.001-0.135,0.851-0.135,0.851&#10;&#9;&#9;c-1.854,11.638-13.524,4.827-15.796-2.098c-2.13-6.494-1.319-13.981-1.187-20.696c0.454-23.087,13.989-41.432,20.544-62.415&#10;&#9;&#9;c3.844-12.305,5.951-25.783,7.153-39.317c1.138-13.566,1.232-27.361-0.059-40.876l-0.021-0.223&#10;&#9;&#9;c-0.783-8.19,10.987-10.815,13.871-3.232c5.5,14.462,7.738,29.598,8.416,44.757c0.582,15.195-0.631,30.533-4.585,45.942&#10;&#9;&#9;C541.857,633.557,532.604,644.552,526.778,658.346z M565.203,742.56c-8.27-0.045-14.938-6.786-14.893-15.056&#10;&#9;&#9;c0.045-8.271,6.786-14.938,15.057-14.893c8.27,0.045,14.938,6.786,14.892,15.056C580.214,735.938,573.473,742.605,565.203,742.56z&#10;&#9;&#9; M581.329,583.962c-0.537-18.249-3.427-36.335-7.428-54.123c-1.584-7.042-3.312-14.243-4.423-21.863&#10;&#9;&#9;c-0.782-5.323,6.049-8.42,9.543-4.318c20.558,24.141,31.476,56.992,28.208,88.62c-1.543,14.931-4.894,29.893-3.746,44.978&#10;&#9;&#9;c1.04,13.673,11.169,22.379,13.442,35.36c1.708,9.759-7.699,10.257-14.122,6.414c-1.092-0.653-2.11-1.414-3.064-2.256&#10;&#9;&#9;C573.705,653.789,582.217,614.15,581.329,583.962z M699.358,893.429c-5.47,2.847-11.79,2.333-16.63-0.78&#10;&#9;&#9;c-0.227,5.75-3.432,11.221-8.902,14.069c-8.122,4.227-18.133,1.07-22.361-7.052c-4.227-8.122-1.07-18.133,7.052-22.361&#10;&#9;&#9;c0.259-0.135,0.525-0.241,0.787-0.361c-13.121-34.19-31.947-65.813-42.968-82.991c-0.303,0.183-0.601,0.374-0.92,0.539&#10;&#9;&#9;c-8.122,4.227-18.133,1.071-22.36-7.052c-4.227-8.122-1.07-18.133,7.052-22.361c5.471-2.847,11.79-2.333,16.63,0.779&#10;&#9;&#9;c0.227-5.75,3.432-11.221,8.902-14.068c8.122-4.227,18.133-1.07,22.361,7.052c4.227,8.122,1.07,18.133-7.052,22.36&#10;&#9;&#9;c-0.362,0.189-0.731,0.345-1.099,0.504c16.474,38.71,33.642,67.883,43.176,82.909c0.336-0.206,0.669-0.416,1.024-0.601&#10;&#9;&#9;c8.122-4.227,18.133-1.07,22.361,7.052C710.638,879.191,707.48,889.202,699.358,893.429z M867.034,819.977&#10;&#9;&#9;c-8.27-0.045-14.938-6.786-14.893-15.056c0.045-8.27,6.786-14.939,15.056-14.893s14.938,6.786,14.893,15.056&#10;&#9;&#9;C882.045,813.355,875.304,820.023,867.034,819.977z M910.625,777.601c-0.033,6.044-4.959,10.917-11.003,10.884&#10;&#9;&#9;c-6.043-0.033-10.916-4.959-10.883-11.002c0.033-6.044,4.959-10.916,11.002-10.884&#10;&#9;&#9;C905.785,766.632,910.658,771.558,910.625,777.601z M873.055,716.067c11.292,4.612,29.311,22.714,29.311,22.714&#10;&#9;&#9;s-26.187,16.878-36.116,31.203c-9.928,14.326-49.526-9.878-49.526-9.878s23.603,20.075,20.485,35.236&#10;&#9;&#9;c-3.119,15.16-18.803,41.043-18.803,41.043s-8.747-19.64-23.337-22.891c-14.589-3.25-17.163-42.646-17.163-42.646&#10;&#9;&#9;s-14.255,42.079-42.599,28.767c-28.345-13.311-41.13-6.146-41.13-6.146s1.053-18.895,18.1-33.661&#10;&#9;&#9;c17.047-14.766,41.083-14.902,41.083-14.902s-18.122-5.474-26.913-22.695c-8.79-17.224-8.116-45.627-8.116-45.627&#10;&#9;&#9;s17.523-1.75,39.715,5.76c20.695,7.004,28.896,27.437,29.91,30.164c-0.955-2.748-7-23.271,18.859-39.887&#10;&#9;&#9;c8.74-5.617,13.676-23.969,15.126-25.507c1.451-1.538,14.46,14.844,19.956,33.43c5.496,18.586-15.998,46.827-15.998,46.827&#10;&#9;&#9;S861.761,711.455,873.055,716.067z M965.568,596.613c-29.984,1.129-78.456-56.996-116.912-63.625c0,0,58.804-22.197,110.494,0.396&#10;&#9;&#9;C1010.839,555.977,995.553,595.484,965.568,596.613z M995.496,492.634c-46.717,2.748-96.181-8.244-96.181-8.244&#10;&#9;&#9;s59.216-21.195,87.937-28.854C1028.472,444.545,1036.116,490.245,995.496,492.634z" style="fill: rgb(160, 11, 38);"/>
	<path fill="#231F20" d="M793.79,726.951c-9.028-2.524-18.394,2.748-20.918,11.776c-2.525,9.028,2.747,18.394,11.776,20.918&#10;&#9;&#9;c9.028,2.525,18.393-2.747,20.918-11.776C808.09,738.841,802.818,729.476,793.79,726.951z" style="fill: rgb(160, 11, 38);"/>
	<path fill="#231F20" d="M306.56,165.273c0,0,15.109-17.95,6.649-23.922c-9.047-6.386-14.95,7.02-14.95,7.02&#10;&#9;&#9;c-8.788-3.172-19.344,5.433-12.264,11.962C293.074,166.862,306.56,165.273,306.56,165.273z" style="fill: rgb(160, 11, 38);"/>
</g>
</svg>