<svg version="1.1" id="Capa_1" xmlns="http://www.w3.org/2000/svg" xmlns:xlink="http://www.w3.org/1999/xlink" x="0px" y="0px" viewBox="0 0 1200 1200" enable-background="new 0 0 1200 1200" xml:space="preserve">
<path fill="#031A2D" d="M633.005,489.655c-35.242,12.693-60.876-64.276-19.359-72.498&#10;&#9;C637.815,412.371,668.247,476.96,633.005,489.655z M740.135,359.819c-38.344,7.594-14.669,78.682,17.88,66.958&#10;&#9;C790.564,415.052,762.458,355.397,740.135,359.819z M851.803,406.697c0.339,3.128,3.145,5.389,6.28,5.057&#10;&#9;c2.292-0.25,56.434-5.453,82.333,40.908c1.045,1.871,2.985,2.925,4.983,2.923c0.942,0,1.896-0.232,2.776-0.724&#10;&#9;c2.751-1.537,3.733-5.01,2.199-7.759c-29.636-53.057-90.927-46.956-93.529-46.686C853.719,400.76,851.465,403.569,851.803,406.697z&#10;&#9; M584.244,707.389c1.178,1.622,1.421,3.742,0.637,5.587c-12.969,30.532-48.68,35.572-76.828,41.715&#10;&#9;c-11.316,2.47-16.411,6.336-27.458,10.402c-0.639,0.236-1.308,0.352-1.969,0.352c-1.332,0-2.646-0.468-3.693-1.359&#10;&#9;c-1.568-1.332-2.297-3.406-1.905-5.426c0.018-0.1,2.185-12.417-5.117-19.964c-5.796-5.992-16.282-7.899-31.191-5.663&#10;&#9;c-106.048,15.939-144.024-16.716-145.588-18.113c-1.764-1.575-2.372-4.077-1.53-6.286c0.844-2.21,2.963-3.669,5.328-3.669&#10;&#9;c23.301,0,44.579-13.232,55.664-21.561c-75.276-25.691-76.621-118.6-76.625-119.578c-0.011-2.584,1.715-4.854,4.208-5.531&#10;&#9;c2.493-0.668,5.13,0.41,6.429,2.644c14.279,24.622,24.74,22.733,47.673,18.592c6.779-1.223,14.462-2.611,23.263-3.442&#10;&#9;c18.676-1.726,32.521,19.946,45.918,40.937c5.186,8.122,10.55,16.522,15.885,23.045c7.514,9.184,16.542,13.103,22.648,14.771&#10;&#9;c-2.798-25.849,7.46-46.693,7.944-47.655c1.069-2.134,3.341-3.386,5.725-3.11c2.37,0.263,4.328,1.974,4.905,4.288&#10;&#9;c0.085,0.336,9.098,34.902,42.158,67.964c32.447,32.447,77.946,28.785,78.399,28.736&#10;&#9;C581.135,704.88,583.064,705.769,584.244,707.389z M570.099,716.569c-16.64-0.595-50.623-5.357-77.439-32.176&#10;&#9;c-21.439-21.439-33.33-43.205-39.462-57.39c-2.085,8.859-3.473,20.866-0.748,33.572c0.365,1.709-0.069,3.488-1.183,4.834&#10;&#9;c-1.114,1.343-2.751,2.174-4.529,2.063c-0.904-0.02-22.325-0.751-38.219-20.18c-5.763-7.042-11.307-15.729-16.671-24.13&#10;&#9;c-11.557-18.106-23.584-36.82-35.234-35.718c-8.322,0.784-15.754,2.125-22.31,3.31c-18.454,3.326-32.955,5.95-47.009-7.427&#10;&#9;c4.698,28.409,20.875,78.947,76.574,92.029c2.036,0.477,3.647,2.029,4.197,4.045c0.552,2.016-0.042,4.172-1.55,5.62&#10;&#9;c-1.118,1.074-23.635,22.383-53.561,29.242c18.536,7.812,56.57,17.335,122.073,7.487c4.522-0.679,8.761-1.018,12.704-1.018&#10;&#9;c12.464,0,22.007,3.386,28.464,10.118c6.24,6.509,8.093,14.676,8.469,20.846c9.209-2.831,18.505-4.861,27.562-6.837&#10;&#9;C536.616,739.538,558.068,734.855,570.099,716.569z M795.605,756.454c-18.5,0.867-35.735,3.848-54.329,1.408&#10;&#9;c-18.413-2.418-36.308-8.452-53.12-16.237c-6.093-2.822-10.394,4.876-5.181,8.864c32.746,25.038,76.635,31.227,114.842,14.134&#10;&#9;C801.831,762.827,799.766,756.258,795.605,756.454z M668.954,780.031c1.951-4.408-2.516-11.079-7.509-7.509&#10;&#9;c-12.535,8.962-61.508,50.616-73.552,61.45c-4.326,3.891,0.23,11.119,5.583,9.591C609.097,839.101,662.627,794.333,668.954,780.031z&#10;&#9; M561.765,877.074c3.234-1.48,5.544-5.225,7.619-7.98c2.096-2.782,3.877-5.77,5.863-8.639c3.591-5.19-4.139-10.546-8.453-6.522&#10;&#9;c-5.078,4.736-13.048,10.909-12.966,18.587C553.873,876.808,558.204,878.706,561.765,877.074z M553.657,951.292&#10;&#9;c2.363,19.234,19.87,85.907,25.036,96.919c1.856,3.955,9.202,3.251,9.837-1.286c2.009-14.361-19.867-80.123-23.531-97.167&#10;&#9;C563.656,943.511,552.856,944.771,553.657,951.292z M544.196,220.577c4.418,4.094,8.812,9.461,13.923,12.624&#10;&#9;c3.651,2.261,9.253-1.548,7.644-5.876c-2.233-6.003-7.363-11.94-11.608-16.707c-4.52-5.074-10.259-9.444-16.548-11.976&#10;&#9;c-4.358-1.753-9.283,4.475-6.359,8.273C535.05,211.856,539.623,216.339,544.196,220.577z M572.242,174.642&#10;&#9;c8.92,0.114,19.19,1.534,27.689-1.579c5.023-1.842,5.032-8.399,0-10.243c-8.495-3.112-18.782-1.693-27.689-1.579&#10;&#9;C563.62,161.349,563.605,174.53,572.242,174.642z M505.778,252.849c2.125-10.544,2.672-21.062,6.844-31.13&#10;&#9;c1.998-4.819-6.007-8.107-8.404-3.543c-5.546,10.563-10.956,22.702-6.758,34.673C498.756,256.54,504.873,257.339,505.778,252.849z&#10;&#9; M243.143,575.247c2.267-7.623-9.632-10.88-11.892-3.279c-4.871,16.382,3.364,36.45,15.657,47.769&#10;&#9;c4.279,3.938,9.72-0.972,7.613-5.874C249.077,601.194,238.722,590.114,243.143,575.247z M694.094,797.086&#10;&#9;c-7.191,1.491-14.792,6.861-20.29,11.523c-6.436,5.46-12.252,11.556-18.116,17.609c-6.677,6.892,3.44,16.883,10.484,10.483&#10;&#9;c5.694-5.174,11.313-10.427,17-15.609c5.292-4.823,11.197-10.141,15.776-15.667C702.129,801.588,699.164,796.034,694.094,797.086z&#10;&#9; M702.126,196.318c8.547,4.29,13.871,11.791,21.072,17.752c3.34,2.764,9.926,0.285,8.102-4.717&#10;&#9;c-3.852-10.558-12.803-19.136-22.877-23.805C701.236,182.217,694.881,192.683,702.126,196.318z M726.432,266.675&#10;&#9;c3.149,3.534,10.018-0.182,8.221-4.785c-6.633-16.994-21.862-27.227-34.848-39.21c-5.854-5.401-14.602,3.275-8.771,8.771&#10;&#9;C703.276,242.987,715.234,254.111,726.432,266.675z M694.528,273.861c1.695-0.992,2.906-3.413,2.178-5.353&#10;&#9;c-1.382-3.683-3.565-6.861-5.847-10.045c-2.124-2.965-5.902-4.12-9.008-1.72c-2.772,2.141-3.356,6.638-0.62,9.149&#10;&#9;c2.566,2.355,4.851,5.04,7.552,7.229C690.443,274.464,692.574,275.003,694.528,273.861z M618.601,861.344&#10;&#9;c-7.289,2.934-11.907,9.663-18.374,13.878c-6.865,4.475-0.4,15.587,6.44,11.018c6.509-4.346,14.046-10.584,17.328-17.879&#10;&#9;C625.473,865.075,622.912,859.61,618.601,861.344z M808.384,360.282c14.563,21.031,26.604,47.496,17.966,71.574&#10;&#9;c-4.162,11.6-12.752,21.156-22.454,28.756c-12.781,10.011-28.576,17.279-44.776,16.207c-15.892-1.051-30.487-10.111-40.976-22.096&#10;&#9;c-10.489-11.986-17.315-26.72-22.86-41.651c-5.951-16.023-10.634-32.883-9.902-49.961c1.867-43.528,40.952-64.723,79.415-44.84&#10;&#9;c13.447,6.951,24.558,17.503,34.14,29.338C802.259,351.712,805.397,355.968,808.384,360.282z M797.813,366.686&#10;&#9;c-18.872-31.169-55.722-56.503-82.366-43.102c-16.168,8.14-18.685,29.371-18.748,41.304c-0.178,34.584,19.149,81.696,48.203,96.701&#10;&#9;c14.005,7.233,28.335,5.709,42.59-4.524C820.922,433.074,814.742,394.647,797.813,366.686z M947.962,383.558&#10;&#9;c34.773,66.322,55.415,137.856,54.537,205.405c-1.885,144.808-194.527,242.928-309.625,301.551&#10;&#9;c-36.787,18.736-65.842,33.535-73.939,42.715c-4.844,5.491-7.832,14.482-9.522,25.65c0.781,9.775,11.707,183.193,4.256,189.208&#10;&#9;c-1.57,1.268-3.415,1.914-5.373,1.914c-1.027,0-2.087-0.176-3.154-0.537c-5.166-1.74-12.691-8.677-29.351-46.943&#10;&#9;c-10.334-23.731-22.579-56.109-34.479-91.167c-4.506-13.281-43.855-130.324-37.464-150.417&#10;&#9;c5.796-18.211,66.701-67.815,131.656-118.71c8.819-6.91,16.433-12.876,17.549-13.96c3.769-3.971,4.776-12.515,5.984-17.56&#10;&#9;c1.052-4.391,1.757-8.85,2.68-13.252c0.672-3.208,3.099-6.348,6.799-5.725c0.102,0.017,0.206,0.013,0.308,0.036&#10;&#9;c28.841,6.391,50.369,4.818,62.271-4.56c3.844-3.03,6.162-6.469,7.579-9.525c-0.115,0.022-0.218,0.055-0.335,0.076&#10;&#9;c-3.415,0.633-6.696,0.949-9.839,0.949c-9.191,0-17.195-2.698-23.887-8.066c-13.085-10.499-17.306-28.449-18.655-37.959&#10;&#9;c-47.717,6.228-80.368-11.695-81.79-12.495c-1.691-0.951-2.784-2.698-2.9-4.633c-0.114-1.938,0.764-3.803,2.332-4.945&#10;&#9;c33.577-24.49,36.259-37.78,35.853-42.356c-0.131-1.485-0.637-2.673-1.252-3.644c-13.655-0.577-29.606-3.876-40.235-12.388&#10;&#9;c-31.425-17.07-52.562-54.401-60.665-94.841c-46.257-50.588-92.681-110.628-89.258-173.395&#10;&#9;c2.414-44.275,28.741-76.16,57.513-107.166c-10.929-13.721-24.116-25.64-38.868-35.129c-4.201-2.703-8.614-5.245-13.482-6.364&#10;&#9;c-18.998-4.367-27.826,26.816-34.489,40.073c-2.051,6.471-4.119,12.927-6.519,19.289c-6.879,18.237-16.095,41.151-32.741,53.337&#10;&#9;c-1.087,1.345-31.808,22.717-63.633-20.324c-3.602-5.296-5.77-10.764-5.575-15.867c0.16-4.179,2.078-11.797,13.127-15.849&#10;&#9;c13.428-4.923,32.895-38.696,50.07-68.492c24.176-41.944,45.085-78.212,65.953-77.476c31.733,1.058,85.029,79.397,99.471,101.537&#10;&#9;c11.119-6.896,22.616-12.37,34.442-16.426c5.387-2.02,10.961-3.586,16.665-4.72c32.297-7.289,66.781-4.474,102.569,8.574&#10;&#9;c0.219,0.06,0.43,0.156,0.644,0.243c6.184,2.274,12.403,4.829,18.659,7.714C806.164,190.43,894.048,280.729,947.962,383.558z&#10;&#9; M514.082,165.437c0.778,0.713,1.678,1.469,2.732,1.419c0.822-0.039,1.529-0.566,2.179-1.071c2.731-2.124,5.461-4.248,8.192-6.372&#10;&#9;c0.627-0.488,1.298-1.046,1.441-1.827c0.154-0.842-0.355-1.647-0.841-2.352c-14.698-21.323-29.64-42.487-46.929-61.827&#10;&#9;c-9.65-10.795-25.645-31.455-41.835-31.994c-0.083-0.004-0.166-0.004-0.246-0.004c-22.566,0-42.589,51.324-51.325,67.789&#10;&#9;c-0.849,1.601-1.703,3.208-2.563,4.821c-13.976,26.202-29.581,53.563-54.573,70.537c-20.951,14.228,18.074,45.989,36.684,35.586&#10;&#9;c6.537-3.656,11.115-10.022,14.634-16.629c13.708-25.736,21.501-54.343,36.724-79.301c13.392-21.958,33.279-27.189,55.233-12.709&#10;&#9;C488.307,141.209,501.075,153.535,514.082,165.437z M466.675,250.654c4.938,15.567,17.152,50.197,27.72,66.512&#10;&#9;c10.421-18.077,27.798-51.398,27.798-66.586c0-1.831,0.878-3.549,2.361-4.622c1.486-1.071,3.393-1.368,5.128-0.793&#10;&#9;c5.003,1.651,42.44,14.381,59.994,30.984c3.537-16.168,7.369-46.181-7.87-62.115c-1.386-1.446-1.909-3.515-1.379-5.447&#10;&#9;c0.528-1.934,2.034-3.446,3.963-3.985c2.087-0.584,45.853-12.588,71.085-0.388c-0.936-7.36-5.591-18.447-22.777-28.634&#10;&#9;c-2.277-1.348-3.326-4.085-2.535-6.609c0.789-2.524,3.179-4.177,5.852-3.983c1.002,0.068,21.445,1.176,40.251-13.791&#10;&#9;c-1.124-0.376-2.242-0.764-3.372-1.132c-18.363-5.979-37.662-10.817-57.048-11.119c-6.301-0.099-12.366,0.342-18.285,1.229&#10;&#9;c-19.945,3.791-39.023,11.737-57.172,23.867c-0.071,0.049-0.129,0.111-0.203,0.158c-0.033,0.021-0.069,0.031-0.101,0.051&#10;&#9;c-6.773,4.547-13.419,9.659-19.929,15.366C493.531,202.96,475.83,226.429,466.675,250.654z M643.216,550.264&#10;&#9;c18.206-1.682,30.509-9.487,36.571-23.205c14.226-32.202-7.353-88.327-34.88-124.786c-20.786-27.529-43.675-43.385-62.213-43.385&#10;&#9;c-1.441,0-2.854,0.096-4.237,0.287c-28.21,3.938-36.517,44.931-32.296,81.352c0.511,4.411,1.206,8.806,2.04,13.167&#10;&#9;c0.017,0.091,0.04,0.18,0.052,0.272C558.53,507.22,592.636,554.902,643.216,550.264z M734.11,666.856&#10;&#9;c12.555-6.25,11.995-9.529,9.351-22.77c-1.812-9.072-10.561-16.285-16.282-20.14c-9.384,2.635-19.364,4.941-29.95,6.89&#10;&#9;c1.08,7.75,4.43,22.833,14.554,30.928C717.677,666.481,725.012,668.125,734.11,666.856z M857.992,697.814&#10;&#9;c37.001-23.318,64.822-58.092,73.867-94.912c3.061-12.461,7.852-51.687,5.813-82.387c-3.238,2.923-28.147,25.223-45.805,53.451&#10;&#9;C868.389,611.497,853.255,668.273,857.992,697.814z M829.439,507.855v12.661c0,0,38.15,25.311,48.489-2.643&#10;&#9;c6.783-26.223-25.715-41.601-38.475-46.547C833.271,482.664,830.274,496.64,829.439,507.855z M827.109,541.66l0.066-0.525&#10;&#9;c-3.118,13.975-9.642,26.676-19.523,37.921c0.117,0.149,0.271,0.275,0.344,0.461c8.542,21.989,30.18,19.176,36.303,17.614&#10;&#9;c6.273-1.599,11.107-5.533,14.773-12.027c2.796-4.951,2.76-10.374,1.059-15.794C853.598,548.931,827.109,541.66,827.109,541.66z&#10;&#9; M755.228,614.317l1.612,3.738c8.222,12.016,28.95,37.194,50.409,23.054c2.634-1.733,4.674-3.596,6.177-5.602&#10;&#9;c4.859-19.663-14.392-34.261-22.369-41.192C781.006,601.895,769.029,608.578,755.228,614.317z M960.167,454.082&#10;&#9;C914.859,346.647,841.603,249.986,745.673,183.71c-14.075-9.725-29.088-18.982-45.935-21.955&#10;&#9;c-14.431,13.308-46.287,15.295-46.287,15.295s16.476,28.92,9.364,43.147c-20.117-10.895-44.701-13.222-66.505-6.292&#10;&#9;c11.538,25.464,10.657,56.219-2.319,80.982c-17.147-16.563-38.195-29.061-60.944-36.19c-7.333,24.375-18.13,47.704-31.966,69.068&#10;&#9;c-1.386,2.141-3.074,4.447-5.585,4.895c-3.655,0.65-6.57-2.893-8.516-6.054c-10.705-17.389-16.429-36.731-25.669-54.446&#10;&#9;c0.88,1.687-2.781,12.599-2.949,15.247c-0.386,6.081,0.128,12.202,1.067,18.21c1.756,11.234,5.336,21.993,9.584,32.502&#10;&#9;c8.896,22.004,20.702,42.936,35.536,61.494c7.517,9.403,29.515,36.769,29.515,36.769s-0.747-33.849,4.087-49.901&#10;&#9;c4.834-16.051,15.814-31.184,31.672-36.619c26.158-8.965,53.203,10.66,71.411,31.471c21.305,24.351,38.594,52.207,50.96,82.107&#10;&#9;c8.442,20.411,15.343,43.337,8.81,64.436c-10.562,34.11-37.495,40.224-49.473,37.457c-3.005,21.256-15.272,38.026-33.441,49.459&#10;&#9;c47.521,12.439,99.551,6.758,143.267-15.643c21.578-11.057,42.036-27.206,50.682-49.858c10.834-28.383,1.896-63.342,19.529-88.082&#10;&#9;c19.303-27.082,63.454-25.939,88.394-3.938c24.94,22,33.365,57.72,32.415,90.964c-1.879,65.724-37.59,130.359-94.125,163.928&#10;&#9;c-56.535,33.569-132.422,33.303-186.871-3.554c4.691,20.246-15.511,36.72-32.756,48.317&#10;&#9;c-38.893,26.157-75.362,55.915-108.787,88.773c-5.61,5.514-11.339,11.457-13.501,19.021c-2.11,7.383-0.518,15.261,1.16,22.755&#10;&#9;c19.371,86.521,49.161,170.703,88.522,250.15c-2.706-56.734-5.412-113.468-8.119-170.203c-0.596-12.496-0.944-25.951,5.963-36.381&#10;&#9;c0.814-1.23,1.711-2.387,2.676-3.482c5.037-5.719,11.927-9.738,18.639-13.518c93.229-52.512,192.869-96.059,274.397-165.357&#10;&#9;c35.642-30.296,68.239-66.694,82.494-111.247C1001.238,577.532,984.605,512.033,960.167,454.082z M529.623,782.493&#10;&#9;c-9.472,3.297-19.357,5.455-29.365,7.204c-4.936,1.035-9.838,1.841-14.671,2.348c-12.494,1.878-24.957,3.66-36.846,6.698&#10;&#9;c-36.592,13.162-55.688,42.289-55.922,42.654c-1.056,1.646-2.874,2.629-4.805,2.629c-0.178,0-0.359-0.007-0.539-0.025&#10;&#9;c-2.127-0.203-3.965-1.573-4.758-3.555c-12.824-32.058,15.709-60.758,36.976-76.773c-78.176,7.135-136.187-4.166-172.678-33.686&#10;&#9;c-31.583-25.551-34.301-55.283-34.401-56.537c-0.16-2.009,0.751-3.954,2.397-5.115c1.648-1.165,3.785-1.37,5.625-0.541&#10;&#9;c25.125,11.278,44.688,13.564,57.978,13.029c-41.01-16.279-67.497-49.032-77.124-95.836c-8.351-40.596-1.134-76.937-0.822-78.463&#10;&#9;c0.472-2.321,2.33-4.108,4.665-4.489c2.332-0.388,4.667,0.717,5.854,2.767c2.95,5.088,6.066,9.412,9.337,13.093&#10;&#9;c7.2,5.323,14.222,11.077,22.22,14.919c1.011,0.486,2.012,0.881,3.01,1.239c2.82,0.809,5.718,1.399,8.692,1.8&#10;&#9;c8.229,0.568,16.327-1.613,25.194-2.101c1.486-0.08,2.671,0.593,3.465,1.601c7.906-0.968,16.2-2.401,24.884-3.908&#10;&#9;c11.804-2.047,24.009-4.166,36.787-5.371c42.628-3.996,65.151,34.414,75.097,59.29c0.877-9.202-0.038-17.489-1.857-24.728&#10;&#9;c-1.966-5.993-4.353-11.8-6.859-17.559c-4.951-9.128-10.187-14.401-10.706-14.912c-1.882-1.851-2.257-4.756-0.893-7.017&#10;&#9;c1.363-2.263,4.097-3.297,6.607-2.497c32.443,10.323,56.283,40.926,83.885,76.36c15.27,19.601,31.06,39.872,49.809,58.622&#10;&#9;c48.419,48.413,96.629,16.077,98.661,14.678c2.085-1.444,4.885-1.332,6.848,0.27c1.967,1.604,2.695,4.33,1.651,6.645&#10;&#9;C614.945,746.342,551.434,774.9,529.623,782.493z M509.089,774.021c25.512-6.897,91.074-33.004,108.719-85.102&#10;&#9;c-21.969,5.21-54.33,4.466-86.015-27.221c-19.251-19.249-35.261-39.801-50.743-59.678c-20.383-26.163-38.622-49.578-59.232-63.171&#10;&#9;c2.562,4.89,5,10.655,6.808,17.197c6.504,17.634,8.988,36.863,0.126,50.716c-0.704,1.1-1.614,1.787-2.597,2.145&#10;&#9;c-0.901,2.298-3.158,3.803-5.649,3.611c-2.544-0.156-4.674-1.985-5.219-4.473c-0.165-0.755-17.064-75.55-69.444-70.615&#10;&#9;c-12.334,1.163-24.317,3.241-35.907,5.253c-37.758,6.547-73.634,12.771-100.02-19.605c-1.328,13.925-2.081,36.397,2.811,59.936&#10;&#9;c10.479,50.422,40.788,81.858,90.089,93.437c2.33,0.546,4.07,2.49,4.357,4.865c0.29,2.377-0.938,4.678-3.07,5.765&#10;&#9;c-1.106,0.566-35.549,7.84-76.075-3.835c1.629,2.606-0.911,25.6,45.94,52.009c42.951,24.21,122.805,20.392,168.047,14.448&#10;&#9;c0.249-0.033,0.499-0.049,0.746-0.049c2.439,0,4.647,1.568,5.418,3.941c0.849,2.615-0.287,5.462-2.702,6.774&#10;&#9;c-0.61,0.332-54.916,30.287-54.463,64.405c11.925-17.558,27.03-29.491,47.416-36.609&#10;&#9;C461.274,780.192,485.82,780.312,509.089,774.021z M759.356,225.786c-4.191-2.49-9.315,3.672-5.356,6.941&#10;&#9;c35.132,29,72.23,57.284,93.849,98.547c3.695,7.054,14.915,0.583,10.71-6.261C834.165,285.323,799.536,249.663,759.356,225.786z&#10;&#9; M875.376,364.847c3.928,0.063,7.827-1.528,8.929-4.855c0.781-1.971,0.558-4.522-1.35-7.653c-0.047-0.077-0.093-0.153-0.139-0.228&#10;&#9;c-3.361-6.433-11.515-6.444-14.88,0c-0.046,0.076-0.093,0.151-0.139,0.228c-1.908,3.131-2.131,5.682-1.35,7.653&#10;&#9;C867.549,363.319,871.448,364.911,875.376,364.847z M417.674,105.563c-10.111,5.057-18.623,18.442-24.631,27.752&#10;&#9;c-6.74,10.443-12.165,22.051-11.908,34.698c0.105,5.169,7.684,5.107,7.984,0c0.72-12.264,6.624-23.166,13.643-32.985&#10;&#9;c5.958-8.337,15.381-15.284,20.179-24.196C424.821,107.338,421.098,103.852,417.674,105.563z M446.716,86.444&#10;&#9;c-9.862,0-9.878,15.326,0,15.326C456.578,101.77,456.594,86.444,446.716,86.444z" style="fill: rgb(160, 11, 38);"/>
</svg>