<svg version="1.1" id="Layer_1" xmlns="http://www.w3.org/2000/svg" xmlns:xlink="http://www.w3.org/1999/xlink" x="0px" y="0px" viewBox="0 0 1200 1200" enable-background="new 0 0 1200 1200" xml:space="preserve">
<path fill="#353847" d="M1146.272,689.293c-5.045-7.679-15.631-15.528-25.283-12.858c-4.417,1.222-7.633,4.622-12.096,5.931&#10;&#9;c-5.994,1.757-12.616,1.11-18.78,1.345c-12.241,0.467-23.033,4.19-34.722,7.417c-10.685,2.95-22.156,3.235-32.549,7.175&#10;&#9;c-21.56,8.171-27.103,28.129-27.313,49.107c-0.187,18.678-8.728,34.682-22.788,46.65c-9.121,7.763-17.1,17.921-27.868,23.516&#10;&#9;c-12.687,6.592-25.607,1.668-39.037,1.201c-11.992-0.416-22.727,3.199-33.596,7.85c-4.031,1.725-8.649,4.782-13.023,5.42&#10;&#9;c-5.975,0.872-7.521-2.393-11.657-6.419c-7.409-7.214-14.708-10.829-24.412-13.803c-11.131-3.411-21.009-9.692-29.44-17.734&#10;&#9;c-6.399-6.103-9.776-8.816-11.292-17.325c-2.354-13.216-3.928-24.868-12.668-35.52c-6.245-7.611-13.62-14.094-20.37-21.226&#10;&#9;c-8.818-9.317-13.62-19.363-18.733-30.981c-4.732-10.753-10.199-20.668-8.608-32.74c1.932-14.658,4.132-28.877,5.139-43.693&#10;&#9;c1.515-22.28,3.435-48.419,14.365-68.349c2.803-5.112,10.413-18.67,1.718-22.664c-3.985-1.83-9.148,2.187-13.531,1.596&#10;&#9;c-4.982-0.672-9.978-3.883-14.798-5.296c-10.053-2.946-21.154-3.708-30.418-8.978c-10.674-6.073-15.08-17.286-18.871-28.349&#10;&#9;c-4.058-11.84-8.617-22.45-16.265-32.461c-7.474-9.782-14.645-18.802-20.291-29.816c-9.607-18.742-20.68-40.867-42.456-47.423&#10;&#9;c-19.906-5.994-43.545,2.012-54.7,19.683c-2.439,3.864-3.716,9.894-7.866,9.15c-3.431-0.615-7.581-5.47-10.33-7.603&#10;&#9;c-5.504-4.271-10.731-9.195-16.577-13.001c-4.149-2.702-10.25-3.94-13.718-7.344c-4.28-4.202-3.898-11.08-4.686-16.606&#10;&#9;c-0.98-6.876-2.719-12.779-7.172-18.308c-8.662-10.758-22.229-15.415-32.097-24.7c-8.245-7.759-12.012-19.788-21.802-26.001&#10;&#9;c-9.622-6.106-24.52-4.959-35.458-5.478c-6.964-0.33-16.073-1.546-22.776,1.08c-8.882,3.481-6.516,11.016-7.215,18.89&#10;&#9;c-8.747,0.603-18.086-2.908-26.814-3.616c-14.57-1.182-29.413-0.873-43.912-2.772c-25.842-3.384-51.395-20.759-74.437-32.076&#10;&#9;c-13.352-6.558-26.671-13.185-40.042-19.704c-5.967-2.909-12.174-5.084-18.265-7.711c-4.216-1.819-7.63-3.612-10.65-7.084&#10;&#9;c-3.384-3.891-4.417-7.866-9.802-9.932c-9.174-3.519-22.415-1.55-32.118-2.387c-12.145-1.048-24.281-2.501-36.432-3.413&#10;&#9;c-14.386-1.079-9.882,11.027-5.265,20.269c5.792,11.593,6.707,20.883,8.633,33.488c1.898,12.421,7.654,22.96,12.469,34.383&#10;&#9;c5.499,13.047,3.586,25.898,7.454,38.968c7.305,24.684,38.775,29.821,47.7,52.658c3.181,8.139,1.068,20.404-6.346,25.909&#10;&#9;c-6.276,4.66-24.487-1.528-27.256,7.024c-2.239,6.914,14.378,19.277,18,24.271c5.695,7.852,10.402,16.427,18.107,22.604&#10;&#9;c8.848,7.092,20.206,8.242,29.905,13.613c10.134,5.611,20.582,16.272,26.377,26.278c6.448,11.134,0.944,19.307-0.8,30.725&#10;&#9;c-1.521,9.96,1.61,19.143,8.121,26.807c7.731,9.1,18.478,15.675,27.349,23.588c8.163,7.281,20.159,15.247,26.242,24.397&#10;&#9;c4.68,7.039,4.344,16.137,9.127,23.165c5.699,8.376,15.241,8.12,23.249,2.867c7.815-5.126,14.67-14.902,14.512-24.524&#10;&#9;c-0.192-11.741-10.019-21.134-17.648-28.937c-3.479-3.558-6.987-7.624-11.48-9.953c-4.255-2.206-9.226,0.326-11.481-0.63&#10;&#9;c-9.266-3.93-7.326-27.345-10.262-35.011c-3.749-9.79-10.301-18.249-14.247-27.946c-5.343-13.129-5.361-27.718-11.248-40.722&#10;&#9;c-4.839-10.69-12.55-19.803-19.489-29.151c-8.811-11.869-9.694-22.064-13.961-35.68c-3.694-11.788-9.924-24.119-16.822-34.345&#10;&#9;c-8.088-11.991-19.438-21.286-27.975-32.911c-11.079-15.086-17.299-43.727-13.355-62.169c2.692-12.589,8.445-5.052,15.339-1.013&#10;&#9;c9.06,5.307,20.819,4.482,29.379,10.922c8.249,6.206,7.597,19.962,10.171,29.124c3.702,13.173,7.821,26.228,11.402,39.444&#10;&#9;c6.735,24.857,9.181,50.042,28.008,69.302c7.487,7.659,17.023,14.039,23.052,22.986c7.274,10.793,9.189,24.215,15.453,35.521&#10;&#9;c5.185,9.36,13.384,12.163,15.287,23.476c1.746,10.377-2.154,19.351,6.19,27.857c6.418,6.543,16.01,9.333,24.485,11.971&#10;&#9;c15.068,4.691,22.431,8.07,31.555,21.253c12.839,18.549,28.368,34.957,43.284,51.864c13.581,15.393,35.315,23.619,39.666,45.369&#10;&#9;c2.355,11.771,2.568,22.945,10.084,32.999c2.815,3.765,7.148,6.826,7.043,11.962c-0.103,5.015-5.473,9.239-6.961,13.924&#10;&#9;c-0.826,2.599-0.31,4.691-0.569,7.187c0.096,0.522,0.193,1.044,0.289,1.566c2.481,2.643,1.965,4.542-1.55,5.698&#10;&#9;c-2.791,4.668-6.147,6.732-7.318,12.435c-2.161,10.519,3.507,21.127,9.579,29.289c5.612,7.543,12.655,14.574,20.306,20.07&#10;&#9;c9.574,6.877,20.404,5.775,30.496,10.775c9.949,4.929,15.791,15.56,23.526,23.085c9.537,9.279,20.921,13.521,33.748,16.238&#10;&#9;c10.767,2.28,21.64,3.616,31.747,8.265c12.075,5.553,21.718,15.012,33.033,21.845c22.317,13.475,47.474,21.4,72.384,28.496&#10;&#9;c26.396,7.52,47.532,26.486,74.488,32.96c26.669,6.405,46.56-1.943,69.75-14.072c23.026-12.043,47.068-5.481,66.986,9.596&#10;&#9;c9.862,7.466,18.127,16.855,27.044,25.37c6.526,6.232,21.208,22.312,31.243,21.374c8.634-0.807,8.716-18.899,8.765-25.245&#10;&#9;c0.024-3.125-0.383-4.153-0.83-6.745c-0.798-4.628-2.407-0.883-1.386-6.047c0.929-4.698,6.175-13.957,8.888-17.971&#10;&#9;c11.879-17.585,46.072,5.708,54.744-13.737c1.795-4.026,1.514-10.8,0.502-14.991c-1.486-6.149-2.544-4.427-7.377-6.474&#10;&#9;c-2.165-0.917-1.399,0.091-3.283-1.364c-1.261-0.974-2.342-4.755-3.268-6.27c-2.867-4.694-6.411-9.163-9.763-13.515&#10;&#9;c9.478-0.891,6.673-17.01,4.286-22.49c18.733-4.209,41.051,5.743,59.071-2.254c3.9-1.731,5.707-4.597,8.997-7.008&#10;&#9;c3.116-2.283,6.902-3.149,10.296-4.896c8.017-4.125,11.541-10.903,16.077-18.247c14.163,9.34,23.437,8.544,26.727-8.465&#10;&#9;c1.858-9.605,2.732-18.11,6.249-27.209c1.123-2.906,2.717-6.204,2.262-9.407c-0.792-5.579-3.415-4.423-6.677-6.783&#10;&#9;c-6.652-4.811-6.655-9.669-4.032-17.254c2.484-7.185,8.35-13.905,13.002-19.868C1140.876,719.508,1157.438,706.306,1146.272,689.293&#10;&#9;z M1065.654,699.143c9.701-2.94,18.141-4.583,28.267-4.902c7.415-0.233,15.221-0.118,22.19-3.072&#10;&#9;c6.306-2.673,7.953-6.462,14.677-2.307c2.432,1.503,5.171,3.736,6.623,6.248c0.556,1.182,1.111,2.363,1.667,3.544&#10;&#9;c1.459,3.406,0.317,4.729-3.426,3.967c-6.692,2.678-15.488,2.684-22.559,4.446c-8.888,2.216-17.653,4.94-26.248,8.108&#10;&#9;c-3.711,1.368-7.393,2.817-11.037,4.354c-1.406,0.593-9.427,5.122-10.817,4.84c-1.699-0.345-5.181-6.982-6.557-8.744&#10;&#9;c-3.164-4.053-6.439-8.019-9.79-11.918C1054.399,702.525,1060.036,700.845,1065.654,699.143z M1083.687,787.895&#10;&#9;c-6.25-0.323-12.515-0.241-18.757,0.175c-5.821,0.388-15.492,3.221-20.498,1.171c-4.705-1.928-9.389-6.922-13.758-9.628&#10;&#9;c-5.272-3.266-10.739-6.223-16.364-8.834c6.323-5.985,13.12-11.459,20.218-16.496c5.763-4.09,17.981-15.047,25.129-15.416&#10;&#9;C1069.522,738.356,1081.527,778.684,1083.687,787.895z M1005.803,759.01c2.408-14.279-2.391-29.131,7.711-41.467&#10;&#9;c4.042-4.936,14.496-12.874,21.531-11.548c6.635,1.251,15.939,17.136,20.341,23.189c-10.8,5.683-21.206,12.14-30.997,19.429&#10;&#9;c-2.623,1.952-18.955,18.256-20.938,17.638C1004.592,763.953,1005.377,761.546,1005.803,759.01z M971.051,809.984&#10;&#9;c11.523-10.941,22.71-18.615,28.48-33.971c11.272,5.567,22.312,10.017,32.693,17.356c-16.107,4.155-31.679,10.435-46.121,18.692&#10;&#9;c-6.908,3.949-13.561,8.346-19.855,13.218c-2.463,1.907-5.503,5.748-8.398,6.968c-1.835,3.306-3.52,3.255-5.056-0.153&#10;&#9;c-1.389-1.51-2.801-2.998-4.237-4.464C957.115,823.282,964.158,816.533,971.051,809.984z M912.734,870.424&#10;&#9;c1.346,12.74,2.693,25.479,4.039,38.219c-7.024-4.554-14.584-8.266-22.57-10.796C899.376,888.079,905.863,879.058,912.734,870.424z&#10;&#9; M928.369,917.48c-1.261-11.935-2.523-23.87-3.784-35.806c-0.647-6.121-2.293-13.015-2.027-19.177&#10;&#9;c0.364-8.426,8.977-14.607,14.334-21.223c1.146,17.147,2.76,34.221,4.998,51.259c0.903,6.878,1.831,13.752,2.658,20.64&#10;&#9;c0.497,4.135,0.966,8.273,1.409,12.414c0.335,3.122,2.897,12.678,1.483,15.438C942.409,932.208,935.954,924.228,928.369,917.48z&#10;&#9; M899.054,829.493c10.645-1.126,21.24,2.356,31.889,2.308c-8.359,10.539-17.345,20.56-25.742,31.067&#10;&#9;c-4.054,5.073-7.996,10.242-11.649,15.614c-1.996,2.935-6.922,15.174-9.917,16.675c-3.407,1.708-15.834-2.105-20.066-2.264&#10;&#9;c-6.019-0.226-12.05-0.064-18.056,0.358c-12.734,0.897-25.374,3.033-37.779,6.021c0.474-10.994,2.19-21.935,5.371-32.477&#10;&#9;c17.325,7.219,37.714,4.589,52.867-6.398c6.792-4.924,13.208-11.825,16.601-19.596c2.057-4.711,0.368-6.077,3.982-8.517&#10;&#9;C889.563,830.253,895.552,829.864,899.054,829.493z M789.031,904.496c-3.792-19.791-14.53-37.839-30.054-50.677&#10;&#9;c10.278-8.401,21.719-15.359,33.902-20.626c5.805-2.509,11.762-4.627,17.85-6.341c1.245-0.35,11.254-4.356,12.341-4.062&#10;&#9;c-9.112,13.123-16.379,27.563-20.735,42.965c-1.976,6.985-3.386,14.123-4.253,21.33c-0.407,3.388,0.125,7.927-0.919,11.182&#10;&#9;c1.1,3.197,0.086,4.751-3.04,4.661C792.421,903.432,790.723,903.955,789.031,904.496z M778.836,907.558&#10;&#9;c-37.522,1.265-71.502-26.189-78.086-63.161C738.394,843.134,772.264,870.469,778.836,907.558z M842.148,835.277&#10;&#9;c9.441,9.896,17.734,8.321,29.674,3.11c-10.8,18.833-35.264,27.062-55.222,18.384c2.209-5.553,4.827-10.936,7.763-16.139&#10;&#9;c2.453-4.348,6.901-8.989,8.415-13.695C836.278,829.272,839.257,832.246,842.148,835.277z M807.118,816.855&#10;&#9;c-4.669,1.336-11.131,4.921-14.763,3.31c-3.221-1.429-6.854-8.641-9.662-11.377c-7.135-6.953-15.593-12.625-24.772-16.509&#10;&#9;c-1.664-0.704-10.096-2.461-10.795-3.738c-0.503-0.918,0.604-3.402,0.578-4.437c-0.148-5.897,1.613-12.384,2.378-18.25&#10;&#9;c0.967-7.423,1.485-6.406,9.593-6.51c7.309-0.094,8.498-0.929,9.945,6.147c1.033,5.054,2.031,10.214,2.869,15.299&#10;&#9;c0.542,3.292,0.216,8.303,2.192,11.024c1.784,2.458,5.833,4.308,8.234,6.408C790.747,805.068,797.856,811.814,807.118,816.855z&#10;&#9; M309.758,485.402c-11.807-28.115-8.08-60.582,8.612-85.964c2.223,22.552,4.445,45.103,6.668,67.655&#10;&#9;c1.112,11.282,3.813,23.548,3.439,34.889c-0.139,4.203,1.646,6.044-5.14,6.015c-3.739-0.016-1.966,0.949-4.454-2.71&#10;&#9;c-1.392-2.046-2.208-4.711-3.257-6.973C313.64,494.028,311.588,489.757,309.758,485.402z M356.427,365.926&#10;&#9;c1.253,3.749,7.35,15.021,6.177,18.488c-0.691,2.043-12.316,6.61-14.834,8.452c-5.601,4.097-3.098,2.813-8.21-0.036&#10;&#9;c-3.247-1.809-6.218-5.733-9.211-8.058C338.027,377.038,346.907,371.114,356.427,365.926z M533.852,445.57&#10;&#9;c-31.491,16.933-62.982,33.865-94.474,50.798c2.632-3.619,4.708-7.752,6.659-11.77c1.636-3.37,2.861-9.763,5.178-12.425&#10;&#9;c1.315-1.51,4.543-2.517,6.286-3.482c10.387-5.755,20.774-11.509,31.161-17.264c5.983-3.315,15.23-11.214,22.069-12.226&#10;&#9;C517.064,438.263,527.543,443.759,533.852,445.57z M608.341,450.515c7.884,20.608,12.156,40.23,8.346,62.313&#10;&#9;c-14.306-21.335-33.94-39.009-56.622-51.053c-4.215-2.238-9.782-2.863-9.701-7.224c0.135-7.233,9.428-2.43,14.129-1.99&#10;&#9;c14.328,1.341,28.972-0.702,42.269-6.257C607.286,447.709,607.812,449.112,608.341,450.515z M686.574,526.938&#10;&#9;c4.789,4.478,14.835,11.59,13.467,17.464c-1.21,5.196-8.039,12.008-10.983,16.405c-1.528,2.283-5.786,11.724-8.483,12.67&#10;&#9;c-1.469,0.515-10.142-4.625-12.091-5.359c-5.864-2.21-12.004-3.636-18.225-4.379C663.866,553.082,676.094,540.683,686.574,526.938z&#10;&#9; M721.844,571.135c-2.833,13.737-4.408,27.73-5.291,41.719c-4.897-9.667-11.473-18.573-19.28-26.091&#10;&#9;c-5.589-5.382-9.446-5.065-5.133-11.507c5.412-8.083,10.823-16.166,16.235-24.25C713.277,557.426,717.784,564.154,721.844,571.135z&#10;&#9; M689.973,754.34c-2.549-9.089-5.097-18.178-7.646-27.267c-0.795-2.836-2.963-7.453-1.703-9.542&#10;&#9;c1.78-2.952,14.006-8.553,15.769-7.853c2.439,0.968,5.303,5.843,7.05,7.768c4.162,4.587,8.325,9.173,12.487,13.76&#10;&#9;c5.696,6.276,11.392,12.553,17.088,18.829C718.638,751.133,704.299,752.703,689.973,754.34z M648.705,758.826&#10;&#9;c-1.016-10.885-2.032-21.769-3.049-32.654c8.204-0.312,16.394-1.764,24.198-4.314c3.15,11.233,6.3,22.467,9.45,33.7&#10;&#9;C669.113,756.725,658.918,757.86,648.705,758.826z M551.777,626.109c-8.254,3.53-16.137,9.455-24.028,13.813&#10;&#9;c-6.65,3.673-5.77,2.602-10.205-2.779c-2.362-2.865-7.969-7.324-8.874-10.767c-0.136-0.517-1.319-1.12-1.385-1.68&#10;&#9;c-0.04-0.338,6.18-11.67,6.424-11.774c3.419-1.46,15.671,4.498,19.406,5.57c7.174,2.059,14.348,4.118,21.523,6.177&#10;&#9;C553.771,625.351,552.818,625.831,551.777,626.109z M570.988,553.193c11.723,21.163,36.495,32.282,60.085,26.826&#10;&#9;c1.087,9.877,0.79,19.856-0.158,29.731c-20.419-5.307-42.46-2.988-61.289,6.541c-8.333-19.622-20.026-37.885-30.175-56.599&#10;&#9;c-3.912-7.214-11.227-13.296-14.731-20.322c-3.268-1.577-3.458-3.52-0.57-5.832c1.302-2.202,2.523-4.448,3.663-6.738&#10;&#9;c2.284-4.591,4.218-9.344,5.822-14.214c4.936-14.982,8.793-30.38,13.144-45.539c12.011,5.404,23.27,12.494,33.38,20.933&#10;&#9;C563.011,505.055,559.273,532.047,570.988,553.193z M673.953,653.397c-35.102,17.019-77.667,4.809-98.395-28.241&#10;&#9;C610.663,608.135,653.228,620.345,673.953,653.397z M514.019,529.8c-7.803-6.115-16.374-11.259-25.388-15.379&#10;&#9;c13.285-7.36,26.571-14.72,39.856-22.08C524.754,505.349,521.225,518.154,514.019,529.8z M515.848,545.559&#10;&#9;c8.082,7.971,13.04,17.134,18.37,26.997c-6.208,2.074-12.417,4.149-18.625,6.223c-1.877-6.726-7.064-11.943-9.141-18.162&#10;&#9;c-1.514-4.533-1.578-3.01,2.684-7.408C511.497,550.772,513.738,548.215,515.848,545.559z M517.417,589.344&#10;&#9;c5.464-1.826,13.662-6.55,19.295-6.447c4.912,0.09,4.317,1.838,7.444,7.305c4.535,7.929,9.046,15.883,12.956,24.144&#10;&#9;c-8.133-2.334-16.265-4.668-24.398-7.002c-3.708-1.064-10.287-1.616-13.439-3.857c-0.555-0.395-2.155-0.206-2.576-0.739&#10;&#9;C515.808,601.619,517.551,591.267,517.417,589.344z M532.622,477.936c-12.01,6.654-24.021,13.307-36.031,19.961&#10;&#9;c-5.631,3.12-12.451,8.691-18.691,10.355c-8.608,2.295-21.794-3.783-31.559-3.589c30.986-16.661,61.971-33.322,92.957-49.982&#10;&#9;C537.072,462.432,534.847,470.184,532.622,477.936z M411.101,525.237c30.407-16.585,64.06-9.866,91.598,9.421&#10;&#9;c-23.526,2.976-47.052,5.952-70.579,8.928c-7.014,0.887-14.028,1.775-21.042,2.662c-4,0.506-9.861,2.404-13.843,1.751&#10;&#9;c-0.602-0.099-2.377,0.706-2.899,0.367c-0.254-0.166-3.544-10.998-3.427-11.289C392.153,533.972,408.337,527.148,411.101,525.237z&#10;&#9; M394.99,558.969c35.645-4.509,71.289-9.018,106.934-13.527c-16.25,16.933-38.657,27.562-62.083,29.249&#10;&#9;c-11.302,0.814-22.436-0.629-33.341-3.577c-2.34-0.633-4.667-1.329-6.994-2.006C392.604,567.099,394.869,566.044,394.99,558.969z&#10;&#9; M454.508,583.313c8.743-1.817,17.228-4.779,25.239-8.717c4.119-2.025,8.896-6.498,13.176-7.724c4.639-1.33,3.877-2.086,7.352,3.378&#10;&#9;c8.588,13.505,8.769,31.168,0.585,44.918c-3.663,6.154-8.887,11.338-15.068,14.958c-1.203,0.704-7.994,4.671-9.467,4.099&#10;&#9;c-1.633-0.634-5.342-12.128-6.431-14.125c-7.885-14.459-19.714-25.906-33.612-34.647&#10;&#9;C442.397,585.266,448.518,584.57,454.508,583.313z M479.557,644.317c7.606-2.29,14.709-6.268,20.579-11.628&#10;&#9;c4.181,5.073,8.363,10.146,12.544,15.219c-9.684,4.853-19.646,9.234-29.991,12.485C482.023,654.969,480.983,649.592,479.557,644.317&#10;&#9;z M566.339,630.317c11.22,18.133,29.052,31.671,49.496,37.7c-11.119,20.99-27.906,39.204-47.599,52.434&#10;&#9;c3.051-15.408,3.728-31.293,2.087-46.911c-0.862-8.208-2.396-16.359-4.556-24.323c-0.903-3.33-1.93-6.624-3.053-9.886&#10;&#9;C560.535,633.005,560.519,633.49,566.339,630.317z M537.121,769.434c-37.614-22.677-20.365-82.617,23.472-81.912&#10;&#9;C561.094,716.402,552.858,745.209,537.121,769.434z M564.536,735.21c10.525-6.021,20.359-13.268,29.213-21.552&#10;&#9;c3.072,8.108,4.901,16.572,5.812,25.18c0.557,5.258,3.758,19.512,1.176,23.59c-2.328,3.678-17.813,5.02-23.103,5.851&#10;&#9;c-9.192,1.444-18.451,1.954-27.687,0.496C556.101,758.213,561.002,746.91,564.536,735.21z M611.305,760.992&#10;&#9;c-0.372-14.281-0.847-28.611-4.772-42.445c5.091,2.349,10.404,4.178,15.865,5.446c1.837,0.427,11.809,1.008,12.608,2.128&#10;&#9;c1.228,1.72,0.675,7.228,0.863,9.24c0.759,8.129,1.518,16.257,2.277,24.386C635.881,759.929,611.321,761.565,611.305,760.992z&#10;&#9; M676.748,707.647c-23.083,11.527-52.042,10.719-73.927-3.196c6.846-7.503,13.035-15.611,18.297-24.303&#10;&#9;c1.278-2.11,2.501-4.252,3.669-6.425c0.466-3.41,2.206-4.332,5.221-2.764c4.342-0.732,10.028,0.804,14.557,0.603&#10;&#9;c9.437-0.419,44.537-4.597,41.384-18.624c-2.797-12.441-20.065-26.058-30.227-32.474c-3.371-2.128-8.591-3.567-11.508-6.118&#10;&#9;c-3.358-0.281-4.227-2.05-2.606-5.309c0.23-2.583,0.409-5.17,0.538-7.76c0.44-9.184,0.188-18.406-1.221-27.503&#10;&#9;c32.96,0.105,61.575,25.233,71.138,56.043c2.769,8.922,1.099,15.021-0.357,24.099c-1.303,8.127-0.072,14.852-3.744,22.546&#10;&#9;C701.46,690.087,690.201,700.931,676.748,707.647z M629.381,569.551c-42.53,10.528-72.86-43.921-41.323-74.506&#10;&#9;C608.838,515.116,623.376,541.286,629.381,569.551z M454.871,458.032c1.924-10.113,2.365-20.5,1.301-30.74&#10;&#9;c14.056-0.1,27.127,3.77,40.469,7.599C482.717,442.605,468.794,450.319,454.871,458.032z M370.37,461.409&#10;&#9;c-0.637-9.672-2.518-19.265-5.667-28.434c-1.543-4.492-3.385-8.881-5.519-13.124c-1.895-3.768-6.108-8.261-7.219-12.2&#10;&#9;c-2.997-2.169-2.739-3.942,0.773-5.319c1.888-1.5,3.884-2.839,5.987-4.017c3.026-1.679,6.262-3.009,9.616-3.865&#10;&#9;c6.748-1.723,13.815-1.521,20.501,0.383c7.223,2.057,13.861,6.043,19.067,11.453c2.355,2.448,4.457,5.237,6.158,8.178&#10;&#9;c1.156,2.001,2.143,4.082,2.962,6.244c2.191,2.891,1.469,4.448-2.165,4.671c-3.03,2.729-8.968,4.279-12.571,6.437&#10;&#9;c-4.034,2.416-7.909,5.098-11.587,8.029C382.95,446.026,376.102,453.317,370.37,461.409z M428.184,420.645&#10;&#9;c-2.275-7.647-6.258-14.79-11.639-20.687c5.032-4.148,10.064-8.296,15.097-12.443c5.358,9.502,9.799,19.268,12.202,29.971&#10;&#9;C438.552,418.132,433.313,419.194,428.184,420.645z M408.552,392.808c-4.355-3.162-10.64-4.006-11.165-8.536&#10;&#9;c-0.43-3.717,3.026-10.544,4.038-14.069c2.348-8.181,4.696-16.361,7.043-24.542c4.94,8.923,13.996,19.813,16.4,29.623&#10;&#9;c1.097,4.475,1.275,3.024-3.349,6.836C417.198,385.682,412.875,389.245,408.552,392.808z M386.586,383.473&#10;&#9;c-3.679-0.652-11.552,0.462-13.625-1.506c-1.424-1.353-2.087-6.246-2.701-8.084c-1.194-3.574-5.058-10.831-3.466-13.704&#10;&#9;c2.041-3.683,13.595-7.537,17.212-9.542c4.758-2.638,9.516-5.276,14.274-7.913C394.382,356.307,390.484,369.89,386.586,383.473z&#10;&#9; M299.337,413.376c-8.079-14.581-16.157-29.163-24.236-43.744c13.822,3.902,27.231,9.377,39.422,17.021&#10;&#9;C308.197,394.762,303.067,403.792,299.337,413.376z M261.046,366.136c7.056,12.736,14.113,25.473,21.169,38.209&#10;&#9;c3.566,6.437,8.981,13.419,11.306,20.407c2.849,8.56-1.599,20.14-1.372,29.633c-17.495-30.738-34.99-61.476-52.485-92.214&#10;&#9;C246.819,363.333,253.962,364.599,261.046,366.136z M339.436,505.105c-3.543-35.953-7.087-71.906-10.63-107.86&#10;&#9;c18.315,16.257,29.139,39.205,30.935,63.557c0.9,12.201-1.332,21.477-4.807,32.926c-0.83,2.736-1.15,6.486-2.564,8.938&#10;&#9;c-0.179,0.31-0.477,2.895-0.941,3.28C350.323,506.867,340.994,505.049,339.436,505.105z M365.251,496.22&#10;&#9;c9.659-33.677,37.855-59.769,72.123-66.931c-14.069,16.917-28.139,33.834-42.208,50.752c-7.622,9.165-15.244,18.329-22.866,27.494&#10;&#9;c-0.652,0.784-2.809,4.43-3.876,4.661c-0.485,0.105-6.49-3.168-6.672-3.778c-0.221-0.737,0.822-2.071,0.815-2.841&#10;&#9;C362.542,502.721,364.453,499.003,365.251,496.22z M446.099,435.381c1.085,35.76-18.304,68.455-49.046,86.161&#10;&#9;c-2.507,1.444-7.319,5.362-10.031,5.57c-2.957,0.227-2.976-1.489-5.432-4.233c-0.7-0.782-4.497-4.116-4.491-4.531&#10;&#9;c0.028-2.264,6.658-8.006,7.983-9.599C405.421,484.293,425.76,459.837,446.099,435.381z M391.235,577.765&#10;&#9;c39.858,11.016,72.339,35.395,80.035,77.968c-14.464-12.331-28.929-24.662-43.393-36.993c-9.406-8.019-18.813-16.038-28.219-24.057&#10;&#9;c-2.834-2.416-6.756-4.824-9.08-7.741C387.129,582.612,388.335,585.007,391.235,577.765z M481.361,698.848&#10;&#9;c0.867-4.588,1.469-9.212,1.83-13.866c0.253-3.258-0.841-8.85,0.365-11.749c1.877-4.515,16.908-7.92,22.58-10.456&#10;&#9;c15.575-6.963,30.364-15.534,45.148-24.009c4.628,12.244,7.543,25.14,8.718,38.174c-53.506-0.12-74.618,72.49-29.213,101.009&#10;&#9;c-6.118,7.234-13.371,13.393-20.756,19.284c-4.598-9.084-10.505-17.524-17.461-24.958c-3.498-3.738-7.271-7.217-11.263-10.42&#10;&#9;c-2.276-1.827-11.918-6.544-12.746-8.822c-1.058-2.913,2.968-12.075,3.734-15.224c1.312-5.396,2.615-10.795,3.899-16.198&#10;&#9;C477.99,714.053,479.92,706.486,481.361,698.848z M561.666,780.297c13.96,0,27.533-3.483,41.112-6.29&#10;&#9;c0.431,6.092,3.52,15.932-0.972,18.837c-3.776,2.442-12.576,2.299-16.992,3.106c-4.43,0.81-12.559,4.026-16.992,3.106&#10;&#9;c-4.316-0.895,0.626,3.478-3.496-3.042c-3.226-5.103-4.978-10.949-8.647-15.945C557.672,780.213,559.667,780.289,561.666,780.297z&#10;&#9; M568.002,809.801c12.292-2.247,24.584-4.494,36.876-6.741c0.88,11.663,1.842,23.32,2.954,34.963&#10;&#9;c-6.387-3.946-18.661-3.51-25.858-4.708c-2.604-0.433-10.321-0.302-12.338-2.054C567.214,829.157,568.745,814.301,568.002,809.801z&#10;&#9; M617.245,824.511c6.804,4.157,13.608,8.313,20.412,12.47c3,1.833,8.876,3.985,11.057,6.755c3.233,4.106-0.397,10.974-0.85,16.884&#10;&#9;c-6.939-1.617-13.878-3.233-20.817-4.85c-1.48-0.345-5.721-0.48-6.897-1.607c-1.614-1.546-1.067-9.999-1.335-12.699&#10;&#9;C618.253,835.817,617.734,830.165,617.245,824.511z M654.405,834.787c-8.496-5.19-16.993-10.381-25.489-15.571&#10;&#9;c-3.124-1.909-9.467-4.252-11.75-7.178c-4.452-5.706-2.729-23.501-3.266-31.079c9.536,7.713,19.073,15.426,28.609,23.139&#10;&#9;c5.264,4.258,12.248,8.375,16.689,13.498c0.654,0.754,2.999,1.676,3.263,2.639C662.969,822.085,655.352,832.656,654.405,834.787z&#10;&#9; M669.427,812.065c-0.632,0.685-45.485-36.616-50.352-40.553c6.354-0.236,12.701-0.634,19.04-1.126&#10;&#9;c3.782-0.293,12.502-2.678,15.812-1.352c2.62,1.049,5.843,6.675,7.66,8.751c6.785,7.75,13.569,15.501,20.354,23.252&#10;&#9;C677.424,804.283,673.212,807.988,669.427,812.065z M691.068,795.369c-8.092-9.245-16.185-18.489-24.277-27.734&#10;&#9;c8.468-0.927,16.928-1.919,25.393-2.878c2.055-0.233,9.458-1.935,10.73-0.818c0.43,0.378,0.334,1.895,0.68,2.337&#10;&#9;c3.86,4.938,4.856,15.77,6.736,21.876C703.636,789.698,697.13,792.135,691.068,795.369z M720.904,786.472&#10;&#9;c-2.467-8.01-4.933-16.021-7.4-24.031c8.864-0.904,17.739-1.715,26.63-2.292c-0.755,5.798-1.511,11.595-2.266,17.393&#10;&#9;c-0.212,1.631,0.006,7.027-1.086,8.336C735.455,787.468,723.717,786.224,720.904,786.472z M748.474,734.126&#10;&#9;c4.744,4.663,9.45,9.38,13.642,14.556c-4.015,0.029-11.167,1.757-14.891,0.465c-3.396-1.178-0.8-0.381-3.781-3.4&#10;&#9;c-1.284-1.3-2.466-2.717-3.694-4.07c-5.822-6.415-11.644-12.83-17.466-19.246c-4.939-5.443-11.977-11.141-15.81-17.421&#10;&#9;c-0.502-0.823-2.557-2.001-2.706-2.982c-0.457-3.008,10.644-14.892,12.646-18.748C724.879,702.944,733.092,719.009,748.474,734.126z&#10;&#9; M703.02,525.915c10.11,2.258,21.951,9.538,32.418,7.764c-3.588,7.842-7.834,14.435-10.131,22.944&#10;&#9;c-7.383-11.273-15.843-21.777-25.293-31.384C701.016,525.464,702.018,525.69,703.02,525.915z M666.947,507.545&#10;&#9;c3.452,4.457,7.855,8.144,12.804,10.835c-11.732,15.832-25.867,29.846-41.825,41.407c-2.419-9.127-5.669-18.033-9.701-26.571&#10;&#9;c-3.005-6.364-3.304-7.704-1.871-14.549c0.821-3.923,1.424-7.87,1.822-11.857c0.558-5.584-1.168-17.03,1.937-20.302&#10;&#9;c1.537-1.62,8.822-2.286,11.061-2.965c4.314-1.309,8.598-2.743,12.798-4.385C657.338,489.033,660.467,499.179,666.947,507.545z&#10;&#9; M648.425,465.699c0.583,1.19,1.166,2.38,1.75,3.57c-7.311,2.865-14.964,5.275-22.634,6.97c-1.535-8.261-4.311-16.218-7.237-24.07&#10;&#9;c-0.833-2.237-3.884-6.95-3.515-9.308c0.474-3.027,6.301-5.559,9.301-7.931C632.906,445.624,642.375,454.5,648.425,465.699z&#10;&#9; M620.875,425.514c-18.314,15.235-43.233,19.912-66.241,14.807c5.782-15.892,16.751-29.591,30.97-38.733&#10;&#9;c3.224-2.073,6.578-3.914,10.072-5.494c6.246-2.825,6.607-2.363,10.539,3.22C611.977,407.496,616.338,416.625,620.875,425.514z&#10;&#9; M446.575,330.3c8.144,5.29,17.559,10.909,20.62,20.661c2.601,8.287,1.072,17.066,5.94,24.751c4.71,7.434,13.92,9.051,20.725,14.061&#10;&#9;c7.825,5.761,14.846,12.652,23.065,17.895c16.242,10.359,17.745-4.865,27.014-15.634c11.72-13.617,34.475-16.56,49.221-6.399&#10;&#9;c-12.7,5.402-24.109,13.789-33.012,24.338c-4.095,4.852-7.672,10.166-10.628,15.785c-2.034,3.866-3.057,10.753-6.653,11.368&#10;&#9;c-5.882,1.006-17.955-5.152-23.644-6.785c-3.98-1.142-7.96-2.284-11.94-3.426c-6.946-1.993-13.872-4.082-20.845-5.982&#10;&#9;c-6.592-1.796-13.235-3.199-20.049-3.824c-2.232-0.205-10.302,0.819-11.852-0.411c-1.799-1.428-2.866-10.857-3.74-13.345&#10;&#9;c-4.884-13.907-13.104-26.786-20.239-39.673c-4.631-8.363-9.261-16.727-13.892-25.09c-0.421-0.76-2.792-3.812-2.61-4.713&#10;&#9;c0.214-1.059,7.589-5.478,8.883-6.758c2.781-2.749,5.101-6.015,7.404-9.155C435.094,322.868,440.878,326.6,446.575,330.3z&#10;&#9; M405.255,292.96c6.681,0.406,15.992,8.478,17.376,15.097c1.068,5.107-8.52,13.361-13.549,16.454&#10;&#9;c-4.63-9.924-7.151-20.866-7.301-31.818C402.939,292.782,404.097,292.871,405.255,292.96z M362.705,295.949&#10;&#9;c-0.369-5.315,1.169-4.606,5.991-4.915c5.694-0.365,12.813-0.735,18.372,0.529c6.875,1.563,2.695-1.859,4.207,4.534&#10;&#9;c0.855,3.613,0.678,7.851,1.365,11.546c0.634,3.416,8.101,20.25,7.198,22.098c-1.146,2.345-9.18,5.089-11.413,6.327&#10;&#9;c-7.243,4.016-14.486,8.031-21.729,12.047c-10.752,5.961-22.077,11.447-31.953,18.778c-2.825,2.097-5.558,4.346-8.159,6.715&#10;&#9;c-0.854,0.805-1.708,1.61-2.562,2.415c-1.649,3.287-3.67,3.376-6.064,0.267c-7.19-1.899-14.801-7.986-21.917-10.823&#10;&#9;c-14.503-5.782-29.763-9.375-45.098-12.127c5.406-12.001,12.476-23.266,20.896-33.381c14.805,14.752,37.286,19.134,56.865,12.314&#10;&#9;C342.688,327.402,363.79,311.928,362.705,295.949z M328.866,307.903c4.852,0.396,9.683,1.802,14.499,2.553&#10;&#9;c-16.736,18.101-47.012,19.366-64.438,1.582c1.763-1.827,4.5-5.755,6.957-6.771c3.388-1.401,11.57,0.705,15.35,0.914&#10;&#9;C310.449,306.691,319.666,307.161,328.866,307.903z M236.426,288.358c11.707,5.752,23.317,12.015,36.116,15.004&#10;&#9;c-7.27,7.36-13.785,15.459-19.45,24.113c-2.993,4.572-5.761,9.294-8.257,14.156c-1.032,2.011-1.815,4.773-3.181,6.553&#10;&#9;c-3.196,4.166-2.207,3.2-7.849,2.324c5.353-22.307,1.581-47.151-8.491-67.603C229.019,284.721,232.72,286.544,236.426,288.358z&#10;&#9; M97.68,226.116c5.825,0.505,6.617-0.284,9.072,3.575c1.9,2.986,2.623,8.037,4.046,11.406c2.141,5.068,4.584,10.036,7.268,14.837&#10;&#9;c1.567,2.804,6.437,8.63,6.202,11.15c-0.247,2.645-4.191,7.373-4.898,10.509c-1.21,5.367,0.099,7.972-4.085,11.107&#10;&#9;c-7.374,5.523-19.107,9.41-27.611,12.975c-1.781-4.774-6.135-10.555-6.775-15.522c-0.619-4.808,4.063-14.323,5.384-19.144&#10;&#9;C90.021,253.361,93.798,239.723,97.68,226.116z M92.031,325.098c-0.086-2.706-2.352-11.148-1.342-13.229&#10;&#9;c0.508-1.046,5.913-2.575,6.822-2.992c7.146-3.279,14.137-6.887,21.293-10.146c0.411,4.378,4.546,17.126,2.543,20.283&#10;&#9;c-1.22,1.923-7.383,4.091-9.242,5.121c-6.395,3.544-12.791,7.087-19.186,10.631C92.225,331.611,92.132,328.311,92.031,325.098z&#10;&#9; M65.354,230.016c-1.325-2.337-2.521-4.737-3.587-7.203c8.376,0.899,16.767,1.64,25.16,2.363&#10;&#9;c-4.197,14.745-8.274,29.524-12.314,44.313C71.42,255.537,72.386,242.996,65.354,230.016z M247.34,584.143&#10;&#9;c2.358,2.558,4.724,7.095,8.52,7.759c2.445,0.428,3.378-1.112,5.403-1.348c4.176-0.486,0.535-1.637,4.698,0.322&#10;&#9;c6.006,2.827,14.015,13.521,17.455,19.102c4.518,7.329,3.674,13.894-2.079,20.307c-3.617,4.031-8.897,8.138-13.192,3.664&#10;&#9;c-4.764-4.962-4.404-15.937-8.271-22.016c-4.943-7.771-12.907-12.751-19.571-18.892c-7.289-6.717-14.524-13.351-22.285-19.535&#10;&#9;c-7.194-5.733-16.046-11.785-18.493-21.259c5.682-1.844,11.433-3.48,17.175-5.125c3.509-1.005,7.023-1.995,10.539-2.975&#10;&#9;c6.211-1.731,5.472-2.503,8.797,2.338C243.712,557.663,237.136,573.06,247.34,584.143z M228.846,532.7&#10;&#9;c-9.703,2.677-19.408,5.371-29.024,8.347c2.012-7.884,5.196-15.308,3.568-23.622c-1.856-9.483-8.59-17.836-15.071-24.654&#10;&#9;c3.068-0.572,7.154-4.267,9.83-5.679c4.432-2.339,9.029-4.408,13.635-6.379C219.091,497.976,219.478,515.93,228.846,532.7z&#10;&#9; M206.757,471.366c-5.888,2.546-23.327,7.83-24.612,15.297c-5.967-5.626-12.064-10.481-19.736-13.578&#10;&#9;c7.762-6.672,16.47-12.257,25.762-16.546c5.27-2.433,5.773-2.881,9.395,1.932C200.741,462.69,203.925,466.905,206.757,471.366z&#10;&#9; M187.145,444.21c0.632,0.947-15.325,8.991-17.838,10.596c-4.198,2.681-8.234,5.619-12.072,8.795&#10;&#9;c-4.797,3.97-5.37,6.264-11.32,3.366c-14.094-6.866-20.111-23.489-30.744-34.287c22.742,4.343,48.065-4.678,59.837-25.371&#10;&#9;C180.119,419.366,179.715,433.072,187.145,444.21z M163.64,384.675c2.546,4.281,5.381,7.653,4.512,12.292&#10;&#9;c-0.787,4.199-4.561,8.836-7.358,11.85c-6.83,7.361-16.355,12.046-26.219,13.648c6.735-8.071,9.951-20.025,7.487-30.264&#10;&#9;c-1.433-5.956-6.898-10.294-8.387-15.577c-1.452-5.152,4.246-14.245,6.961-19.313C148.444,366.211,157.543,374.426,163.64,384.675z&#10;&#9; M131.719,351.491c-2.807,5.161-5.311,10.494-7.516,15.939c-8.936-7.452-19.617-13.694-26.698-23.115&#10;&#9;c9.124-4.735,18.024-9.961,27.018-14.943c0.9,3.396,1.863,6.571,3.373,9.768c0.926,1.961,2.526,3.861,3.284,5.854&#10;&#9;C133.026,349.842,134.4,346.55,131.719,351.491z M158.72,273.85c-5.936-1.332-8.612-3.341-13.323-6.908&#10;&#9;c-5.035-3.812-9.894-3.325-13.5-8.595c-6.285-9.186-12.282-20.518-14.98-31.403c9.77,0.198,8.831,3.199,14.504,9.413&#10;&#9;c5.031,5.51,12.778,7.982,19.509,10.624c2.518,0.988,11.211,3.284,12.977,5.756c1.973,2.762-1.59,17.496-1.461,22.036&#10;&#9;C161.204,274.465,159.962,274.157,158.72,273.85z M172.736,278.28c2.105-5.681,0.451-14.266,1.608-20.407&#10;&#9;c13.284,6.538,30.967,11.49,38.636,24.383c10.959,18.422,15.369,41.95,11.174,63.024c-7.414-3.171-14.028-8.003-20.123-13.222&#10;&#9;c-5.872-5.029-8.105-9.193-10.094-16.81C189.745,299.191,189.955,285.637,172.736,278.28z M202.504,344.511&#10;&#9;c3.976,3.063,8.174,5.886,12.632,8.204c5.957,3.097,7.472,1.731,4.828,8.441c-2.763,7.013-5.386,14.078-7.999,21.147&#10;&#9;C208.943,369.644,205.967,357.061,202.504,344.511z M240.052,429.609c-7.548-6.843-21.245-17.773-22.553-28.823&#10;&#9;c-1.128-9.527,8.469-25.935,12.028-34.995c16.832,29.572,33.663,59.144,50.495,88.716c-6.605-4.824-14.429-10.454-22.396-12.891&#10;&#9;c-2.95-0.902-5.092-0.946-7.404-2.408C246.593,436.914,243.264,432.523,240.052,429.609z M293.701,533.169&#10;&#9;c-7.268-5.041-4.771-10.939-5.054-18.414c-0.203-5.363-1.488-11.5-3.644-16.454c-3.093-7.111-10.066-10.023-13.773-16.625&#10;&#9;c-4.764-8.486-6.955-18.354-11.005-27.192c14.777,7.73,31.947,19.803,39.65,34.908c3.223,6.319,5.911,12.964,8.933,19.387&#10;&#9;c3.226,6.859-0.268,6.309-5.314,11.23C299.571,523.834,296.242,528.314,293.701,533.169z M350.725,569.2&#10;&#9;c-5.155-7.677-10.341-16.411-18.49-21.194c-8.795-5.162-19.494-6.76-28.984-10.243c15.281-28.636,58.306-29.044,74.964-1.654&#10;&#9;c8.196,13.476,8.227,30.649-0.054,44.098c-1.637,2.659-4.296,7.346-7.171,8.8c-4.138,2.093-1.413,2.122-5.712-1.202&#10;&#9;C359.315,583.194,354.837,575.323,350.725,569.2z M414.204,636.8c-6.61-5.687-13.982-10.586-20.134-16.798&#10;&#9;c-6.545-6.609-11.89-14.353-18.242-21.17c5.666-4.7,3.505-5.619,8.173-3.562c2.994,1.32,6.111,5.209,8.59,7.323&#10;&#9;c9.731,8.296,19.462,16.592,29.194,24.888c14.492,12.355,28.984,24.709,43.476,37.064c-6.142,0.96-12.37,1.33-18.577,0.982&#10;&#9;c-3.121-0.175-7.344-0.009-10.306-1.243c-4.265-1.777-2.978-0.78-5.232-4.843C426.146,650.425,422.329,643.785,414.204,636.8z&#10;&#9; M433.889,758.055c0.819-8.626,13.775-9.671,13.355-16.918c-0.205-3.543-4.411-4.953-4.631-8.427&#10;&#9;c-0.215-3.401,4.092-7.399,5.483-10.325c4.561-9.594,0.986-17.061-5.151-24.716c-5.746-7.167-7.535-14.019-8.719-23.004&#10;&#9;c12.85,2.533,25.989,1.966,38.76-0.724c0.202,19.423-5.435,38.398-9.966,57.12c-4.463,18.439-8.873,36.917-13.862,55.222&#10;&#9;C442.298,779.319,432.885,768.679,433.889,758.055z M507.92,822.577c-5.797-6.833-11.87-13.907-20.204-17.693&#10;&#9;c-7.379-3.352-15.918-2.887-23.203-6.351c-6.997-3.328-5.775-3.261-5.25-9.037c0.763-8.402,4.575-17.526,6.625-25.713&#10;&#9;c11.001,6.981,20.556,16.192,27.937,26.926c3.513,5.109,6.557,10.53,9.047,16.211C504.594,810.851,506.553,820.967,507.92,822.577z&#10;&#9; M521.072,835.555c0.487-4.622-1.361-10.498-2.466-15.005c-0.725-2.954-2.668-6.539-2.797-9.565&#10;&#9;c-0.197-4.61-1.388-3.653,3.089-7.289c8.529-6.927,16.741-14.295,23.365-23.118c12.216,12.706,17.177,30.28,15.973,47.626&#10;&#9;c-0.284,4.089-0.315,10.605-2.274,14.275c0.383,3.436-0.711,4.499-3.28,3.188c-1.951-0.387-3.905-0.76-5.861-1.121&#10;&#9;C537.87,842.761,528.749,840.762,521.072,835.555z M596.977,865.213c-4.858-3.857-10-7.421-15.491-10.321&#10;&#9;c-2.474-1.307-15.247-4.495-16.142-6.416c-1.24-2.663,1.63-6.111,3.088-6.671c1.604-0.616,6.305,1.05,7.953,1.324&#10;&#9;c6.269,1.044,26.831,8.361,32.282,3.251c1.002,9.756,2.139,19.498,3.454,29.217C606.861,872.466,601.772,869.021,596.977,865.213z&#10;&#9; M622.867,881.462c1.653-4.021-0.875-11.834-1.405-16.106c6.394,1.49,12.789,2.979,19.183,4.469c1.307,0.305,5.982,0.582,7.05,1.642&#10;&#9;c1.068,1.06,0.96,7.509,1.314,9.381c0.834,4.407,2.023,8.721,3.598,12.922C642.48,890.216,632.474,886.262,622.867,881.462z&#10;&#9; M677.478,901.609c-5.033-1.36-10.008-2.84-14.959-4.472c3.451-4.555-3.585-19.188-4.075-24.965&#10;&#9;c-0.658-7.764,0.066-15.628,2.098-23.149c4.669-17.283,16.219-32.46,31.378-41.911c30.406-18.957,70.779-10.432,91.485,18.716&#10;&#9;c-8.365,3.982-16.395,8.722-23.9,14.155c-1.441,1.043-7.778,7.171-9.414,7.372c-1.916,0.235-7.399-4.262-9.621-5.312&#10;&#9;c-7.662-3.62-15.885-6.133-24.274-7.356c-5.899-0.86-18.327-3.348-23.335,0.057c-9.682,6.581,3.368,32.129,7.856,39.852&#10;&#9;c1.986,3.418,4.184,6.696,6.615,9.815c1.42,1.822,6.435,5.736,6.651,7.589c0.486,4.167-7.853,15.874-9.522,19.814&#10;&#9;C695.849,907.109,686.92,904.164,677.478,901.609z M741.763,931.167c-6.896-2.683-21.443-7.224-26.12-13.096&#10;&#9;c-3.158-3.966,3.892-13.752,6.475-18.764c11.373,9.002,24.941,15.103,39.227,17.615c3.565,0.627,7.67,0.262,11.082,1.2&#10;&#9;c4.838,1.329,2.958-1.748,4.968,2.821c1.992,4.529,0.687,11.577,2.12,16.507C766.616,938.71,753.739,935.825,741.763,931.167z&#10;&#9; M812.326,925.496c-6.957,4.35-14.454,7.926-22.399,10.053c-0.867-6.26-4.6-16.323,0.429-20.303&#10;&#9;c4.195-3.32,17.155-4.974,22.475-6.189c21.532-4.921,44.432-7.734,66.372-3.941c-1.914,4.938-3.443,10.025-4.536,15.207&#10;&#9;C853.718,911.337,831.568,913.463,812.326,925.496z M944.653,975.303c-15.487-8.673-26.831-23.177-39.784-34.973&#10;&#9;c-2.847-2.593-5.75-5.142-8.821-7.47c-2.188-1.659-10.535-5.31-11.571-7.586c-0.939-2.064,2.083-8.947,2.675-10.814&#10;&#9;c1.893-5.968,1.471-7.484,7.632-5.182c13.523,5.052,25.814,13.82,35.064,24.902c5.493,6.582,8.005,13.453,11.515,20.653&#10;&#9;c1.086,2.228,3.991,4.079,4.855,6.185C947.538,964.231,945.386,971.944,944.653,975.303z M959.469,920.121&#10;&#9;c-1.16,1-2.185,2.123-3.075,3.37c-2.939-27.176-6.965-54.112-8.821-81.408c4.729,5.184,9.392,10.432,14.228,15.518&#10;&#9;c2.397,2.521,6.828,5.878,8.1,8.936c2.016,4.846,1.048,13.126,1.463,18.321c0.643,8.056,1.286,16.112,1.93,24.168&#10;&#9;c0.078,0.975,1.004,4.491,0.424,5.314C972.291,916.366,962.318,917.751,959.469,920.121z M995.236,894.051&#10;&#9;c3.198,4.332,4.375,8.642,8.356,12.34c2.905,2.698,4.195-1.349,4.98,4.1c0.136,0.945,0.342,3.323-0.291,3.99&#10;&#9;c-3.081,3.242-22.852,0.285-24.04-1.553c-2.448-3.787-1.244-15.583-1.596-19.989c-0.452-5.661-0.904-11.322-1.356-16.984&#10;&#9;C986.538,881.493,990.72,887.933,995.236,894.051z M1011.463,842.06c-6.136-0.131-17.018-1.149-21.761,4.191&#10;&#9;c-4.838,5.447,1.15,11.509,1.093,17.515c-6.446-2.177-9.381-1.619-14.479-6.521c-4.879-4.693-9.457-9.704-14.012-14.708&#10;&#9;c10.154-9.512,21.697-17.529,33.976-24.049c3.885,9.147,10.282,17.239,17.859,23.616&#10;&#9;C1013.248,842.089,1012.355,842.075,1011.463,842.06z M1110.106,810.007c-1.531,6.667-0.848,8.042-7.065,4.526&#10;&#9;c-4.568-2.583-9.181-7.288-14.723-3.866c-3.958,2.444-5.43,8.469-7.964,12.114c-3.445,4.956-7.298,6.434-12.496,8.933&#10;&#9;c-5.354,2.573-9.125,7.568-14.336,9.838c-5.457,2.378-14.68,2.076-20.11,0.204c-11.949-4.12-22.911-16.579-27.589-27.966&#10;&#9;c18.017-8.196,37.453-13.438,57.192-15.055c9.152-0.75,18.37-0.726,27.503,0.276c4.709,0.517,9.393,1.281,14.012,2.337&#10;&#9;C1111.361,802.911,1111.703,803.039,1110.106,810.007z M1117.847,778.728c-1.663,4.633-4.42,8.835-5.17,13.764&#10;&#9;c-5.146-1.432-10.387-2.519-15.671-3.294c1.795-4.665,4.508-11.74,8.849-14.674C1110.802,771.18,1113.082,776.154,1117.847,778.728z&#10;&#9; M1128.489,718.908c-6.977,7.663-15.313,17.045-19.324,26.695c-2.168,5.217-1.776,11.749-4.824,15.996&#10;&#9;c-3.844,5.356-9.371,8.536-12.861,14.535c-4.637-15.237-11.802-29.584-20.463-42.919c19.669-9.179,40.585-15.968,62.021-19.488&#10;&#9;C1131.56,715.487,1130.044,717.214,1128.489,718.908z" style="fill: rgb(160, 11, 38);"/>
</svg>