<svg version="1.1" id="Layer_1" xmlns="http://www.w3.org/2000/svg" xmlns:xlink="http://www.w3.org/1999/xlink" x="0px" y="0px" viewBox="0 0 1200 1200" enable-background="new 0 0 1200 1200" xml:space="preserve">
<path fill="#283B2F" d="M1147.267,658.2c-1.797-1.816-4.341-2.819-6.802-2.812l-100.477,0.688c-0.031-0.012-0.099,0-0.154,0&#10;&#9;l-218.541,1.494c-92.395-317.637-202.753-318.781-221.449-316.499c-19.209-1.902-132.219,1.264-221.15,316.498l-218.524-1.494&#10;&#9;c-0.055,0-0.133-0.01-0.154,0l-100.477-0.688c-2.605,0.074-5.004,0.996-6.802,2.812c-1.795,1.816-2.781,4.28-2.735,6.833&#10;&#9;c0.12,6.447,3.688,158.163,74.013,191.353c3.291,2.867,469.551,2.849,473.655,2.867c0.016,0,0.028,0,0.043,0&#10;&#9;c0.781,0,1.549-0.097,2.289-0.281c0.741,0.184,1.508,0.281,2.289,0.281c0.015,0,0.028,0,0.043,0&#10;&#9;c4.104-0.019,410.61-1.872,469.249-1.874c0.558-0.015,1.104-0.031,1.659-0.118c0.006,0,0.013-0.003,0.019-0.003&#10;&#9;c0.077-0.013,0.154-0.025,0.231-0.04c0.003,0,0.003,0,0.003,0c0.003,0,0.006,0,0.01,0c0.881-0.167,1.714-0.45,2.482-0.83&#10;&#9;c70.334-33.18,73.895-184.905,74.012-191.355C1150.048,662.48,1149.061,660.016,1147.267,658.2z M600.002,829.882l-60.472-152.27&#10;&#9;l58.827,0.404c0.583,0.009,1.154-0.053,1.714-0.152c0.496,0.081,0.994,0.152,1.512,0.152c0.022,0,0.043,0,0.065,0l58.824-0.404&#10;&#9;L600.002,829.882z M1023.134,675.134L930.6,828.549l-79.135-152.24L1023.134,675.134z M823.564,676.499L758.45,825.259&#10;&#9;l-71.456-147.825L823.564,676.499z M597.38,359.907c0.818,0.189,1.664,0.26,2.527,0.223c1.142,0.091,2.252-0.02,3.306-0.321&#10;&#9;c12.307-0.672,84.977,3.671,159.521,185.599h-326.28C510.485,362.822,586.013,359.326,597.38,359.907z M410.769,616.738h378.073&#10;&#9;c4.267,12.988,8.516,26.637,12.739,40.966l-200.064,1.368c-0.519,0.004-1.019,0.079-1.515,0.164&#10;&#9;c-0.496-0.084-0.996-0.16-1.515-0.164l-200.126-1.368C402.458,643.373,406.598,629.726,410.769,616.738z M513.006,677.434&#10;&#9;L441.55,825.259l-65.111-148.759L513.006,677.434z M348.538,676.308l-79.134,152.24l-92.535-153.415L348.538,676.308z&#10;&#9; M121.316,832.483C79.969,799.525,71.163,705.048,69.377,674.4l79.396,0.542L121.316,832.483z M1078.687,832.483l-27.457-157.541&#10;&#9;l79.396-0.542C1128.84,705.048,1120.031,799.525,1078.687,832.483z" style="fill: rgb(160, 11, 38);"/>
</svg>