<?xml version="1.0" encoding="utf-8"?>
<!-- Generator: Adobe Illustrator 21.0.0, SVG Export Plug-In . SVG Version: 6.00 Build 0)  -->
<svg version="1.1" id="Layer_1" xmlns="http://www.w3.org/2000/svg" xmlns:xlink="http://www.w3.org/1999/xlink" x="0px" y="0px"
	 width="1400px" height="980px" viewBox="0 0 1400 980" enable-background="new 0 0 1400 980" xml:space="preserve">
<g>
	<rect fill="#F7901E" width="1400" height="980"/>
	<g>
		<g>
			<path fill="#D02332" d="M404,689.9c-36.3,7.3-17.1,64.3,9.6,98.3c39.4,50.2,92.1,42.1,90.3,24.7c-2.1-21.2-26.7-1.1-51.7-38.7
				C433.3,745.5,447.7,681.1,404,689.9z"/>
			<path fill="#254043" d="M396.2,686.2c-1.3-6.2-4.5-23.4-2.4-33c2.5-11.9,17.3-9,14.6-2.4c0,0-4,22.4-2.7,32.5
				c26.2-4.9,42.1,26.5,33.6,32.7c-10.6,7.8-20.2-7-20.2-7s3.3,11-7.7,13.9c-11.1,2.9-15-9.9-15-9.9c-3,6.2-15.1,18.7-16,6.1
				C379.6,708.2,381.7,693.1,396.2,686.2z"/>
		</g>
		<g>
			<path fill="#D02332" d="M947.2,685.6c15.6-0.3,30,22.8,17.5,51.6c-10.9,24.9-32.1,27.8-55.2,30.7c-20.3,2.5-14.6-6.5-5.3-9.4
				c16.6-5.1,21.5-15.3,24.4-30.7C931.5,712.5,927.2,686.1,947.2,685.6z"/>
			<path fill="#254043" d="M949.1,667.5c0,0,0.9,8.7,0,15.6c0,0-17.5-2.6-19.8,17.5c0,0,9.6,0,13.4-4.5c0,0,0.9,8.1,8.3,9.2
				c7.5,1.1,9.8-6.8,9.8-6.8s2.5,9,10.2,8c0,0-0.6-17.1-16.6-22.9c0,0,2.8-7.2,3-17.5C957.5,666,950.6,662.8,949.1,667.5z"/>
		</g>
		<g>
			<path fill="#D02332" d="M608.1,414c9.4-0.2,18.1,13.7,10.5,31c-6.5,15-19.3,16.7-33.2,18.5c-12.2,1.5-8.8-3.9-3.2-5.6
				c10-3.1,13-9.2,14.7-18.5C598.6,430.1,596.1,414.2,608.1,414z"/>
			<path fill="#254043" d="M609.3,403c0,0,0.5,5.3,0,9.4c0,0-10.5-1.5-11.9,10.5c0,0,5.8,0,8.1-2.7c0,0,0.5,4.9,5,5.5
				c4.5,0.6,5.9-4.1,5.9-4.1s1.5,5.4,6.1,4.8c0,0-0.4-10.3-10-13.8c0,0,1.7-4.4,1.8-10.5C614.3,402.2,610.2,400.2,609.3,403z"/>
		</g>
		<g>
			<path fill="#008F5B" d="M785.8,846.1c30.3,0,54.9-24.6,54.9-54.9c0-0.7,0-1.3,0-2H730.9c0,0.7-0.1,1.3-0.1,2
				C730.9,821.5,755.5,846.1,785.8,846.1z"/>
			<path fill="#75BA0A" d="M785.8,835.1c24.2,0,43.9-19.6,43.9-43.9c0-0.7,0-1.3-0.1-2H742c0,0.7-0.1,1.3-0.1,2
				C741.9,815.4,761.6,835.1,785.8,835.1z"/>
			<path fill="#FFC20E" d="M785.8,830.7c21.8,0,39.5-17.7,39.5-39.5c0-0.7,0-1.3,0-2h-79c0,0.7-0.1,1.3-0.1,2
				C746.3,813,764,830.7,785.8,830.7z"/>
			<path fill="#FFE8B4" d="M796.6,809c-5.8-1.7-13.7-3.6-12.9,1.9C784.5,816.4,791.5,812.3,796.6,809z"/>
			<path fill="#FFE8B4" d="M802.1,796.1c1.9,5.8,4.8,13.4,8.8,9.6C815,802,807.7,798.5,802.1,796.1z"/>
			<path fill="#FFE8B4" d="M761.9,793.5c1.9,5.8,4.8,13.4,8.8,9.6C774.8,799.3,767.5,795.8,761.9,793.5z"/>
		</g>
		<g>
			<path fill="#008F5B" d="M865.6,165.5c-6.1,15.8,1.8,33.6,17.6,39.7c0.4,0.1,0.7,0.3,1.1,0.4l22.1-57.2c-0.3-0.1-0.7-0.3-1-0.4
				C889.4,141.8,871.7,149.7,865.6,165.5z"/>
			<path fill="#75BA0A" d="M871.3,167.7c-4.9,12.6,1.4,26.8,14,31.7c0.4,0.1,0.7,0.3,1.1,0.4l17.6-45.7c-0.3-0.1-0.7-0.3-1-0.4
				C890.4,148.8,876.2,155.1,871.3,167.7z"/>
			<path fill="#FFC20E" d="M873.6,168.6c-4.4,11.4,1.3,24.1,12.6,28.5c0.4,0.1,0.7,0.3,1.1,0.4l15.9-41.1c-0.3-0.1-0.7-0.3-1-0.4
				C890.8,151.6,878,157.2,873.6,168.6z"/>
			<path fill="#FFE8B4" d="M882.7,178.6c2.1-2.7,4.6-6.4,1.6-7.1C881.4,170.8,882.1,175.3,882.7,178.6z"/>
			<path fill="#FFE8B4" d="M888.3,184c-3.4-0.2-7.9-0.2-6.8,2.7C882.7,189.6,886,186.5,888.3,184z"/>
			<path fill="#FFE8B4" d="M897.8,163.7c-3.4-0.2-7.9-0.2-6.8,2.7C892.2,169.2,895.5,166.1,897.8,163.7z"/>
		</g>
		<g>
			<path fill="#FFC20E" d="M402.6,350.7c0,0-18.2-1.6-30.3-4.8c-12-3.2-9.9-36.4-18.1-42.9c-8.2-6.4-22.3-2.2-17.2,22.2
				c5.1,24.4,8.7,43.1,32.6,46.1c23.9,2.9,42.9,0.3,42.9,0.3L402.6,350.7z"/>
			<path fill="#FFC20E" d="M443.3,229.6c3,18.7,9.3,65-5.8,69.5l3.8,20.2c0,0,22.3-6.2,28-28c6.4-24.3,4.2-46.2,0.1-65.5
				C465.5,206.5,440.5,211.5,443.3,229.6z"/>
			<path fill="#008F5B" d="M424.5,427.3c0,0-60.2-191.9-40.4-213.1c21.5-23,39.2,2.2,51.6,51.6c12.3,49.4,29.2,153.9,29.2,153.9
				L424.5,427.3z"/>
			<g>
				
					<rect x="380.4" y="248.8" transform="matrix(0.117 -0.9931 0.9931 0.117 84.1761 604.2396)" fill="#1D1D1B" width="2.9" height="12"/>
			</g>
			<g>
				
					<rect x="376.7" y="269.7" transform="matrix(0.9985 -5.468384e-02 5.468384e-02 0.9985 -14.2551 21.3761)" fill="#1D1D1B" width="13.6" height="2.9"/>
			</g>
			<g>
				
					<rect x="382.9" y="293.1" transform="matrix(0.9537 -0.3008 0.3008 0.9537 -70.613 130.5582)" fill="#1D1D1B" width="11.5" height="2.9"/>
			</g>
			<g>
				
					<rect x="389.1" y="319.3" transform="matrix(0.9825 -0.1861 0.1861 0.9825 -52.8221 78.9889)" fill="#1D1D1B" width="10.3" height="2.9"/>
			</g>
			<g>
				
					<rect x="392" y="337.6" transform="matrix(1 -5.853747e-03 5.853747e-03 1 -1.978 2.3293)" fill="#1D1D1B" width="9.9" height="2.9"/>
			</g>
			<g>
				
					<rect x="404.7" y="382.4" transform="matrix(0.9825 -0.1862 0.1862 0.9825 -64.3037 82.9785)" fill="#1D1D1B" width="10.1" height="2.9"/>
			</g>
			<g>
				
					<rect x="411.4" y="403.4" transform="matrix(0.9825 -0.1861 0.1861 0.9825 -68.0785 84.7191)" fill="#1D1D1B" width="11.4" height="2.9"/>
			</g>
			<g>
				
					<rect x="456.7" y="396.2" transform="matrix(0.8866 -0.4625 0.4625 0.8866 -131.5275 258.7915)" fill="#1D1D1B" width="10.6" height="2.9"/>
			</g>
			<g>
				
					<rect x="453.5" y="379.8" transform="matrix(0.9969 -7.816993e-02 7.816993e-02 0.9969 -28.3972 37.1338)" fill="#1D1D1B" width="13.3" height="2.9"/>
			</g>
			<g>
				
					<rect x="450.2" y="361.2" transform="matrix(0.9352 -0.3542 0.3542 0.9352 -98.9132 184.7939)" fill="#1D1D1B" width="10.3" height="2.9"/>
			</g>
			<g>
				
					<rect x="446.2" y="344" transform="matrix(0.9825 -0.1862 0.1862 0.9825 -56.3966 90.3262)" fill="#1D1D1B" width="13.2" height="2.9"/>
			</g>
			<g>
				
					<rect x="442.3" y="324" transform="matrix(0.9544 -0.2984 0.2984 0.9544 -76.6727 148.8143)" fill="#1D1D1B" width="13.3" height="2.9"/>
			</g>
			<g>
				
					<rect x="434.3" y="272.4" transform="matrix(0.7252 -0.6885 0.6885 0.7252 -67.8494 377.7414)" fill="#1D1D1B" width="10.2" height="2.9"/>
			</g>
			<g>
				
					<rect x="429.3" y="254.7" transform="matrix(0.8939 -0.4483 0.4483 0.8939 -68.7006 222.1443)" fill="#1D1D1B" width="11.2" height="2.9"/>
			</g>
			<g>
				
					<rect x="423.2" y="240.4" transform="matrix(0.9138 -0.4061 0.4061 0.9138 -61.2209 195.1748)" fill="#1D1D1B" width="12.1" height="2.9"/>
			</g>
			<g>
				
					<rect x="417.6" y="224.1" transform="matrix(0.717 -0.6971 0.6971 0.717 -37.5969 358.5802)" fill="#1D1D1B" width="10.3" height="2.9"/>
			</g>
			<g>
				
					<rect x="383.9" y="205.6" transform="matrix(0.8872 -0.4615 0.4615 0.8872 -54.1256 201.7237)" fill="#1D1D1B" width="2.9" height="11.9"/>
			</g>
			<g>
				
					<rect x="392.6" y="205.2" transform="matrix(9.578738e-02 -0.9954 0.9954 9.578738e-02 153.778 582.658)" fill="#1D1D1B" width="9.9" height="2.9"/>
			</g>
			<g>
				
					<rect x="406.6" y="210.5" transform="matrix(0.3299 -0.944 0.944 0.3299 75.7775 530.7375)" fill="#1D1D1B" width="10.3" height="2.9"/>
			</g>
			<g>
				
					<rect x="376.5" y="220.9" transform="matrix(0.4671 -0.8842 0.8842 0.4671 1.213 454.8926)" fill="#1D1D1B" width="2.9" height="11.1"/>
			</g>
			<g>
				
					<rect x="377.7" y="238.1" transform="matrix(7.428510e-02 -0.9972 0.9972 7.428510e-02 108.3963 603.2772)" fill="#1D1D1B" width="2.9" height="10.3"/>
			</g>
			<g>
				
					<rect x="334.7" y="311.1" transform="matrix(0.2037 -0.979 0.979 0.2037 -40.6174 579.9867)" fill="#1D1D1B" width="2.9" height="7.7"/>
			</g>
			<g>
				
					<rect x="357.3" y="314.8" transform="matrix(0.8432 -0.5377 0.5377 0.8432 -113.5131 243.5009)" fill="#1D1D1B" width="6.6" height="2.9"/>
			</g>
			<g>
				
					<rect x="337.3" y="329.4" transform="matrix(0.1419 -0.9899 0.9899 0.1419 -40.1953 622.1504)" fill="#1D1D1B" width="2.9" height="9.8"/>
			</g>
			<g>
				
					<rect x="360.2" y="337.2" transform="matrix(0.5111 -0.8595 0.8595 0.5111 -112.7261 479.1893)" fill="#1D1D1B" width="9.2" height="2.9"/>
			</g>
			<g>
				
					<rect x="344.7" y="366.2" transform="matrix(0.6309 -0.7759 0.7759 0.6309 -155.5906 408.3358)" fill="#1D1D1B" width="13.3" height="2.9"/>
			</g>
			<g>
				
					<rect x="377.2" y="344.9" transform="matrix(0.2597 -0.9657 0.9657 0.2597 -50.7214 626.6133)" fill="#1D1D1B" width="12.4" height="2.9"/>
			</g>
			<g>
				
					<rect x="372.5" y="372.8" transform="matrix(7.266899e-02 -0.9974 0.9974 7.266899e-02 -22.6188 724.2881)" fill="#1D1D1B" width="11.4" height="2.9"/>
			</g>
			<g>
				
					<rect x="337.6" y="351" transform="matrix(0.9825 -0.1862 0.1862 0.9825 -59.6266 70.015)" fill="#1D1D1B" width="10.8" height="2.9"/>
			</g>
			<g>
				
					<rect x="444.3" y="212.9" transform="matrix(0.7627 -0.6467 0.6467 0.7627 -35.7719 340.2228)" fill="#1D1D1B" width="2.9" height="11.9"/>
			</g>
			<g>
				
					<rect x="463.7" y="224.7" transform="matrix(0.9087 -0.4175 0.4175 0.9087 -51.5839 216.5398)" fill="#1D1D1B" width="11.1" height="2.9"/>
			</g>
			<g>
				
					<rect x="465.9" y="241.9" transform="matrix(0.7182 -0.6958 0.6958 0.7182 -36.0211 397.7741)" fill="#1D1D1B" width="14.4" height="2.9"/>
			</g>
			<g>
				
					<rect x="466.7" y="259.4" transform="matrix(0.962 -0.2732 0.2732 0.962 -53.2308 139.4161)" fill="#1D1D1B" width="14.4" height="2.9"/>
			</g>
			<g>
				
					<rect x="468" y="273.7" transform="matrix(1 -6.897361e-03 6.897361e-03 1 -1.8868 3.2731)" fill="#1D1D1B" width="11.1" height="2.9"/>
			</g>
			<g>
				
					<rect x="469.9" y="285" transform="matrix(0.3393 -0.9407 0.9407 0.3393 37.6711 635.5951)" fill="#1D1D1B" width="2.9" height="12"/>
			</g>
			<g>
				
					<rect x="460.6" y="303.7" transform="matrix(0.7663 -0.6425 0.6425 0.7663 -90.1346 368.9628)" fill="#1D1D1B" width="2.9" height="9.3"/>
			</g>
			<g>
				
					<rect x="444" y="235.9" transform="matrix(0.2285 -0.9735 0.9735 0.2285 109.2646 619.3896)" fill="#1D1D1B" width="2.9" height="9.6"/>
			</g>
		</g>
		<g>
			<path fill="#FFC20E" d="M993,336.1c0,0,18.1-2.6,29.9-6.6c11.8-3.9,7.7-37,15.5-43.9c7.8-6.9,22.1-3.6,18.5,21.1
				c-3.7,24.7-6.1,43.6-29.8,47.9c-23.7,4.4-42.8,2.9-42.8,2.9L993,336.1z"/>
			<path fill="#FFC20E" d="M945,217.7c-1.8,18.9-5.4,65.5,9.9,69l-2.6,20.4c0,0-22.6-4.8-29.6-26.3c-7.8-23.9-6.9-45.9-4-65.4
				C921.5,195.9,946.8,199.5,945,217.7z"/>
			<path fill="#008F5B" d="M975.6,413.9c0,0,48.6-195.1,27.6-215.1c-22.8-21.7-39,4.5-48.4,54.5c-9.4,50.1-19.9,155.4-19.9,155.4
				L975.6,413.9z"/>
			<g>
				
					<rect x="1001.9" y="237.7" transform="matrix(0.9844 -0.1761 0.1761 0.9844 -26.3613 181.2431)" fill="#1D1D1B" width="12" height="2.9"/>
			</g>
			<g>
				
					<rect x="1000.5" y="254.1" transform="matrix(1 -5.121858e-03 5.121858e-03 1 -1.2959 5.1625)" fill="#1D1D1B" width="13.6" height="2.9"/>
			</g>
			<g>
				
					<rect x="1002" y="273.5" transform="matrix(0.2434 -0.9699 0.9699 0.2434 488.3499 1184.6078)" fill="#1D1D1B" width="2.9" height="11.5"/>
			</g>
			<g>
				
					<rect x="998.1" y="300.6" transform="matrix(0.1271 -0.9919 0.9919 0.1271 569.1738 1258.2889)" fill="#1D1D1B" width="2.9" height="10.3"/>
			</g>
			<g>
				
					<rect x="992.9" y="322.7" transform="matrix(0.9986 -5.382121e-02 5.382121e-02 0.9986 -16.0002 54.1786)" fill="#1D1D1B" width="9.9" height="2.9"/>
			</g>
			<g>
				
					<rect x="986.4" y="364.7" transform="matrix(0.1271 -0.9919 0.9919 0.1271 495.5782 1302.5214)" fill="#1D1D1B" width="2.9" height="10.1"/>
			</g>
			<g>
				
					<rect x="980.2" y="385.4" transform="matrix(0.1271 -0.9919 0.9919 0.1271 468.9307 1315.0865)" fill="#1D1D1B" width="2.9" height="11.4"/>
			</g>
			<g>
				
					<rect x="935" y="381.2" transform="matrix(0.409 -0.9125 0.9125 0.409 200.7191 1082.9646)" fill="#1D1D1B" width="2.9" height="10.6"/>
			</g>
			<g>
				
					<rect x="935.9" y="363.5" transform="matrix(1.845181e-02 -0.9998 0.9998 1.845181e-02 550.04 1300.4595)" fill="#1D1D1B" width="2.9" height="13.3"/>
			</g>
			<g>
				
					<rect x="939.5" y="346" transform="matrix(0.2978 -0.9546 0.9546 0.2978 325.4868 1144.8505)" fill="#1D1D1B" width="2.9" height="10.3"/>
			</g>
			<g>
				
					<rect x="941.1" y="327.3" transform="matrix(0.1271 -0.9919 0.9919 0.1271 491.5822 1226.3553)" fill="#1D1D1B" width="2.9" height="13.2"/>
			</g>
			<g>
				
					<rect x="943.7" y="307.1" transform="matrix(0.2406 -0.9706 0.9706 0.2406 413.2689 1155.6304)" fill="#1D1D1B" width="2.9" height="13.3"/>
			</g>
			<g>
				
					<rect x="950.2" y="256.5" transform="matrix(0.6436 -0.7654 0.7654 0.6436 138.9396 821.626)" fill="#1D1D1B" width="2.9" height="10.2"/>
			</g>
			<g>
				
					<rect x="953.6" y="238.1" transform="matrix(0.394 -0.9191 0.9191 0.394 354.7296 1025.4609)" fill="#1D1D1B" width="2.9" height="11.2"/>
			</g>
			<g>
				
					<rect x="958.4" y="223" transform="matrix(0.3509 -0.9364 0.9364 0.3509 408.5801 1047.4872)" fill="#1D1D1B" width="2.9" height="12.1"/>
			</g>
			<g>
				
					<rect x="963.9" y="207.3" transform="matrix(0.653 -0.7573 0.7573 0.653 174.05 804.7751)" fill="#1D1D1B" width="2.9" height="10.3"/>
			</g>
			<g>
				
					<rect x="995.8" y="194.7" transform="matrix(0.4076 -0.9132 0.9132 0.4076 414.3219 1031.0054)" fill="#1D1D1B" width="11.9" height="2.9"/>
			</g>
			<g>
				
					<rect x="987.9" y="187.1" transform="matrix(0.9879 -0.1552 0.1552 0.9879 -17.8216 155.9075)" fill="#1D1D1B" width="2.9" height="9.9"/>
			</g>
			<g>
				
					<rect x="974.1" y="193.1" transform="matrix(0.9226 -0.3858 0.3858 0.9226 -0.9377 391.734)" fill="#1D1D1B" width="2.9" height="10.3"/>
			</g>
			<g>
				
					<rect x="1004.5" y="209.1" transform="matrix(0.8547 -0.5191 0.5191 0.8547 37.4236 554.931)" fill="#1D1D1B" width="11.1" height="2.9"/>
			</g>
			<g>
				
					<rect x="1004.8" y="226" transform="matrix(0.991 -0.1338 0.1338 0.991 -21.3516 137.1563)" fill="#1D1D1B" width="10.3" height="2.9"/>
			</g>
			<g>
				
					<rect x="1053.2" y="295" transform="matrix(0.9651 -0.2618 0.2618 0.9651 -40.7486 287.0989)" fill="#1D1D1B" width="7.7" height="2.9"/>
			</g>
			<g>
				
					<rect x="1031.3" y="296" transform="matrix(0.4859 -0.874 0.874 0.4859 269.4245 1056.5828)" fill="#1D1D1B" width="2.9" height="6.6"/>
			</g>
			<g>
				
					<rect x="1050.8" y="314.4" transform="matrix(0.9796 -0.2008 0.2008 0.9796 -41.9294 218.4275)" fill="#1D1D1B" width="9.8" height="2.9"/>
			</g>
			<g>
				
					<rect x="1028.5" y="317.2" transform="matrix(0.8275 -0.5615 0.5615 0.8275 -3.0346 633.8486)" fill="#1D1D1B" width="2.9" height="9.2"/>
			</g>
			<g>
				
					<rect x="1043.6" y="343.4" transform="matrix(0.7363 -0.6766 0.6766 0.7363 38.7471 799.4651)" fill="#1D1D1B" width="2.9" height="13.3"/>
			</g>
			<g>
				
					<rect x="1010.4" y="324.5" transform="matrix(0.9484 -0.3172 0.3172 0.9484 -52.6305 338.0049)" fill="#1D1D1B" width="2.9" height="12.4"/>
			</g>
			<g>
				
					<rect x="1017.3" y="352.5" transform="matrix(0.9912 -0.1323 0.1323 0.9912 -38.4274 137.876)" fill="#1D1D1B" width="2.9" height="11.4"/>
			</g>
			<g>
				
					<rect x="1051.1" y="328.9" transform="matrix(0.1271 -0.9919 0.9919 0.1271 587.1542 1335.8723)" fill="#1D1D1B" width="2.9" height="10.8"/>
			</g>
			<g>
				
					<rect x="936" y="205.6" transform="matrix(0.5999 -0.8001 0.8001 0.5999 211.1708 836.4833)" fill="#1D1D1B" width="11.9" height="2.9"/>
			</g>
			<g>
				
					<rect x="917.5" y="210.3" transform="matrix(0.3626 -0.932 0.932 0.3626 384.6783 994.0421)" fill="#1D1D1B" width="2.9" height="11.1"/>
			</g>
			<g>
				
					<rect x="914.7" y="226" transform="matrix(0.6515 -0.7586 0.7586 0.6515 142.3405 776.2527)" fill="#1D1D1B" width="2.9" height="14.4"/>
			</g>
			<g>
				
					<rect x="914.9" y="243.5" transform="matrix(0.2156 -0.9765 0.9765 0.2156 474.0315 1091.4398)" fill="#1D1D1B" width="2.9" height="14.4"/>
			</g>
			<g>
				
					<rect x="912" y="263.5" transform="matrix(0.9986 -5.289767e-02 5.289767e-02 0.9986 -12.7321 48.9078)" fill="#1D1D1B" width="11.1" height="2.9"/>
			</g>
			<g>
				
					<rect x="914.8" y="279.1" transform="matrix(0.9187 -0.395 0.395 0.9187 -35.9684 386.4951)" fill="#1D1D1B" width="12" height="2.9"/>
			</g>
			<g>
				
					<rect x="926.4" y="295.9" transform="matrix(0.5955 -0.8034 0.8034 0.5955 137.7133 868.3173)" fill="#1D1D1B" width="9.3" height="2.9"/>
			</g>
			<g>
				
					<rect x="938.8" y="227.5" transform="matrix(0.9582 -0.2862 0.2862 0.9582 -26.0467 279.6635)" fill="#1D1D1B" width="9.6" height="2.9"/>
			</g>
		</g>
		<g>
			<path fill="#FFC20E" d="M826.6,599c-4.9-48.6-26-90-70.1-121.8c-26.6,6.1-58.3,16.2-58.9,16.4c-0.6-0.2-32.3-10.3-58.9-16.4
				c-44.1,31.8-65.1,73.3-70.1,121.8c-4.9,48.6-28.8,97.7-52.7,113.2c34.2,23.9,59.9-13.5,91.6-13.5c42,0,58.8,37.3,90.1,37.4v0
				c0,0,0,0,0,0c0,0,0,0,0,0v0c31.3,0,48.1-37.4,90.1-37.4c31.7,0,57.4,37.4,91.6,13.5C855.4,696.8,831.5,647.6,826.6,599z"/>
			<path fill="#D02332" d="M756.5,477.2c-26.6,6.1-58.3,16.2-58.9,16.4c-0.6-0.2-32.3-10.3-58.9-16.4
				c-44.1,31.8-65.1,73.3-70.1,121.8c-4.2,41.1-21.9,82.6-41.7,103.8c28.9,10.3,52.4-19.3,80.6-19.3c42,0,58.8,37.3,90.1,37.4v0
				c0,0,0,0,0,0c0,0,0,0,0,0v0c31.3,0,48.1-37.4,90.1-37.4c28.2,0,51.7,29.6,80.6,19.3c-19.8-21.2-37.5-62.7-41.7-103.8
				C821.6,550.5,800.6,509,756.5,477.2z"/>
			<path fill="#007C8A" d="M697.6,606.7c29.7,0,76.5-3.1,127.4-19.1c-6.9-43.6-28-81.1-68.6-110.4c-26.6,6.1-58.3,16.2-58.9,16.4
				c-0.6-0.2-32.3-10.3-58.9-16.4c-40.6,29.3-61.6,66.7-68.6,110.4C621.1,603.6,667.9,606.7,697.6,606.7z"/>
			<path fill="#FFC20E" d="M584.9,539.7c-3.6,7.5-6.7,15.3-9.1,23.3c78.3,27.8,165.4,27.8,243.6,0c-2.5-8-5.5-15.8-9.1-23.3
				C737.8,565,657.5,565,584.9,539.7z"/>
			<path fill="#1D1D1B" d="M635.6,553.1c-10.9,2.3-22,4-33.4,5.2c9.4,6.9,19.2,13.5,29.4,19.6c11.6-2.1,22.9-4.8,33.9-8
				C655.2,564.7,645.2,559.1,635.6,553.1z"/>
			<path fill="#1D1D1B" d="M697.6,558.7c-10.4,4.2-21.1,7.9-32.1,11.1c10.3,5.2,21.1,9.8,32.1,14c11.1-4.2,21.8-8.9,32.1-14
				C718.8,566.6,708,562.9,697.6,558.7z"/>
			<path fill="#1D1D1B" d="M759.7,553.1c-9.6,6-19.5,11.6-29.9,16.8c11,3.2,22.3,5.9,33.9,8c10.2-6.1,20-12.7,29.4-19.6
				C781.7,557,770.6,555.3,759.7,553.1z"/>
			<path fill="#1D1D1B" d="M602.2,558.2c-6.5-4.8-12.8-9.9-18.9-15.1c-2.5,5.4-4.7,11-6.5,16.7C585.4,559.6,593.9,559.1,602.2,558.2
				z"/>
			<path fill="#1D1D1B" d="M812,543.2c-6.1,5.2-12.4,10.2-18.9,15c8.4,0.9,16.8,1.4,25.4,1.6C816.6,554.2,814.4,548.6,812,543.2z"/>
			<g>
				<path fill="#FFC20E" d="M750.5,467.8c-31.1,19.4-74.5,19.4-105.6,0c-2,3.2-4,6.3-6.1,9.4c34.6,21.8,83.2,21.8,117.8,0
					C754.5,474.1,752.4,471,750.5,467.8z"/>
				<path fill="#00549C" d="M638.7,477.2c3.5,2.1,7.1,4,10.8,5.8c-0.1-4.2-0.1-8.3,0.1-12.5C646.2,472.9,642.6,475.1,638.7,477.2z"
					/>
				<path fill="#00549C" d="M649.5,483c3.7,1.7,7.5,3.3,11.4,4.6c-0.6-4.1-1.1-8.3-1.4-12.4C656.4,477.9,653.1,480.5,649.5,483z"/>
				<path fill="#00549C" d="M661,487.6c3.9,1.3,7.9,2.4,11.9,3.3c-1.1-4.1-2.1-8.1-2.8-12.2C667.3,481.8,664.2,484.7,661,487.6z"/>
				<path fill="#00549C" d="M672.9,490.9c4,0.9,8.2,1.6,12.3,2c-1.6-3.9-3-7.9-4.2-11.8C678.5,484.4,675.8,487.7,672.9,490.9z"/>
				<path fill="#00549C" d="M685.2,492.9c4.1,0.5,8.3,0.7,12.5,0.7c-2.1-3.7-3.9-7.5-5.6-11.3C690,485.9,687.7,489.4,685.2,492.9z"
					/>
				<path fill="#00549C" d="M697.6,493.6c4.2,0,8.3-0.2,12.5-0.7c-2.5-3.5-4.8-7-6.9-10.6C701.6,486.1,699.7,489.9,697.6,493.6z"/>
				<path fill="#00549C" d="M710.1,492.9c4.1-0.5,8.2-1.1,12.3-2c-2.9-3.2-5.6-6.4-8-9.8C713.1,485,711.7,489,710.1,492.9z"/>
				<path fill="#00549C" d="M722.4,490.9c4-0.9,8-2,11.9-3.3c-3.3-2.8-6.3-5.8-9.1-8.9C724.5,482.8,723.5,486.8,722.4,490.9z"/>
				<path fill="#00549C" d="M734.3,487.6c3.9-1.3,7.7-2.9,11.4-4.6c-3.6-2.4-6.9-5.1-10.1-7.8C735.4,479.3,735,483.4,734.3,487.6z"
					/>
				<path fill="#00549C" d="M745.8,483c3.7-1.7,7.3-3.7,10.8-5.8c-3.8-2-7.4-4.3-10.9-6.7C745.9,474.6,745.9,478.8,745.8,483z"/>
			</g>
			<path fill="#007C8A" d="M634.6,559.7c-5.2,1-10.4,2-15.6,2.8c4.5,3,9.1,6,13.8,8.8c5.3-1,10.5-2.1,15.7-3.4
				C643.7,565.2,639.1,562.5,634.6,559.7z"/>
			<path fill="#007C8A" d="M697.6,565.4c-4.9,2-9.9,3.8-15,5.5c4.9,2.2,9.9,4.2,15,6.2c5.1-2,10.1-4,15-6.2
				C707.6,569.2,702.6,567.4,697.6,565.4z"/>
			<path fill="#007C8A" d="M760.7,559.7c-4.5,2.8-9.2,5.5-13.9,8.2c5.2,1.2,10.4,2.4,15.7,3.4c4.7-2.8,9.3-5.8,13.8-8.8
				C771.1,561.6,765.9,560.7,760.7,559.7z"/>
			<path fill="#FFDAA4" d="M567.4,608.8c-0.1,0.9-0.3,1.8-0.4,2.8c85.8,20.8,175.4,20.8,261.3,0c-0.2-0.9-0.3-1.8-0.4-2.8
				C742.3,629.5,653,629.5,567.4,608.8z"/>
			<path fill="#FFDAA4" d="M830.1,621.3c-0.9,1.2-2.3,2.3-5,2.9c0,0,0,0,0,0c0,0,0,0-0.1,0c-3.9,0.9-5.7-0.3-7.5-1.5
				c-1.6-1.1-3.2-2.1-6-1.7c-0.1,0-0.1,0-0.2,0c0,0-0.1,0-0.1,0c0,0-0.1,0-0.1,0c-0.1,0-0.1,0-0.2,0.1c-2.8,0.7-3.8,2.3-4.8,3.9
				c-1.2,1.9-2.3,3.6-6.3,4.4c0,0,0,0-0.1,0c0,0,0,0-0.1,0c-4,0.7-5.6-0.5-7.4-1.8c-1.5-1.1-3.1-2.3-5.9-2c-0.1,0-0.1,0-0.2,0
				c0,0-0.1,0-0.1,0c0,0-0.1,0-0.1,0c-0.1,0-0.1,0-0.2,0.1c-2.8,0.6-3.9,2.2-5,3.7c-1.3,1.8-2.5,3.5-6.4,4.1c0,0,0,0-0.1,0
				c0,0,0,0-0.1,0c-4,0.5-5.6-0.8-7.3-2.2c-1.5-1.2-3-2.4-5.8-2.2c-0.1,0-0.1,0-0.2,0c0,0-0.1,0-0.1,0c0,0-0.1,0-0.1,0
				c-0.1,0-0.1,0-0.2,0c-2.8,0.4-4,2-5.1,3.5c-1.3,1.7-2.6,3.4-6.6,3.8c0,0,0,0,0,0c0,0,0,0-0.1,0c-4,0.4-5.5-1-7.2-2.5
				c-1.4-1.3-2.8-2.6-5.7-2.5c-0.1,0-0.1,0-0.2,0c0,0-0.1,0-0.1,0c0,0-0.1,0-0.1,0c-0.1,0-0.1,0-0.2,0c-2.8,0.3-4.1,1.8-5.3,3.2
				c-1.4,1.7-2.8,3.3-6.8,3.5c0,0,0,0-0.1,0c0,0,0,0,0,0c-4,0.2-5.5-1.3-7.1-2.8c-1.3-1.3-2.7-2.7-5.6-2.7c-0.1,0-0.1,0-0.2,0
				c0,0-0.1,0-0.1,0c0,0-0.1,0-0.1,0c-0.1,0-0.1,0-0.2,0c-2.8,0.2-4.2,1.6-5.4,3c-1.5,1.6-2.9,3.1-6.9,3.2c0,0,0,0-0.1,0
				c0,0,0,0-0.1,0c-4,0-5.4-1.5-6.9-3.2c-1.3-1.4-2.6-2.8-5.4-3c-0.1,0-0.1,0-0.2,0c0,0-0.1,0-0.1,0c0,0-0.1,0-0.1,0
				c-0.1,0-0.1,0-0.2,0c-2.8,0.1-4.2,1.4-5.6,2.7c-1.6,1.5-3.1,3-7.1,2.8c0,0,0,0-0.1,0c0,0,0,0-0.1,0c-4-0.2-5.4-1.8-6.8-3.5
				c-1.2-1.4-2.5-2.9-5.3-3.2c-0.1,0-0.1,0-0.2,0c0,0-0.1,0-0.1,0c0,0-0.1,0-0.1,0c-0.1,0-0.1,0-0.2,0c-2.8-0.1-4.3,1.2-5.7,2.5
				c-1.6,1.5-3.2,2.9-7.2,2.5c0,0,0,0-0.1,0c0,0,0,0-0.1,0c-4-0.4-5.3-2-6.6-3.8c-1.1-1.5-2.3-3-5.1-3.5c-0.1,0-0.1,0-0.2,0
				c0,0-0.1,0-0.1,0c0,0-0.1,0-0.1,0c-0.1,0-0.1,0-0.2,0c-2.8-0.2-4.3,1-5.8,2.2c-1.7,1.4-3.3,2.7-7.3,2.2c0,0,0,0-0.1,0
				c0,0,0,0,0,0c-4-0.5-5.2-2.3-6.4-4.1c-1.1-1.5-2.2-3.1-5-3.7c-0.1,0-0.1,0-0.2-0.1c0,0-0.1,0-0.1,0c0,0-0.1,0-0.1,0
				c-0.1,0-0.1,0-0.2,0c-2.8-0.3-4.4,0.8-5.9,2c-1.8,1.3-3.4,2.6-7.4,1.8c0,0,0,0-0.1,0c0,0,0,0,0,0c-4-0.7-5.1-2.5-6.3-4.4
				c-1-1.6-2.1-3.2-4.8-3.9c-0.1,0-0.1,0-0.2-0.1c0,0-0.1,0-0.1,0c0,0-0.1,0-0.1,0c-0.1,0-0.1,0-0.2,0c-2.8-0.5-4.4,0.6-6,1.7
				c-1.8,1.2-3.6,2.4-7.5,1.5c0,0,0,0-0.1,0c0,0,0,0,0,0c-2.8-0.6-4.1-1.7-5-3c-0.1,0.6-0.3,1.3-0.4,1.9c1.1,1,2.7,1.9,5.1,2.5
				c0,0,0,0,0.1,0c0,0,0,0,0,0c4.9,1.1,7.3-0.5,9.2-1.8c1.5-1,2.6-1.8,4.6-1.4c2,0.5,2.8,1.6,3.7,3.1c1.2,1.9,2.8,4.3,7.7,5.2
				c0,0,0,0,0.1,0c0,0,0,0,0,0c4.9,0.9,7.2-0.8,9-2.2c1.4-1.1,2.5-1.9,4.6-1.6c2,0.4,2.8,1.5,3.8,2.9c1.3,1.9,2.9,4.2,7.9,4.9
				c0,0,0,0,0.1,0c0,0,0,0,0.1,0c5,0.7,7.2-1.1,8.9-2.6c1.4-1.1,2.4-2,4.5-1.8c2.1,0.3,2.9,1.4,4,2.8c1.4,1.8,3.1,4.1,8.1,4.5
				c0,0,0,0,0.1,0c0,0,0,0,0.1,0c5,0.4,7.1-1.5,8.8-3c1.3-1.2,2.3-2.1,4.4-2c2.1,0.2,3,1.2,4.1,2.6c1.5,1.7,3.3,3.9,8.3,4.1
				c0,0,0,0,0.1,0c0,0,0,0,0.1,0c5,0.2,7-1.8,8.6-3.4c1.2-1.2,2.2-2.2,4.3-2.2c2.1,0.1,3,1.1,4.2,2.4c1.5,1.7,3.5,3.8,8.5,3.8
				c0,0,0,0,0.1,0c0,0,0,0,0.1,0c5,0,6.9-2.1,8.5-3.8c1.2-1.3,2.1-2.3,4.2-2.4c2.1,0,3.1,1,4.3,2.2c1.6,1.6,3.6,3.6,8.6,3.4
				c0,0,0,0,0.1,0c0,0,0,0,0,0c5-0.2,6.8-2.4,8.3-4.1c1.1-1.3,2-2.4,4.1-2.6c2.1-0.1,3.1,0.8,4.4,2c1.7,1.5,3.8,3.4,8.8,3
				c0,0,0,0,0,0c0,0,0,0,0.1,0c5-0.5,6.7-2.7,8.1-4.5c1.1-1.4,1.9-2.5,4-2.8c2.1-0.2,3.1,0.7,4.5,1.8c1.8,1.4,4,3.3,8.9,2.6
				c0,0,0,0,0,0c0,0,0,0,0.1,0c5-0.7,6.6-3,7.9-4.9c1-1.4,1.8-2.6,3.8-2.9c2.1-0.3,3.2,0.5,4.6,1.6c1.8,1.4,4.1,3.1,9,2.2
				c0,0,0,0,0,0c0,0,0,0,0.1,0c4.9-0.9,6.5-3.3,7.7-5.2c0.9-1.5,1.7-2.7,3.7-3.1c2-0.4,3.2,0.4,4.6,1.4c1.9,1.3,4.2,2.9,9.2,1.8
				c0,0,0,0,0,0c0,0,0,0,0.1,0c2.4-0.6,4-1.4,5.1-2.4C830.4,622.6,830.2,621.9,830.1,621.3z"/>
			<path fill="#FFDAA4" d="M834,636.7c-1,1.3-2.3,2.5-5.3,3.2c0,0,0,0,0,0c0,0,0,0-0.1,0c-4,0.9-5.8-0.2-7.7-1.5
				c-1.6-1.1-3.3-2.1-6.1-1.7c-0.1,0-0.1,0-0.2,0c0,0-0.1,0-0.1,0c0,0-0.1,0-0.1,0c-0.1,0-0.1,0-0.2,0.1c-2.8,0.7-3.9,2.4-5,4
				c-1.2,1.9-2.4,3.6-6.5,4.4c0,0,0,0-0.1,0c0,0,0,0-0.1,0c-4.1,0.7-5.8-0.5-7.6-1.8c-1.5-1.1-3.2-2.3-6.1-1.9c-0.1,0-0.1,0-0.2,0
				c0,0-0.1,0-0.1,0c0,0-0.1,0-0.1,0c-0.1,0-0.1,0-0.2,0.1c-2.9,0.6-4,2.2-5.1,3.7c-1.3,1.8-2.6,3.5-6.6,4.1c0,0,0,0-0.1,0
				c0,0,0,0-0.1,0c-4.1,0.6-5.7-0.8-7.5-2.2c-1.5-1.2-3-2.4-5.9-2.2c-0.1,0-0.1,0-0.2,0c0,0-0.1,0-0.1,0c0,0-0.1,0-0.1,0
				c-0.1,0-0.1,0-0.2,0c-2.9,0.5-4.1,2-5.3,3.5c-1.4,1.7-2.7,3.4-6.8,3.8c0,0,0,0-0.1,0c0,0,0,0-0.1,0c-4.1,0.4-5.7-1-7.4-2.5
				c-1.4-1.3-2.9-2.5-5.8-2.5c-0.1,0-0.1,0-0.2,0c0,0-0.1,0-0.1,0c0,0-0.1,0-0.1,0c-0.1,0-0.1,0-0.2,0c-2.9,0.3-4.2,1.8-5.4,3.2
				c-1.5,1.7-2.9,3.3-7,3.5c0,0,0,0-0.1,0c0,0,0,0-0.1,0c-4.1,0.2-5.6-1.3-7.3-2.8c-1.4-1.3-2.8-2.7-5.7-2.7c-0.1,0-0.1,0-0.2,0
				c0,0-0.1,0-0.1,0c0,0-0.1,0-0.1,0c-0.1,0-0.1,0-0.2,0c-2.9,0.2-4.3,1.6-5.6,3c-1.5,1.6-3,3.1-7.1,3.2c0,0,0,0-0.1,0
				c0,0,0,0-0.1,0c-4.1,0-5.6-1.5-7.1-3.2c-1.3-1.4-2.7-2.8-5.6-3c-0.1,0-0.1,0-0.2,0c0,0-0.1,0-0.1,0c0,0-0.1,0-0.1,0
				c-0.1,0-0.1,0-0.2,0c-2.9,0.1-4.3,1.4-5.7,2.7c-1.6,1.5-3.1,3-7.3,2.8c0,0,0,0-0.1,0c0,0,0,0-0.1,0c-4.1-0.2-5.5-1.8-7-3.5
				c-1.2-1.4-2.5-2.9-5.4-3.2c-0.1,0-0.1,0-0.2,0c0,0-0.1,0-0.1,0c0,0-0.1,0-0.1,0c-0.1,0-0.1,0-0.2,0c-2.9-0.1-4.4,1.2-5.8,2.5
				c-1.7,1.5-3.3,2.9-7.4,2.5c0,0,0,0-0.1,0c0,0,0,0-0.1,0c-4.1-0.4-5.4-2-6.8-3.8c-1.2-1.5-2.4-3-5.3-3.5c-0.1,0-0.1,0-0.2,0
				c0,0-0.1,0-0.1,0c0,0-0.1,0-0.1,0c-0.1,0-0.1,0-0.2,0c-2.9-0.2-4.5,1-6,2.2c-1.7,1.4-3.4,2.7-7.5,2.2c0,0,0,0-0.1,0
				c0,0,0,0-0.1,0c-4.1-0.6-5.3-2.3-6.6-4.1c-1.1-1.6-2.3-3.1-5.1-3.7c-0.1,0-0.1,0-0.2-0.1c0,0-0.1,0-0.1,0c0,0-0.1,0-0.1,0
				c-0.1,0-0.1,0-0.2,0c-2.9-0.3-4.5,0.8-6.1,1.9c-1.8,1.3-3.5,2.6-7.6,1.8c0,0,0,0-0.1,0c0,0,0,0,0,0c-4.1-0.7-5.2-2.5-6.5-4.4
				c-1.1-1.6-2.1-3.2-5-4c-0.1,0-0.1,0-0.2-0.1c0,0-0.1,0-0.1,0c0,0-0.1,0-0.1,0c-0.1,0-0.1,0-0.2,0c-2.9-0.5-4.5,0.6-6.1,1.7
				c-1.9,1.2-3.6,2.4-7.7,1.5c0,0,0,0-0.1,0c0,0,0,0-0.1,0c-3-0.7-4.4-1.9-5.3-3.2c-0.2,0.6-0.4,1.2-0.5,1.8
				c1.2,1.1,2.8,2.1,5.6,2.8c0,0,0,0,0.1,0c0,0,0,0,0.1,0c5,1.2,7.5-0.4,9.4-1.7c1.5-1,2.7-1.8,4.8-1.4c2.1,0.5,2.9,1.7,3.8,3.1
				c1.3,1.9,2.8,4.3,7.9,5.3c0,0,0,0,0.1,0c0,0,0,0,0.1,0c5.1,0.9,7.4-0.8,9.3-2.1c1.4-1.1,2.6-1.9,4.7-1.6c2.1,0.4,2.9,1.5,4,3
				c1.3,1.9,3,4.2,8.1,4.9c0,0,0,0,0.1,0c0,0,0,0,0.1,0c5.1,0.7,7.4-1.1,9.2-2.6c1.4-1.1,2.5-2,4.6-1.8c2.1,0.3,3,1.4,4.1,2.8
				c1.4,1.8,3.2,4.1,8.3,4.5c0,0,0,0,0.1,0c0,0,0,0,0.1,0c5.1,0.5,7.3-1.4,9-3c1.3-1.2,2.4-2.1,4.5-2c2.1,0.2,3,1.2,4.2,2.6
				c1.5,1.7,3.4,3.9,8.5,4.2c0,0,0,0,0.1,0c0,0,0,0,0.1,0c5.1,0.2,7.2-1.8,8.9-3.4c1.3-1.2,2.3-2.2,4.4-2.2c2.1,0.1,3.1,1.1,4.3,2.4
				c1.6,1.7,3.6,3.8,8.7,3.8c0,0,0,0,0.1,0c0,0,0,0,0.1,0c5.1,0,7.1-2.1,8.7-3.8c1.2-1.3,2.2-2.3,4.3-2.4c2.1,0,3.1,1,4.4,2.2
				c1.7,1.6,3.7,3.6,8.9,3.4c0,0,0,0,0.1,0c0,0,0,0,0.1,0c5.1-0.2,7-2.4,8.5-4.2c1.2-1.3,2.1-2.4,4.2-2.6c2.1-0.1,3.2,0.8,4.5,2
				c1.7,1.5,3.9,3.4,9,3c0,0,0,0,0.1,0c0,0,0,0,0.1,0c5.1-0.5,6.9-2.7,8.3-4.5c1.1-1.4,2-2.5,4.1-2.8c2.1-0.2,3.2,0.7,4.6,1.8
				c1.8,1.4,4.1,3.2,9.2,2.6c0,0,0,0,0.1,0c0,0,0,0,0.1,0c5.1-0.7,6.8-3.1,8.1-4.9c1-1.4,1.9-2.6,4-3c2.1-0.3,3.3,0.5,4.7,1.6
				c1.9,1.4,4.2,3.1,9.3,2.1c0,0,0,0,0,0c0,0,0,0,0.1,0c5.1-0.9,6.7-3.4,7.9-5.3c1-1.5,1.7-2.7,3.8-3.1c2.1-0.4,3.3,0.4,4.8,1.4
				c1.9,1.3,4.3,2.9,9.4,1.7c0,0,0,0,0,0c0,0,0,0,0.1,0c2.7-0.6,4.4-1.6,5.5-2.7C834.4,637.9,834.2,637.3,834,636.7z"/>
			<path fill="#FFDAA4" d="M558.5,645.4c-0.3,0.9-0.6,1.8-0.9,2.7c92,22.4,188.1,22.4,280.1,0c-0.3-0.9-0.6-1.8-0.9-2.7
				C745.3,667.6,649.9,667.6,558.5,645.4z"/>
			<path fill="#007C8A" d="M585.7,553.2c-1.7-1.4-3.3-2.8-5-4.2c-0.6,1.5-1.2,2.9-1.7,4.4C581.3,553.4,583.5,553.3,585.7,553.2z"/>
			<path fill="#007C8A" d="M814.5,549.1c-1.6,1.4-3.3,2.8-4.9,4.1c2.2,0.1,4.4,0.2,6.7,0.3C815.6,552,815.1,550.5,814.5,549.1z"/>
			<g>
				<path fill="#254043" d="M518.2,713.1c0,0-5.1,12,0,20.7C518.2,733.8,523.5,727.2,518.2,713.1z"/>
				<path fill="#254043" d="M528.1,716.6c0,0-5.1,12,0,20.7C528.1,737.4,533.4,730.7,528.1,716.6z"/>
				<path fill="#254043" d="M538,718.3c0,0-5.1,12,0,20.7C538,739,543.3,732.4,538,718.3z"/>
				<path fill="#254043" d="M548,718.3c0,0-5.1,12,0,20.7C548,739,553.2,732.4,548,718.3z"/>
				<path fill="#254043" d="M557.9,715c0,0-5.1,12,0,20.7C557.9,735.8,563.1,729.1,557.9,715z"/>
				<path fill="#254043" d="M567.8,711.3c0,0-5.1,12,0,20.7C567.8,732,573,725.3,567.8,711.3z"/>
				<path fill="#254043" d="M577.7,707.1c0,0-5.1,12,0,20.7C577.7,727.9,582.9,721.2,577.7,707.1z"/>
				<path fill="#254043" d="M587.6,702.7c0,0-5.1,12,0,20.7C587.6,723.5,592.8,716.8,587.6,702.7z"/>
				<path fill="#254043" d="M597.5,699.4c0,0-5.1,12,0,20.7C597.5,720.1,602.7,713.5,597.5,699.4z"/>
				<path fill="#254043" d="M607.4,698.3c0,0-5.1,12,0,20.7C607.4,719,612.6,712.3,607.4,698.3z"/>
				<path fill="#254043" d="M617.3,698.7c0,0-5.1,12,0,20.7C617.3,719.4,622.5,712.8,617.3,698.7z"/>
				<path fill="#254043" d="M627.2,701c0,0-5.1,12,0,20.7C627.2,721.7,632.4,715,627.2,701z"/>
				<path fill="#254043" d="M637.1,705.1c0,0-5.1,12,0,20.7C637.1,725.9,642.3,719.2,637.1,705.1z"/>
				<path fill="#254043" d="M647,710.5c0,0-5.1,12,0,20.7C647,731.3,652.3,724.6,647,710.5z"/>
				<path fill="#254043" d="M656.9,717.5c0,0-5.1,12,0,20.7C656.9,738.2,662.2,731.5,656.9,717.5z"/>
				<path fill="#254043" d="M666.8,724.3c0,0-5.1,12,0,20.7C666.8,745.1,672.1,738.4,666.8,724.3z"/>
				<path fill="#254043" d="M676.7,729.7c0,0-5.1,12,0,20.7C676.7,750.4,682,743.8,676.7,729.7z"/>
				<path fill="#254043" d="M686.6,733.8c0,0-5.1,12,0,20.7C686.6,754.6,691.9,747.9,686.6,733.8z"/>
			</g>
			<g>
				<path fill="#254043" d="M877.3,713.1c0,0,5.1,12,0,20.7C877.3,733.8,872,727.2,877.3,713.1z"/>
				<path fill="#254043" d="M867.4,716.6c0,0,5.1,12,0,20.7C867.4,737.4,862.1,730.7,867.4,716.6z"/>
				<path fill="#254043" d="M857.5,718.3c0,0,5.1,12,0,20.7C857.5,739,852.2,732.4,857.5,718.3z"/>
				<path fill="#254043" d="M847.6,718.3c0,0,5.1,12,0,20.7C847.6,739,842.3,732.4,847.6,718.3z"/>
				<path fill="#254043" d="M837.7,715c0,0,5.1,12,0,20.7C837.7,735.8,832.4,729.1,837.7,715z"/>
				<path fill="#254043" d="M827.7,711.3c0,0,5.1,12,0,20.7C827.7,732,822.5,725.3,827.7,711.3z"/>
				<path fill="#254043" d="M817.8,707.1c0,0,5.1,12,0,20.7C817.8,727.9,812.6,721.2,817.8,707.1z"/>
				<path fill="#254043" d="M807.9,702.7c0,0,5.1,12,0,20.7C807.9,723.5,802.7,716.8,807.9,702.7z"/>
				<path fill="#254043" d="M798,699.4c0,0,5.1,12,0,20.7C798,720.1,792.8,713.5,798,699.4z"/>
				<path fill="#254043" d="M788.1,698.3c0,0,5.1,12,0,20.7C788.1,719,782.9,712.3,788.1,698.3z"/>
				<path fill="#254043" d="M778.2,698.7c0,0,5.1,12,0,20.7C778.2,719.4,773,712.8,778.2,698.7z"/>
				<path fill="#254043" d="M768.3,701c0,0,5.1,12,0,20.7C768.3,721.7,763.1,715,768.3,701z"/>
				<path fill="#254043" d="M758.4,705.1c0,0,5.1,12,0,20.7C758.4,725.9,753.2,719.2,758.4,705.1z"/>
				<path fill="#254043" d="M748.5,710.5c0,0,5.1,12,0,20.7C748.5,731.3,743.3,724.6,748.5,710.5z"/>
				<path fill="#254043" d="M738.6,717.5c0,0,5.1,12,0,20.7C738.6,738.2,733.4,731.5,738.6,717.5z"/>
				<path fill="#254043" d="M728.7,724.3c0,0,5.1,12,0,20.7C728.7,745.1,723.5,738.4,728.7,724.3z"/>
				<path fill="#254043" d="M718.8,729.7c0,0,5.1,12,0,20.7C718.8,750.4,713.5,743.8,718.8,729.7z"/>
				<path fill="#254043" d="M708.9,733.8c0,0,5.1,12,0,20.7C708.9,754.6,703.6,747.9,708.9,733.8z"/>
			</g>
			<path fill="#254043" d="M697.6,736.1c0,0-6.5,11.7,0,27.2C697.6,763.3,702.9,752.4,697.6,736.1z"/>
		</g>
		<g>
			<path fill="#254043" d="M908.7,456.5l-9.7-42.8l3.6-0.8l-3.7-16.4l-31.3,7.1l3.7,16.4l3.6-0.8l9.7,42.8
				c-20,8.3-30.2,24.7-24.9,48.1c4.2,18.8,24.2,107.3,24.2,107.3s30.7-6.9,46.1-10.4c15.4-3.5,46.1-10.4,46.1-10.4
				s-20-88.5-24.2-107.3C946.6,465.9,930.3,455.4,908.7,456.5z"/>
			<path fill="#007C8A" d="M908.8,513.1c-15.4,3.5-30.2,4.2-42.7,2.7l21.3,94.5l82.5-18.6l-21.3-94.5
				C937.9,503.9,924.2,509.6,908.8,513.1z"/>
			<g>
				
					<rect x="887.9" y="530.7" transform="matrix(0.9754 -0.2203 0.2203 0.9754 -98.0729 215.3265)" fill="#FFC20E" width="57.4" height="33.4"/>
				<g>
					<path fill="#D02332" d="M899.1,553l-1.2-5.4l-1.9,0.4l-0.2-1.1l5.2-1.2l0.2,1.1l-1.9,0.4l1.2,5.4L899.1,553z"/>
					<path fill="#D02332" d="M903.2,552.1l-1.5-6.5l4.8-1.1l0.2,1.1l-3.5,0.8l0.3,1.4l3.3-0.7l0.2,1.1l-3.3,0.7l0.4,1.8l3.6-0.8
						l0.2,1.1L903.2,552.1z"/>
					<path fill="#D02332" d="M914.2,548.7c0.4,0.2,0.8,0.3,1.2,0.3l-0.3,1c-0.2,0-0.4-0.1-0.6-0.1c0,0-0.4-0.1-1-0.4
						c-0.4,0.3-0.8,0.5-1.3,0.6c-1,0.2-1.8,0.1-2.5-0.4c-0.7-0.5-1.2-1.2-1.4-2.3c-0.2-1.1-0.1-1.9,0.3-2.7c0.4-0.7,1.1-1.2,2.1-1.4
						c1-0.2,1.8-0.1,2.5,0.4c0.7,0.5,1.2,1.2,1.4,2.3c0.1,0.6,0.2,1.1,0.1,1.5C914.5,548,914.4,548.3,914.2,548.7z M913,548.2
						c0.1-0.2,0.2-0.5,0.2-0.8c0-0.3,0-0.6-0.1-1c-0.2-0.7-0.5-1.3-0.9-1.6c-0.4-0.3-0.9-0.4-1.4-0.3c-0.5,0.1-0.9,0.4-1.2,0.8
						c-0.2,0.4-0.3,1-0.1,1.8c0.2,0.8,0.5,1.3,0.9,1.6c0.4,0.3,0.9,0.4,1.4,0.3c0.2,0,0.4-0.1,0.5-0.2c-0.3-0.1-0.6-0.2-0.9-0.2
						l0.2-0.8C912.1,547.9,912.5,548,913,548.2z"/>
					<path fill="#D02332" d="M914.8,542.6l1.3-0.3l0.8,3.5c0.1,0.6,0.2,0.9,0.3,1.1c0.1,0.3,0.3,0.4,0.5,0.5c0.2,0.1,0.6,0.1,0.9,0
						c0.4-0.1,0.6-0.2,0.8-0.4c0.2-0.2,0.2-0.4,0.2-0.6c0-0.2-0.1-0.6-0.2-1.1l-0.8-3.6l1.3-0.3l0.8,3.4c0.2,0.8,0.3,1.3,0.3,1.7
						c0,0.3-0.1,0.6-0.2,0.9c-0.1,0.3-0.4,0.5-0.6,0.7c-0.3,0.2-0.7,0.4-1.2,0.5c-0.6,0.1-1.1,0.2-1.5,0.1c-0.4-0.1-0.6-0.2-0.9-0.4
						c-0.2-0.2-0.4-0.4-0.5-0.6c-0.2-0.4-0.3-0.9-0.5-1.6L914.8,542.6z"/>
					<path fill="#D02332" d="M922.7,547.6l-1.5-6.5l1.3-0.3l1.5,6.5L922.7,547.6z"/>
					<path fill="#D02332" d="M925.3,547.1l-1.5-6.4l1.3-0.3l1.2,5.3l3.3-0.7l0.2,1.1L925.3,547.1z"/>
					<path fill="#D02332" d="M936.7,544.5l-1.4,0.3l-0.9-1.3l-2.6,0.6l-0.2,1.6l-1.4,0.3l1.1-7.1l1.4-0.3L936.7,544.5z M933.7,542.5
						l-1.4-2.2l-0.3,2.6L933.7,542.5z"/>
				</g>
			</g>
			
				<rect x="872.1" y="399.9" transform="matrix(0.9754 -0.2202 0.2202 0.9754 -67.2879 204.6687)" fill="#00549C" width="24.2" height="8.4"/>
			
				<rect x="870.2" y="391.2" transform="matrix(0.9754 -0.2202 0.2202 0.9754 -65.467 204.021)" fill="#007C8A" width="24.2" height="8.9"/>
		</g>
		<g>
			<path fill="#254043" d="M1086.4,550l14.8-19.7l1.7,1.3l5.7-7.6l-14.4-10.9l-5.7,7.6l1.7,1.3l-14.8,19.7
				c-10.8-5.6-21.6-3.9-29.7,6.8c-6.5,8.6-37.2,49.3-37.2,49.3s14.1,10.6,21.2,16c7.1,5.3,21.2,16,21.2,16s30.7-40.7,37.2-49.3
				C1096.2,569.6,1094.8,558.9,1086.4,550z"/>
			<path fill="#007C8A" d="M1062.2,570.6c-7.1-5.3-12.8-11.4-16.7-17.4l-32.8,43.5l37.9,28.6l32.8-43.5
				C1076.7,579.7,1069.3,575.9,1062.2,570.6z"/>
			<g>
				
					<rect x="1040.9" y="570.3" transform="matrix(0.6021 -0.7984 0.7984 0.6021 -50.2577 1071.9318)" fill="#FFC20E" width="18.8" height="32.2"/>
				<g>
					<path fill="#D02332" d="M1041.6,580.9l1.9-2.5l-0.9-0.7l0.4-0.5l2.4,1.8l-0.4,0.5l-0.9-0.7l-1.9,2.5L1041.6,580.9z"/>
					<path fill="#D02332" d="M1043.5,582.3l2.2-3l2.2,1.7l-0.4,0.5l-1.6-1.2l-0.5,0.7l1.5,1.1l-0.4,0.5l-1.5-1.1l-0.6,0.8l1.7,1.3
						l-0.4,0.5L1043.5,582.3z"/>
					<path fill="#D02332" d="M1048.9,585.8c0.1,0.2,0.2,0.4,0.3,0.6l-0.5,0.3c-0.1-0.1-0.1-0.2-0.2-0.3c0,0-0.1-0.2-0.2-0.6
						c-0.3-0.1-0.5-0.2-0.7-0.4c-0.5-0.3-0.7-0.8-0.8-1.2c-0.1-0.5,0.1-0.9,0.5-1.4c0.4-0.5,0.8-0.8,1.2-0.8
						c0.5-0.1,0.9,0.1,1.4,0.4c0.4,0.3,0.7,0.7,0.7,1.2c0.1,0.5-0.1,0.9-0.5,1.4c-0.2,0.3-0.4,0.5-0.6,0.6
						C1049.4,585.7,1049.2,585.8,1048.9,585.8z M1048.7,585.1c0.1,0,0.3-0.1,0.4-0.2c0.1-0.1,0.3-0.2,0.4-0.4
						c0.3-0.3,0.4-0.7,0.4-0.9c0-0.3-0.2-0.5-0.4-0.7c-0.2-0.2-0.5-0.2-0.8-0.2c-0.3,0.1-0.6,0.3-0.8,0.6c-0.3,0.3-0.4,0.7-0.4,1
						c0,0.3,0.1,0.5,0.4,0.7c0.1,0.1,0.2,0.1,0.3,0.1c-0.1-0.2-0.1-0.3-0.2-0.5l0.4-0.2C1048.5,584.6,1048.6,584.9,1048.7,585.1z"/>
					<path fill="#D02332" d="M1051.7,583.9l0.6,0.5l-1.2,1.6c-0.2,0.3-0.3,0.4-0.4,0.5c-0.1,0.1-0.1,0.3,0,0.4
						c0,0.1,0.1,0.3,0.3,0.4c0.2,0.1,0.3,0.2,0.5,0.2c0.1,0,0.3-0.1,0.3-0.1c0.1-0.1,0.2-0.2,0.4-0.5l1.2-1.6l0.6,0.5l-1.2,1.6
						c-0.3,0.4-0.5,0.6-0.6,0.7c-0.1,0.1-0.3,0.2-0.5,0.2c-0.2,0-0.3,0-0.5,0c-0.2-0.1-0.4-0.2-0.6-0.3c-0.3-0.2-0.5-0.4-0.6-0.6
						c-0.1-0.2-0.2-0.4-0.2-0.5c0-0.2,0-0.3,0.1-0.5c0.1-0.2,0.3-0.5,0.5-0.8L1051.7,583.9z"/>
					<path fill="#D02332" d="M1052.5,589.1l2.2-3l0.6,0.5l-2.2,3L1052.5,589.1z"/>
					<path fill="#D02332" d="M1053.7,590l2.2-3l0.6,0.5l-1.8,2.5l1.5,1.1l-0.4,0.5L1053.7,590z"/>
					<path fill="#D02332" d="M1058.9,593.9l-0.7-0.5l0.3-0.9l-1.2-0.9l-0.8,0.5l-0.6-0.5l3.4-2.1l0.6,0.5L1058.9,593.9z
						 M1058.7,591.9l0.4-1.4l-1.2,0.8L1058.7,591.9z"/>
				</g>
			</g>
			
				<rect x="1097.7" y="513.7" transform="matrix(0.6021 -0.7984 0.7984 0.6021 22.1644 1085.4067)" fill="#00549C" width="4.7" height="13.6"/>
			
				<rect x="1100.4" y="509.8" transform="matrix(0.602 -0.7985 0.7985 0.602 26.489 1086.2959)" fill="#007C8A" width="5" height="13.6"/>
		</g>
		<g>
			<path fill="#FFC20E" d="M694.5,465.3c28.7,0,29.4-12.3,29.5-12.9V445c0-7-2.8-12.7-6.4-12.7c-3.5,0-6.4,5.7-6.4,12.7h-2.7
				c0-7-2.8-12.7-6.4-12.7c-3.5,0-6.4,5.7-6.4,12.7h-2.7c0-7-2.8-12.7-6.4-12.7c-3.5,0-6.4,5.7-6.4,12.7h-2.7c0-7-2.8-12.7-6.4-12.7
				c-3.5,0-6.4,5.7-6.4,12.7v7.3C665,452.4,665,465.3,694.5,465.3z"/>
			<path fill="#FFC20E" d="M764.5,346.2c0-38.7-31.4-70-70-70c-38.7,0-70,31.4-70,70c0,21.1,9.4,40.1,24.2,52.9l0,0
				c0,0,0.1,0.1,0.1,0.1c0.5,0.5,1.1,0.9,1.6,1.4c4,3.5,10.2,9.7,10.2,15.5c0,8.1,3.3,14.6,7.3,14.6c4,0,7.3-6.5,7.3-14.6h3.1
				c0,8.1,3.3,14.6,7.3,14.6c4,0,7.3-6.5,7.3-14.5c0.5,0,1,0,1.5,0c0.5,0,1,0,1.5,0c0,8,3.3,14.5,7.3,14.5c4,0,7.3-6.5,7.3-14.6h3.1
				c0,8.1,3.3,14.6,7.3,14.6c4,0,7.3-6.5,7.3-14.6v0l0.1,0c0-6.8,8.3-14,12-17l-0.1,0C755.1,386.3,764.5,367.3,764.5,346.2z"/>
			<path fill="#254043" d="M694.5,376.3c-19.2,15-8.4,26.8,0,20.9C702.8,403.2,713.6,391.3,694.5,376.3z"/>
			<path fill="#D02332" d="M689.1,365c-7-0.6-7,4.1-4.1,4.4C685.6,372.3,690.2,371.9,689.1,365z"/>
			<path fill="#007C8A" d="M683.2,371c-6.5-2.7-7.9,1.7-5.3,3C677.7,376.9,682.2,377.9,683.2,371z"/>
			<path fill="#D02332" d="M675.7,375.1c-5.8-3.9-8.1,0.1-5.7,1.9C669.1,379.8,673.3,381.7,675.7,375.1z"/>
			<path fill="#007C8A" d="M667.6,377.4c-3.5-4.7-6.4-2.2-5.1-0.1C661.1,379.3,663.9,381.9,667.6,377.4z"/>
			<path fill="#D02332" d="M660.2,377.1c-2.3-4.7-5.3-3-4.4-0.9C654.2,377.6,656.2,380.5,660.2,377.1z"/>
			<path fill="#007C8A" d="M653.1,375.1c-1-4.4-3.9-3.5-3.5-1.6C648,374.4,649.1,377.1,653.1,375.1z"/>
			<path fill="#D02332" d="M647,371.7c0.1-3.5-2.2-3.4-2.3-1.9C643.3,370.2,643.6,372.5,647,371.7z"/>
			<circle fill="#254043" cx="664.7" cy="346.6" r="21.8"/>
			<g>
				<path fill="#1D1D1B" d="M664.7,372.1c-0.2,0-0.3,0-0.5,0c-0.4,0-0.7-0.3-0.7-0.7c0-0.4,0.3-0.7,0.7-0.7c0.2,0,0.3,0,0.5,0l0.2,0
					c0.4,0,0.7,0.3,0.7,0.7c0,0.4-0.3,0.7-0.7,0.7L664.7,372.1z M669,371.7c-0.3,0-0.6-0.2-0.7-0.6c-0.1-0.4,0.2-0.7,0.6-0.8
					c0.2,0,0.4-0.1,0.7-0.1c0.4-0.1,0.7,0.2,0.8,0.5c0.1,0.4-0.2,0.7-0.5,0.8c-0.2,0-0.5,0.1-0.7,0.1
					C669.1,371.7,669.1,371.7,669,371.7z M660.1,371.6c0,0-0.1,0-0.1,0c-0.2,0-0.5-0.1-0.7-0.1c-0.4-0.1-0.6-0.5-0.5-0.8
					c0.1-0.4,0.5-0.6,0.8-0.5c0.2,0,0.4,0.1,0.7,0.1c0.4,0.1,0.6,0.4,0.6,0.8C660.7,371.4,660.4,371.6,660.1,371.6z M673.7,370.4
					c-0.3,0-0.5-0.2-0.6-0.4c-0.1-0.4,0-0.8,0.4-0.9c0.2-0.1,0.4-0.2,0.6-0.3c0.4-0.1,0.8,0,0.9,0.4c0.1,0.4,0,0.8-0.4,0.9
					c-0.2,0.1-0.4,0.2-0.7,0.3C673.9,370.4,673.8,370.4,673.7,370.4z M655.4,370.3c-0.1,0-0.2,0-0.3-0.1c-0.2-0.1-0.4-0.2-0.7-0.3
					c-0.4-0.2-0.5-0.6-0.4-0.9c0.2-0.4,0.6-0.5,0.9-0.4c0.2,0.1,0.4,0.2,0.6,0.3c0.4,0.1,0.5,0.5,0.4,0.9
					C656,370.1,655.7,370.3,655.4,370.3z M678,368.2c-0.2,0-0.5-0.1-0.6-0.3c-0.2-0.3-0.1-0.8,0.2-1c0.2-0.1,0.4-0.2,0.6-0.4
					c0.3-0.2,0.8-0.1,1,0.2c0.2,0.3,0.1,0.8-0.2,1c-0.2,0.1-0.4,0.3-0.6,0.4C678.3,368.2,678.1,368.2,678,368.2z M651.2,368
					c-0.1,0-0.3,0-0.4-0.1c-0.2-0.1-0.4-0.3-0.6-0.4c-0.3-0.2-0.4-0.7-0.2-1c0.2-0.3,0.7-0.4,1-0.2c0.2,0.1,0.4,0.3,0.6,0.4
					c0.3,0.2,0.4,0.6,0.2,1C651.6,367.9,651.4,368,651.2,368z M681.8,365.2c-0.2,0-0.4-0.1-0.5-0.2c-0.3-0.3-0.3-0.7,0-1
					c0.2-0.2,0.3-0.3,0.5-0.5c0.3-0.3,0.7-0.3,1,0c0.3,0.3,0.3,0.7,0,1c-0.2,0.2-0.3,0.3-0.5,0.5C682.1,365.2,682,365.2,681.8,365.2
					z M647.4,365c-0.2,0-0.4-0.1-0.5-0.2c-0.2-0.2-0.3-0.3-0.5-0.5c-0.3-0.3-0.3-0.7,0-1c0.3-0.3,0.7-0.3,1,0
					c0.2,0.2,0.3,0.3,0.5,0.5c0.3,0.3,0.3,0.7,0,1C647.7,364.9,647.6,365,647.4,365z M685,361.6c-0.1,0-0.3,0-0.4-0.1
					c-0.3-0.2-0.4-0.7-0.2-1c0.1-0.2,0.3-0.4,0.4-0.6c0.2-0.3,0.6-0.4,1-0.2c0.3,0.2,0.4,0.6,0.2,1c-0.1,0.2-0.3,0.4-0.4,0.6
					C685.4,361.5,685.2,361.6,685,361.6z M644.3,361.3c-0.2,0-0.4-0.1-0.6-0.3c-0.1-0.2-0.3-0.4-0.4-0.6c-0.2-0.3-0.1-0.8,0.2-1
					c0.3-0.2,0.8-0.1,1,0.2c0.1,0.2,0.2,0.4,0.4,0.6c0.2,0.3,0.1,0.8-0.2,1C644.5,361.2,644.4,361.3,644.3,361.3z M687.4,357.4
					c-0.1,0-0.2,0-0.3-0.1c-0.4-0.2-0.5-0.6-0.4-0.9c0.1-0.2,0.2-0.4,0.3-0.6c0.1-0.4,0.6-0.5,0.9-0.4c0.4,0.1,0.5,0.6,0.4,0.9
					c-0.1,0.2-0.2,0.4-0.3,0.7C687.9,357.2,687.6,357.4,687.4,357.4z M641.9,357.1c-0.3,0-0.5-0.2-0.6-0.4c-0.1-0.2-0.2-0.4-0.3-0.7
					c-0.1-0.4,0-0.8,0.4-0.9c0.4-0.1,0.8,0,0.9,0.4c0.1,0.2,0.2,0.4,0.3,0.6c0.2,0.4,0,0.8-0.4,0.9C642.1,357,642,357.1,641.9,357.1
					z M688.9,352.8c-0.1,0-0.1,0-0.2,0c-0.4-0.1-0.6-0.5-0.5-0.8c0-0.2,0.1-0.4,0.1-0.7c0.1-0.4,0.4-0.6,0.8-0.5
					c0.4,0.1,0.6,0.4,0.5,0.8c0,0.2-0.1,0.5-0.1,0.7C689.5,352.5,689.2,352.8,688.9,352.8z M640.5,352.5c-0.3,0-0.6-0.2-0.7-0.6
					c0-0.2-0.1-0.5-0.1-0.7c-0.1-0.4,0.2-0.7,0.6-0.8c0.4-0.1,0.7,0.2,0.8,0.6c0,0.2,0.1,0.4,0.1,0.7c0.1,0.4-0.2,0.7-0.5,0.8
					C640.6,352.4,640.5,352.5,640.5,352.5z M689.5,348C689.5,348,689.5,348,689.5,348c-0.4,0-0.7-0.3-0.7-0.7c0-0.2,0-0.4,0-0.7
					c0,0,0,0,0,0c0,0,0,0,0,0c0-0.2,0-0.4,0-0.7c0-0.4,0.3-0.7,0.7-0.7c0.4,0,0.7,0.3,0.7,0.7c0,0.2,0,0.5,0,0.7c0,0,0,0,0,0
					c0,0,0,0,0,0c0,0.2,0,0.5,0,0.7C690.2,347.7,689.9,348,689.5,348z M639.9,347.6c-0.4,0-0.7-0.3-0.7-0.7l0-0.4l0-0.3
					c0-0.4,0.3-0.7,0.7-0.7c0.4,0,0.7,0.3,0.7,0.7l0,0.3l0,0.4C640.6,347.3,640.3,347.6,639.9,347.6
					C639.9,347.6,639.9,347.6,639.9,347.6z M640.3,342.8c0,0-0.1,0-0.1,0c-0.4-0.1-0.6-0.4-0.6-0.8c0-0.2,0.1-0.5,0.1-0.7
					c0.1-0.4,0.4-0.6,0.8-0.5c0.4,0.1,0.6,0.4,0.5,0.8c0,0.2-0.1,0.4-0.1,0.7C641,342.6,640.7,342.8,640.3,342.8z M689,342.4
					c-0.3,0-0.6-0.2-0.7-0.6c0-0.2-0.1-0.4-0.1-0.7c-0.1-0.4,0.1-0.7,0.5-0.8c0.4-0.1,0.7,0.1,0.8,0.5c0.1,0.2,0.1,0.5,0.1,0.7
					c0.1,0.4-0.2,0.7-0.5,0.8C689.1,342.4,689.1,342.4,689,342.4z M641.7,338.2c-0.1,0-0.2,0-0.3,0c-0.4-0.1-0.5-0.5-0.4-0.9
					c0.1-0.2,0.2-0.4,0.3-0.7c0.2-0.4,0.6-0.5,0.9-0.4c0.4,0.2,0.5,0.6,0.4,0.9c-0.1,0.2-0.2,0.4-0.3,0.6
					C642.2,338,641.9,338.2,641.7,338.2z M687.6,337.8c-0.3,0-0.5-0.2-0.6-0.4c-0.1-0.2-0.2-0.4-0.3-0.6c-0.2-0.4,0-0.8,0.4-0.9
					c0.4-0.2,0.8,0,0.9,0.4c0.1,0.2,0.2,0.4,0.3,0.7c0.1,0.4,0,0.8-0.4,0.9C687.8,337.8,687.7,337.8,687.6,337.8z M643.9,333.9
					c-0.1,0-0.3,0-0.4-0.1c-0.3-0.2-0.4-0.6-0.2-1c0.1-0.2,0.3-0.4,0.4-0.6c0.2-0.3,0.6-0.4,1-0.2c0.3,0.2,0.4,0.7,0.2,1
					c-0.1,0.2-0.3,0.4-0.4,0.6C644.3,333.8,644.1,333.9,643.9,333.9z M685.3,333.5c-0.2,0-0.4-0.1-0.6-0.3c-0.1-0.2-0.3-0.4-0.4-0.6
					c-0.2-0.3-0.1-0.7,0.2-1c0.3-0.2,0.7-0.1,1,0.2c0.1,0.2,0.3,0.4,0.4,0.6c0.2,0.3,0.1,0.8-0.2,1
					C685.6,333.5,685.5,333.5,685.3,333.5z M646.9,330.1c-0.2,0-0.3-0.1-0.5-0.2c-0.3-0.3-0.3-0.7,0-1c0.2-0.2,0.3-0.3,0.5-0.5
					c0.3-0.3,0.7-0.3,1,0c0.3,0.3,0.3,0.7,0,1c-0.2,0.2-0.3,0.3-0.5,0.5C647.2,330,647,330.1,646.9,330.1z M682.3,329.8
					c-0.2,0-0.4-0.1-0.5-0.2c-0.2-0.2-0.3-0.3-0.5-0.5c-0.3-0.3-0.3-0.7,0-1c0.3-0.3,0.7-0.3,1,0c0.2,0.2,0.3,0.3,0.5,0.5
					c0.3,0.3,0.3,0.7,0,1C682.6,329.7,682.4,329.8,682.3,329.8z M650.5,326.9c-0.2,0-0.4-0.1-0.6-0.3c-0.2-0.3-0.1-0.7,0.2-1
					c0.2-0.1,0.4-0.3,0.6-0.4c0.3-0.2,0.8-0.1,1,0.2c0.2,0.3,0.1,0.8-0.2,1c-0.2,0.1-0.4,0.2-0.6,0.4
					C650.8,326.9,650.7,326.9,650.5,326.9z M678.5,326.7c-0.1,0-0.3,0-0.4-0.1c-0.2-0.1-0.4-0.2-0.6-0.4c-0.3-0.2-0.4-0.6-0.2-1
					c0.2-0.3,0.6-0.4,1-0.2c0.2,0.1,0.4,0.3,0.6,0.4c0.3,0.2,0.4,0.6,0.2,1C679,326.6,678.8,326.7,678.5,326.7z M654.8,324.6
					c-0.3,0-0.5-0.2-0.6-0.4c-0.2-0.4,0-0.8,0.4-0.9c0.2-0.1,0.4-0.2,0.7-0.3c0.4-0.1,0.8,0,0.9,0.4c0.1,0.4,0,0.8-0.4,0.9
					c-0.2,0.1-0.4,0.2-0.6,0.3C654.9,324.6,654.9,324.6,654.8,324.6z M674.3,324.4c-0.1,0-0.2,0-0.3-0.1c-0.2-0.1-0.4-0.2-0.6-0.3
					c-0.4-0.1-0.5-0.5-0.4-0.9c0.1-0.4,0.5-0.5,0.9-0.4c0.2,0.1,0.4,0.2,0.7,0.3c0.4,0.1,0.5,0.6,0.4,0.9
					C674.8,324.2,674.6,324.4,674.3,324.4z M659.4,323.1c-0.3,0-0.6-0.2-0.7-0.5c-0.1-0.4,0.2-0.7,0.5-0.8c0.2-0.1,0.5-0.1,0.7-0.1
					c0.4-0.1,0.7,0.2,0.8,0.6c0.1,0.4-0.2,0.7-0.6,0.8c-0.2,0-0.4,0.1-0.7,0.1C659.5,323.1,659.4,323.1,659.4,323.1z M669.7,323
					c0,0-0.1,0-0.1,0c-0.2,0-0.4-0.1-0.7-0.1c-0.4-0.1-0.6-0.4-0.6-0.8c0.1-0.4,0.4-0.6,0.8-0.6c0.2,0,0.5,0.1,0.7,0.1
					c0.4,0.1,0.6,0.4,0.5,0.8C670.3,322.8,670,323,669.7,323z M664.2,322.5c-0.4,0-0.7-0.3-0.7-0.7c0-0.4,0.3-0.7,0.7-0.7
					c0.2,0,0.4,0,0.6,0l0.1,0c0.4,0,0.7,0.3,0.7,0.7c0,0.4-0.3,0.7-0.7,0.7c0,0,0,0,0,0l-0.1,0C664.5,322.5,664.3,322.5,664.2,322.5
					C664.2,322.5,664.2,322.5,664.2,322.5z"/>
			</g>
			<path fill="#D02332" d="M699.9,365c7-0.6,7,4.1,4.1,4.4C703.3,372.3,698.7,371.9,699.9,365z"/>
			<path fill="#007C8A" d="M705.7,371c6.5-2.7,7.9,1.7,5.3,3C711.3,376.9,706.7,377.9,705.7,371z"/>
			<path fill="#D02332" d="M713.2,375.1c5.8-3.9,8.1,0.1,5.7,1.9C719.8,379.8,715.6,381.7,713.2,375.1z"/>
			<path fill="#007C8A" d="M721.3,377.4c3.5-4.7,6.4-2.2,5.1-0.1C727.8,379.3,725,381.9,721.3,377.4z"/>
			<path fill="#D02332" d="M728.7,377.1c2.3-4.7,5.3-3,4.4-0.9C734.8,377.6,732.7,380.5,728.7,377.1z"/>
			<path fill="#007C8A" d="M735.8,375.1c1-4.4,3.9-3.5,3.5-1.6C741,374.4,739.8,377.1,735.8,375.1z"/>
			<path fill="#D02332" d="M741.9,371.7c-0.1-3.5,2.2-3.4,2.3-1.9C745.7,370.2,745.3,372.5,741.9,371.7z"/>
			<circle fill="#254043" cx="724.2" cy="346.6" r="21.8"/>
			<g>
				<path fill="#1D1D1B" d="M724,372.1c-0.4,0-0.7-0.3-0.7-0.7c0-0.4,0.3-0.7,0.7-0.7l0.2,0c0.2,0,0.3,0,0.5,0
					c0.4,0,0.7,0.3,0.7,0.7c0,0.4-0.3,0.7-0.7,0.7c-0.2,0-0.3,0-0.5,0L724,372.1z M719.8,371.7c-0.2,0-0.5-0.1-0.7-0.1
					c-0.4-0.1-0.6-0.4-0.5-0.8c0.1-0.4,0.4-0.6,0.8-0.5c0.2,0,0.4,0.1,0.7,0.1c0.4,0.1,0.6,0.4,0.6,0.8c-0.1,0.3-0.4,0.6-0.7,0.6
					C719.9,371.7,719.8,371.7,719.8,371.7z M728.2,371.1c-0.1-0.4,0.2-0.7,0.6-0.8c0.2,0,0.4-0.1,0.7-0.1c0.4-0.1,0.7,0.2,0.8,0.5
					c0.1,0.4-0.2,0.7-0.5,0.8c-0.2,0.1-0.5,0.1-0.7,0.1c0,0-0.1,0-0.1,0C728.5,371.6,728.2,371.4,728.2,371.1z M715,370.3
					c-0.2-0.1-0.4-0.2-0.7-0.3c-0.4-0.1-0.5-0.6-0.4-0.9c0.1-0.4,0.6-0.5,0.9-0.4c0.2,0.1,0.4,0.2,0.6,0.3c0.4,0.1,0.5,0.5,0.4,0.9
					c-0.1,0.3-0.4,0.4-0.7,0.4C715.2,370.4,715.1,370.4,715,370.3z M732.8,369.8c-0.1-0.4,0-0.8,0.4-0.9c0.2-0.1,0.4-0.2,0.6-0.3
					c0.4-0.2,0.8,0,0.9,0.4c0.2,0.4,0,0.8-0.4,0.9c-0.2,0.1-0.4,0.2-0.7,0.3c-0.1,0-0.2,0.1-0.3,0.1
					C733.2,370.3,732.9,370.1,732.8,369.8z M710.6,368.1c-0.2-0.1-0.4-0.3-0.6-0.4c-0.3-0.2-0.4-0.6-0.2-1c0.2-0.3,0.6-0.4,1-0.2
					c0.2,0.1,0.4,0.2,0.6,0.4c0.3,0.2,0.4,0.6,0.2,1c-0.1,0.2-0.4,0.3-0.6,0.3C710.8,368.2,710.7,368.2,710.6,368.1z M737.2,367.7
					c-0.2-0.3-0.1-0.8,0.2-1c0.2-0.1,0.4-0.2,0.6-0.4c0.3-0.2,0.7-0.1,1,0.2c0.2,0.3,0.1,0.8-0.2,1c-0.2,0.1-0.4,0.3-0.6,0.4
					c-0.1,0.1-0.2,0.1-0.4,0.1C737.5,368,737.3,367.9,737.2,367.7z M706.6,365c-0.2-0.2-0.3-0.3-0.5-0.5c-0.3-0.3-0.3-0.7,0-1
					c0.3-0.3,0.7-0.3,1,0c0.2,0.2,0.3,0.3,0.5,0.5c0.3,0.3,0.3,0.7,0,1c-0.1,0.1-0.3,0.2-0.5,0.2C707,365.2,706.8,365.2,706.6,365z
					 M741,364.8c-0.3-0.3-0.3-0.7,0-1c0.2-0.2,0.3-0.3,0.5-0.5c0.3-0.3,0.7-0.3,1,0c0.3,0.3,0.3,0.7,0,1c-0.2,0.2-0.3,0.3-0.5,0.5
					c-0.1,0.1-0.3,0.2-0.5,0.2C741.4,365,741.2,364.9,741,364.8z M703.4,361.3c-0.1-0.2-0.3-0.4-0.4-0.6c-0.2-0.3-0.1-0.8,0.2-1
					c0.3-0.2,0.8-0.1,1,0.2c0.1,0.2,0.3,0.4,0.4,0.6c0.2,0.3,0.1,0.7-0.2,1c-0.1,0.1-0.3,0.1-0.4,0.1
					C703.7,361.6,703.5,361.5,703.4,361.3z M744.3,361.2c-0.3-0.2-0.4-0.7-0.2-1c0.1-0.2,0.3-0.4,0.4-0.6c0.2-0.3,0.6-0.4,1-0.2
					c0.3,0.2,0.4,0.6,0.2,1c-0.1,0.2-0.3,0.4-0.4,0.6c-0.1,0.2-0.4,0.3-0.6,0.3C744.5,361.3,744.4,361.2,744.3,361.2z M700.9,356.9
					c-0.1-0.2-0.2-0.4-0.3-0.7c-0.1-0.4,0-0.8,0.4-0.9c0.4-0.1,0.8,0,0.9,0.4c0.1,0.2,0.2,0.4,0.3,0.6c0.2,0.4,0,0.8-0.4,0.9
					c-0.1,0-0.2,0.1-0.3,0.1C701.3,357.4,701,357.2,700.9,356.9z M746.7,357c-0.4-0.2-0.5-0.6-0.4-0.9c0.1-0.2,0.2-0.4,0.3-0.6
					c0.1-0.4,0.5-0.5,0.9-0.4c0.4,0.1,0.5,0.5,0.4,0.9c-0.1,0.2-0.2,0.4-0.3,0.7c-0.1,0.3-0.4,0.4-0.6,0.4
					C746.9,357.1,746.8,357,746.7,357z M699.4,352.2c-0.1-0.2-0.1-0.5-0.1-0.7c-0.1-0.4,0.2-0.7,0.5-0.8c0.4-0.1,0.7,0.2,0.8,0.5
					c0,0.2,0.1,0.4,0.1,0.7c0.1,0.4-0.2,0.7-0.5,0.8c-0.1,0-0.1,0-0.2,0C699.7,352.8,699.4,352.5,699.4,352.2z M748.3,352.4
					c-0.4-0.1-0.6-0.4-0.5-0.8c0-0.2,0.1-0.4,0.1-0.7c0.1-0.4,0.4-0.6,0.8-0.6c0.4,0.1,0.6,0.4,0.6,0.8c0,0.2-0.1,0.5-0.1,0.7
					c-0.1,0.3-0.4,0.6-0.7,0.6C748.4,352.5,748.4,352.4,748.3,352.4z M698.7,347.3c0-0.2,0-0.5,0-0.7c0,0,0,0,0,0c0,0,0,0,0,0
					c0-0.2,0-0.5,0-0.7c0-0.4,0.3-0.7,0.7-0.7c0.4,0,0.7,0.3,0.7,0.7c0,0.2,0,0.4,0,0.7c0,0,0,0,0,0c0,0,0,0,0,0c0,0.2,0,0.4,0,0.7
					c0,0.4-0.3,0.7-0.7,0.7c0,0,0,0,0,0C699.1,348,698.8,347.7,698.7,347.3z M749,347.6c-0.4,0-0.7-0.3-0.7-0.7l0-0.4v-0.3
					c0-0.4,0.3-0.7,0.7-0.7c0.4,0,0.7,0.3,0.7,0.7v0.3l0,0.4C749.7,347.3,749.4,347.6,749,347.6C749,347.6,749,347.6,749,347.6z
					 M747.9,342.3c0-0.2-0.1-0.4-0.1-0.7c-0.1-0.4,0.2-0.7,0.5-0.8c0.4-0.1,0.7,0.2,0.8,0.5c0,0.2,0.1,0.5,0.1,0.7
					c0.1,0.4-0.2,0.7-0.6,0.8c0,0-0.1,0-0.1,0C748.3,342.8,748,342.6,747.9,342.3z M699.8,342.4c-0.4-0.1-0.6-0.4-0.5-0.8
					c0-0.2,0.1-0.5,0.1-0.7c0.1-0.4,0.5-0.6,0.8-0.5c0.4,0.1,0.6,0.5,0.5,0.8c-0.1,0.2-0.1,0.4-0.1,0.7c-0.1,0.3-0.4,0.6-0.7,0.6
					C699.9,342.4,699.8,342.4,699.8,342.4z M746.6,337.7c-0.1-0.2-0.2-0.4-0.3-0.6c-0.2-0.4,0-0.8,0.4-0.9c0.4-0.2,0.8,0,0.9,0.4
					c0.1,0.2,0.2,0.4,0.3,0.7c0.1,0.4,0,0.8-0.4,0.9c-0.1,0-0.2,0-0.3,0C747,338.2,746.7,338,746.6,337.7z M701,337.7
					c-0.4-0.1-0.5-0.6-0.4-0.9c0.1-0.2,0.2-0.4,0.3-0.7c0.2-0.4,0.6-0.5,0.9-0.4c0.4,0.2,0.5,0.6,0.4,0.9c-0.1,0.2-0.2,0.4-0.3,0.6
					c-0.1,0.3-0.4,0.4-0.6,0.4C701.2,337.8,701.1,337.8,701,337.7z M744.5,333.6c-0.1-0.2-0.2-0.4-0.4-0.6c-0.2-0.3-0.1-0.8,0.2-1
					c0.3-0.2,0.8-0.1,1,0.2c0.1,0.2,0.3,0.4,0.4,0.6c0.2,0.3,0.1,0.8-0.2,1c-0.1,0.1-0.2,0.1-0.4,0.1
					C744.8,333.9,744.6,333.8,744.5,333.6z M703.2,333.4c-0.3-0.2-0.4-0.6-0.2-1c0.1-0.2,0.3-0.4,0.4-0.6c0.2-0.3,0.7-0.4,1-0.2
					c0.3,0.2,0.4,0.7,0.2,1c-0.1,0.2-0.3,0.4-0.4,0.6c-0.1,0.2-0.4,0.3-0.6,0.3C703.5,333.5,703.3,333.5,703.2,333.4z M741.6,329.9
					c-0.2-0.2-0.3-0.3-0.5-0.5c-0.3-0.3-0.3-0.7,0-1c0.3-0.3,0.7-0.3,1,0c0.2,0.2,0.3,0.3,0.5,0.5c0.3,0.3,0.3,0.7,0,1
					c-0.1,0.1-0.3,0.2-0.5,0.2C741.9,330.1,741.7,330,741.6,329.9z M706.2,329.6c-0.3-0.3-0.3-0.7,0-1c0.2-0.2,0.3-0.3,0.5-0.5
					c0.3-0.3,0.7-0.3,1,0c0.3,0.3,0.3,0.7,0,1c-0.2,0.2-0.3,0.3-0.5,0.5c-0.1,0.1-0.3,0.2-0.5,0.2
					C706.5,329.8,706.3,329.7,706.2,329.6z M738,326.8c-0.2-0.1-0.4-0.3-0.6-0.4c-0.3-0.2-0.4-0.6-0.2-1c0.2-0.3,0.6-0.4,1-0.2
					c0.2,0.1,0.4,0.3,0.6,0.4c0.3,0.2,0.4,0.7,0.2,1c-0.1,0.2-0.4,0.3-0.6,0.3C738.2,326.9,738.1,326.9,738,326.8z M709.8,326.4
					c-0.2-0.3-0.1-0.8,0.2-1c0.2-0.1,0.4-0.3,0.6-0.4c0.3-0.2,0.8-0.1,1,0.2c0.2,0.3,0.1,0.8-0.2,1c-0.2,0.1-0.4,0.2-0.6,0.4
					c-0.1,0.1-0.3,0.1-0.4,0.1C710.2,326.7,709.9,326.6,709.8,326.4z M733.9,324.5c-0.2-0.1-0.4-0.2-0.6-0.3
					c-0.4-0.1-0.5-0.6-0.4-0.9c0.1-0.4,0.6-0.5,0.9-0.4c0.2,0.1,0.4,0.2,0.7,0.3c0.4,0.2,0.5,0.6,0.4,0.9c-0.1,0.3-0.4,0.4-0.6,0.4
					C734.1,324.6,734,324.6,733.9,324.5z M714,324c-0.2-0.4,0-0.8,0.4-0.9c0.2-0.1,0.4-0.2,0.7-0.3c0.4-0.1,0.8,0,0.9,0.4
					c0.1,0.4,0,0.8-0.4,0.9c-0.2,0.1-0.4,0.2-0.6,0.3c-0.1,0-0.2,0.1-0.3,0.1C714.4,324.4,714.1,324.2,714,324z M729.4,323.1
					c-0.2,0-0.4-0.1-0.7-0.1c-0.4-0.1-0.6-0.4-0.6-0.8c0.1-0.4,0.4-0.6,0.8-0.6c0.2,0,0.5,0.1,0.7,0.1c0.4,0.1,0.6,0.5,0.5,0.8
					c-0.1,0.3-0.4,0.5-0.7,0.5C729.5,323.1,729.5,323.1,729.4,323.1z M718.6,322.4c-0.1-0.4,0.2-0.7,0.5-0.8c0.2,0,0.5-0.1,0.7-0.1
					c0.4-0.1,0.7,0.2,0.8,0.6c0.1,0.4-0.2,0.7-0.6,0.8c-0.2,0-0.4,0.1-0.7,0.1c0,0-0.1,0-0.1,0C718.9,323,718.7,322.8,718.6,322.4z
					 M724.8,322.5c-0.2,0-0.4,0-0.5,0l-0.1,0c0,0,0,0,0,0c-0.4,0-0.7-0.3-0.7-0.7c0-0.4,0.3-0.7,0.7-0.7l0.1,0c0.2,0,0.4,0,0.6,0
					c0.4,0,0.7,0.3,0.7,0.7C725.5,322.2,725.1,322.5,724.8,322.5C724.8,322.5,724.8,322.5,724.8,322.5z"/>
			</g>
			<path fill="#1D1D1B" d="M696,452.9c-0.5,0-0.9-0.4-0.9-0.9c0-0.5,0.4-0.9,0.9-0.9l0.6,0c0.5,0,0.9,0.4,0.9,0.9
				c0,0.5-0.4,0.9-0.9,0.9L696,452.9C696,452.9,696,452.9,696,452.9z"/>
			<path fill="#1D1D1B" d="M692.4,452.9C692.4,452.9,692.4,452.9,692.4,452.9l-0.6,0c-0.5,0-0.9-0.4-0.9-0.9c0-0.5,0.4-0.9,0.9-0.9
				c0,0,0,0,0,0l0.6,0c0.5,0,0.9,0.4,0.9,0.9C693.3,452.5,692.9,452.9,692.4,452.9z"/>
			<path fill="#1D1D1B" d="M700.2,452.7c-0.5,0-0.9-0.4-0.9-0.9c0-0.5,0.4-0.9,0.9-1l0.6,0c0.5,0,0.9,0.3,1,0.8c0,0.5-0.3,0.9-0.9,1
				L700.2,452.7C700.2,452.7,700.2,452.7,700.2,452.7z"/>
			<path fill="#1D1D1B" d="M688.2,452.7C688.2,452.7,688.1,452.7,688.2,452.7l-0.7,0c-0.5,0-0.9-0.5-0.8-1c0-0.5,0.5-0.9,1-0.8
				l0.6,0c0.5,0,0.9,0.5,0.9,1C689,452.3,688.6,452.7,688.2,452.7z"/>
			<path fill="#1D1D1B" d="M704.4,452.4c-0.5,0-0.9-0.3-0.9-0.8c0-0.5,0.3-0.9,0.8-1l0.6-0.1c0.5-0.1,0.9,0.3,1,0.8
				c0.1,0.5-0.3,0.9-0.8,1L704.4,452.4C704.5,452.4,704.4,452.4,704.4,452.4z"/>
			<path fill="#1D1D1B" d="M684,452.3C683.9,452.3,683.9,452.3,684,452.3l-0.7-0.1c-0.5-0.1-0.9-0.5-0.8-1c0.1-0.5,0.5-0.9,1-0.8
				l0.6,0.1c0.5,0.1,0.9,0.5,0.8,1C684.8,452,684.4,452.3,684,452.3z"/>
			<path fill="#1D1D1B" d="M708.6,451.9c-0.4,0-0.8-0.3-0.9-0.8c-0.1-0.5,0.3-1,0.8-1l0.6-0.1c0.5-0.1,1,0.3,1,0.8
				c0.1,0.5-0.3,1-0.8,1l-0.6,0.1C708.7,451.9,708.6,451.9,708.6,451.9z"/>
			<path fill="#1D1D1B" d="M679.8,451.8c0,0-0.1,0-0.1,0l-0.6-0.1c-0.5-0.1-0.8-0.5-0.8-1c0.1-0.5,0.5-0.8,1-0.8l0.6,0.1
				c0.5,0.1,0.8,0.5,0.8,1C680.6,451.5,680.2,451.8,679.8,451.8z"/>
			<path fill="#1D1D1B" d="M712.7,451.2c-0.4,0-0.8-0.3-0.9-0.7c-0.1-0.5,0.2-1,0.7-1.1l0.6-0.1c0.5-0.1,1,0.2,1.1,0.7
				c0.1,0.5-0.2,1-0.7,1.1l-0.6,0.1C712.8,451.2,712.8,451.2,712.7,451.2z"/>
			<path fill="#1D1D1B" d="M675.6,451.1c-0.1,0-0.1,0-0.2,0l-0.6-0.1c-0.5-0.1-0.8-0.6-0.7-1.1c0.1-0.5,0.6-0.8,1.1-0.7l0.6,0.1
				c0.5,0.1,0.8,0.6,0.7,1.1C676.4,450.8,676.1,451.1,675.6,451.1z"/>
			<path fill="#1D1D1B" d="M716.9,450.3c-0.4,0-0.8-0.3-0.9-0.7c-0.1-0.5,0.2-1,0.7-1.1l0.6-0.1c0.5-0.1,1,0.2,1.1,0.7
				c0.1,0.5-0.2,1-0.7,1.1l-0.6,0.1C717,450.3,716.9,450.3,716.9,450.3z"/>
			<path fill="#1D1D1B" d="M671.5,450.2c-0.1,0-0.1,0-0.2,0l-0.6-0.2c-0.5-0.1-0.8-0.6-0.6-1.1c0.1-0.5,0.6-0.8,1.1-0.6l0.6,0.1
				c0.5,0.1,0.8,0.6,0.7,1.1C672.3,449.9,671.9,450.2,671.5,450.2z"/>
			<path fill="#1D1D1B" d="M720.9,449.2c-0.4,0-0.7-0.3-0.9-0.6c-0.1-0.5,0.1-1,0.6-1.1l0.6-0.2c0.5-0.2,1,0.1,1.1,0.6
				c0.2,0.5-0.1,1-0.6,1.1l-0.6,0.2C721.1,449.2,721,449.2,720.9,449.2z"/>
			<path fill="#1D1D1B" d="M667.5,449c-0.1,0-0.2,0-0.3,0c-0.2-0.1-0.4-0.1-0.6-0.2c-0.5-0.2-0.7-0.7-0.6-1.1
				c0.2-0.5,0.7-0.7,1.1-0.6c0.2,0.1,0.4,0.1,0.6,0.2c0.5,0.2,0.7,0.7,0.6,1.1C668.2,448.8,667.9,449,667.5,449z"/>
			<path fill="#1D1D1B" d="M726.1,411.2c-0.1,0-0.2,0-0.3-0.1l-0.6-0.2c-0.5-0.2-0.9-0.8-0.7-1.3c0.2-0.5,0.8-0.9,1.3-0.7l0.7,0.2
				c0.5,0.2,0.8,0.8,0.7,1.3C727,411,726.5,411.2,726.1,411.2z"/>
			<path fill="#1D1D1B" d="M663.3,411.1c-0.4,0-0.9-0.3-1-0.7c-0.2-0.5,0.1-1.1,0.7-1.3l0.7-0.2c0.6-0.2,1.1,0.1,1.3,0.7
				c0.2,0.6-0.1,1.1-0.7,1.3l-0.7,0.2C663.5,411.1,663.4,411.1,663.3,411.1z"/>
			<path fill="#1D1D1B" d="M721.5,409.9c-0.1,0-0.2,0-0.3,0l-0.7-0.2c-0.6-0.1-0.9-0.7-0.8-1.3c0.1-0.6,0.7-0.9,1.3-0.8l0.7,0.2
				c0.6,0.1,0.9,0.7,0.7,1.3C722.3,409.6,721.9,409.9,721.5,409.9z"/>
			<path fill="#1D1D1B" d="M668,409.7c-0.5,0-0.9-0.3-1-0.8c-0.1-0.6,0.2-1.1,0.8-1.3l0.7-0.2c0.6-0.1,1.1,0.2,1.3,0.8
				c0.1,0.6-0.2,1.1-0.8,1.3l-0.7,0.2C668.2,409.7,668.1,409.7,668,409.7z"/>
			<path fill="#1D1D1B" d="M716.7,408.8c-0.1,0-0.1,0-0.2,0l-0.7-0.1c-0.6-0.1-0.9-0.7-0.8-1.2c0.1-0.6,0.7-0.9,1.2-0.8l0.7,0.1
				c0.6,0.1,0.9,0.7,0.8,1.2C717.7,408.4,717.2,408.8,716.7,408.8z"/>
			<path fill="#1D1D1B" d="M672.7,408.7c-0.5,0-0.9-0.3-1-0.8c-0.1-0.6,0.3-1.1,0.8-1.2l0.7-0.1c0.6-0.1,1.1,0.3,1.2,0.8
				c0.1,0.6-0.3,1.1-0.8,1.2l-0.7,0.1C672.8,408.7,672.8,408.7,672.7,408.7z"/>
			<path fill="#1D1D1B" d="M712,407.9c-0.1,0-0.1,0-0.2,0l-0.7-0.1c-0.6-0.1-1-0.6-0.9-1.2c0.1-0.6,0.6-1,1.2-0.9l0.7,0.1
				c0.6,0.1,1,0.6,0.9,1.2C712.9,407.6,712.5,407.9,712,407.9z"/>
			<path fill="#1D1D1B" d="M677.5,407.8c-0.5,0-1-0.4-1-0.9c-0.1-0.6,0.3-1.1,0.9-1.2l0.7-0.1c0.6-0.1,1.1,0.3,1.2,0.9
				c0.1,0.6-0.3,1.1-0.9,1.2l-0.7,0.1C677.6,407.8,677.5,407.8,677.5,407.8z"/>
			<path fill="#1D1D1B" d="M707.2,407.3c0,0-0.1,0-0.1,0l-0.7-0.1c-0.6-0.1-1-0.6-0.9-1.1c0.1-0.6,0.6-1,1.1-0.9l0.7,0.1
				c0.6,0.1,1,0.6,0.9,1.2C708.1,406.9,707.7,407.3,707.2,407.3z"/>
			<path fill="#1D1D1B" d="M682.3,407.2c-0.5,0-1-0.4-1-0.9c-0.1-0.6,0.4-1.1,0.9-1.1l0.7-0.1c0.6-0.1,1.1,0.4,1.1,0.9
				c0.1,0.6-0.4,1.1-0.9,1.1l-0.7,0.1C682.4,407.2,682.3,407.2,682.3,407.2z"/>
			<path fill="#1D1D1B" d="M702.3,406.9C702.3,406.9,702.3,406.9,702.3,406.9l-0.8,0c-0.6,0-1-0.5-1-1.1c0-0.6,0.5-1,1.1-1l0.7,0
				c0.6,0,1,0.5,1,1.1C703.3,406.4,702.9,406.9,702.3,406.9z"/>
			<path fill="#1D1D1B" d="M687.1,406.8c-0.5,0-1-0.4-1-1c0-0.6,0.4-1.1,1-1.1l0.7,0c0.6,0,1.1,0.4,1.1,1c0,0.6-0.4,1.1-1,1.1
				L687.1,406.8C687.2,406.8,687.1,406.8,687.1,406.8z"/>
			<path fill="#1D1D1B" d="M697.5,406.6C697.5,406.6,697.5,406.6,697.5,406.6l-0.7,0c-0.6,0-1-0.5-1-1.1c0-0.6,0.5-1.1,1.1-1l0.7,0
				c0.6,0,1,0.5,1,1.1C698.5,406.2,698.1,406.6,697.5,406.6z"/>
			<path fill="#1D1D1B" d="M692,406.6c-0.6,0-1-0.5-1-1c0-0.6,0.4-1.1,1-1.1l0.7,0c0,0,0,0,0,0c0.6,0,1,0.5,1,1c0,0.6-0.5,1.1-1,1.1
				L692,406.6C692,406.6,692,406.6,692,406.6z"/>
			<g>
				<path fill="#007C8A" d="M642.9,382.8c0,0-0.5,2,2.6,1.8l0,0c0,0,0.2,2.5,3,1.6c0,0,0.5,2.6,3.8,1.5c0,0,1.5,3.6,5.2,1.1
					c0,0,2.9,3.9,6.6,0.1c0,0,3.1,1.8,5.2-1c0,0,2.9,1.5,4.2-1.6c0,0,2.1,0.7,3.1-1.6c0,0,3.5-0.3,6.6-4.6
					C675,383,660.5,389,642.9,382.8z"/>
				<path fill="#007C8A" d="M746,382.8c0,0,0.5,2-2.6,1.8l0,0c0,0-0.2,2.5-3,1.6c0,0-0.5,2.6-3.8,1.5c0,0-1.5,3.6-5.2,1.1
					c0,0-2.9,3.9-6.6,0.1c0,0-3.1,1.8-5.2-1c0,0-2.9,1.5-4.2-1.6c0,0-2.1,0.7-3.1-1.6c0,0-3.5-0.3-6.6-4.6
					C713.9,383,728.4,389,746,382.8z"/>
			</g>
			<path fill="#007C8A" d="M688.4,326.4c0,0-3.7-7.2-13.9-11.5c-10.2-4.3-12.7-9.6-9.9-12.9C668.7,297.1,685.1,309.7,688.4,326.4z"
				/>
			<path fill="#254043" d="M686,309.4c0,0-4.9-7.2-11.8-11.2c-6.9-4,0.9-10,4.6-6C682.5,296.3,685.7,304.8,686,309.4z"/>
			<path fill="#007C8A" d="M700.5,326.4c0,0,3.7-7.2,13.9-11.5c10.2-4.3,12.7-9.6,9.9-12.9C720.2,297.1,703.8,309.7,700.5,326.4z"/>
			<path fill="#254043" d="M702.9,309.4c0,0,4.9-7.2,11.8-11.2c6.9-4-0.9-10-4.6-6C706.4,296.3,703.2,304.8,702.9,309.4z"/>
			<path fill="#D02332" d="M694.5,285.7c-8.9,0-3.4,26.8,0,41.4C697.9,312.6,703.4,285.7,694.5,285.7z"/>
		</g>
		<g>
			<g>
				<path fill="#D02332" d="M555.5,338.7c0.6-1.5-2.4-4.1-4.8,1.3c-2.4,5.4,1.5,5.9,2.3,4.4c0.7-1.5,7.2,1.8,7.2,1.8l0.8-1.7
					l0.8-1.7C561.6,342.8,554.9,340.2,555.5,338.7z"/>
				<path fill="#D02332" d="M550.7,349.7c0.6-1.5-2.4-4.1-4.8,1.3c-2.4,5.4,1.5,5.9,2.3,4.4c0.7-1.5,5.5,1,5.5,1l0.8-1.7l0.8-1.7
					C555.2,353.1,550.1,351.2,550.7,349.7z"/>
				<path fill="#D02332" d="M545.8,360.7c0.6-1.5-2.4-4.1-4.8,1.3c-2.4,5.4,1.5,5.9,2.3,4.4c0.7-1.5,5.5,1,5.5,1l0.8-1.7l0.8-1.7
					C550.4,364.1,545.3,362.2,545.8,360.7z"/>
				<path fill="#D02332" d="M586.2,359c-0.6,1.5,2.4,4.1,4.8-1.3c2.4-5.4-1.5-5.9-2.3-4.4c-0.7,1.5-7.2-1.8-7.2-1.8l-0.8,1.7
					l-0.8,1.7C580,354.9,586.7,357.4,586.2,359z"/>
				<path fill="#D02332" d="M583.9,364.2c-0.7,1.5-5.5-1-5.5-1l-0.8,1.7l-0.8,1.7c0,0,5.1,1.8,4.5,3.4c-0.6,1.5,2.4,4.1,4.8-1.3
					C588.5,363.2,584.6,362.7,583.9,364.2z"/>
				<path fill="#D02332" d="M579.1,375.2c-0.7,1.5-5.5-1-5.5-1l-0.8,1.7l-0.8,1.7c0,0,5.1,1.8,4.5,3.4c-0.6,1.5,2.4,4.1,4.8-1.3
					C583.7,374.2,579.8,373.7,579.1,375.2z"/>
			</g>
			<path fill="#00549C" d="M585.8,346.7l-23.5-10.3l-17.9,32.8c5.9,4,0.6,18.4,0.6,18.4l15,6.5c0,0,7-13.6,13.9-12L585.8,346.7z"/>
			<ellipse transform="matrix(0.4003 -0.9164 0.9164 0.4003 20.8094 724.6203)" fill="#FFC20E" cx="564" cy="346.4" rx="2" ry="2"/>
			
				<ellipse transform="matrix(0.4005 -0.9163 0.9163 0.4005 7.4643 726.7293)" fill="#FFC20E" cx="559.1" cy="357.7" rx="2" ry="2"/>
			
				<ellipse transform="matrix(0.4004 -0.9163 0.9163 0.4004 -5.7637 729.0092)" fill="#FFC20E" cx="554.2" cy="368.9" rx="2" ry="2"/>
			<ellipse transform="matrix(0.4004 -0.9163 0.9163 0.4004 23.3004 739.6487)" fill="#FFC20E" cx="576.9" cy="352" rx="2" ry="2"/>
			
				<ellipse transform="matrix(0.4002 -0.9164 0.9164 0.4002 10.1415 742.0312)" fill="#FFC20E" cx="571.9" cy="363.3" rx="2" ry="2"/>
			<ellipse transform="matrix(0.4003 -0.9164 0.9164 0.4003 -3.1602 744.2043)" fill="#FFC20E" cx="567" cy="374.5" rx="2" ry="2"/>
			<polygon fill="#FFC20E" points="559.4,393.9 545.5,387.8 493.3,487 522.1,499.6 			"/>
			<path fill="#254043" d="M525.6,547c4.2-9.7,13.3-17.2,18.1-28.2c4.8-11,11.5-28.8-27.1-45.6c-38.6-16.9-47.1,0.1-51.9,11.1
				c-4.8,11-4.2,22.8-8.4,32.4c-4.2,9.7-24,9.1-34.1,32.4c-10.2,23.3-9.4,50.9,31.3,68.7c40.7,17.8,61.5-0.4,71.7-23.7
				C535.2,570.7,521.3,556.6,525.6,547z"/>
			
				<ellipse transform="matrix(0.4004 -0.9163 0.9163 0.4004 -197.2879 769.4095)" fill="#FFC20E" cx="489.3" cy="535.5" rx="21.1" ry="21.1"/>
			
				<rect x="468.4" y="552.5" transform="matrix(0.4004 -0.9163 0.9163 0.4004 -242.2245 777.0042)" fill="#D02332" width="8.3" height="42.1"/>
			<g>
				<g>
					
						<rect x="411.3" y="481.2" transform="matrix(0.4039 -0.9148 0.9148 0.4039 -135.9312 754.5579)" fill="#1D1D1B" width="199.4" height="0.8"/>
				</g>
				<g>
					
						<rect x="407.1" y="479.3" transform="matrix(0.4206 -0.9072 0.9072 0.4206 -141.6017 737.7355)" fill="#1D1D1B" width="199.4" height="0.8"/>
				</g>
				<g>
					
						<rect x="414.3" y="482.5" transform="matrix(0.3969 -0.9179 0.9179 0.3969 -133.2092 763.0624)" fill="#1D1D1B" width="199.4" height="0.8"/>
				</g>
				<g>
					
						<rect x="418.5" y="484.3" transform="matrix(0.3791 -0.9254 0.9254 0.3791 -126.7649 780.5684)" fill="#1D1D1B" width="199.4" height="0.8"/>
				</g>
			</g>
		</g>
		<path fill="#D02332" d="M368.7,447.2c0,0-26.2,53.4-1.5,55.7C391.9,505.3,375.5,459.1,368.7,447.2z"/>
		<path fill="#D02332" d="M262.3,578.8c0,0,0.3,48.3,19.1,41C300.2,612.6,271.5,584.9,262.3,578.8z"/>
		<path fill="#D02332" d="M549.9,854.3c0,0-41.2,25.2-25.3,37.5C540.5,904.2,549.4,865.4,549.9,854.3z"/>
		<path fill="#D02332" d="M996.1,790c0,0-41.2,25.2-25.3,37.5C986.8,839.9,995.7,801.1,996.1,790z"/>
		<path fill="#D02332" d="M1130.8,418.9c0,0,5,48,23,39C1171.8,448.8,1140.6,424.1,1130.8,418.9z"/>
		<path fill="#FFC20E" d="M326.7,566.1c0,0,0,58.3,25.4,45C377.5,597.7,326.7,566.1,326.7,566.1z"/>
		<path fill="#FFC20E" d="M1027.2,674.8c0,0,0,58.3,25.4,45C1078,706.4,1027.2,674.8,1027.2,674.8z"/>
		<path fill="#D02332" d="M1044.9,423.8c0,0,0,58.3,25.4,45C1095.7,455.4,1044.9,423.8,1044.9,423.8z"/>
		<path fill="#D02332" d="M487.7,140.6c0,0,0,58.3,25.4,45C538.5,172.2,487.7,140.6,487.7,140.6z"/>
		<g>
			<path fill="#007C8A" d="M598.9,785.5c11.9-5.4,24.6-2,37.6,13.2c13,15.2,23.6,14,32.5,23.4c12.2,12.7,21.5,39.1-26.1,60.7
				L598.9,785.5z"/>
			<path fill="#FFDAA4" d="M599.9,785.1c17.7-5.9,29.7,21,37.9,30c8.1,8.9,18.4,8.8,25,26.8c9.9,26.8-9.9,37.8-25.9,43.1
				c-21.9,7.2-41.1-4.2-45.9-30.2C586.3,828.7,580.1,791.7,599.9,785.1z"/>
			
				<ellipse transform="matrix(0.9111 -0.4121 0.4121 0.9111 -295.6754 334.4386)" fill="#254043" cx="627.7" cy="852.9" rx="21.3" ry="21.3"/>
		</g>
		<g>
			<path fill="#007C8A" d="M276.6,456.1c9,1.7,14.9,8.8,16.3,22.8c1.3,14,7.9,17.6,9.2,26.6c1.9,12.2-3.5,31.2-39.6,24.3
				L276.6,456.1z"/>
			<path fill="#FFDAA4" d="M277.4,456.3c12.6,3.8,8.6,24.1,9.6,32.6c1.1,8.4,7,12.5,3.5,25.5c-5.2,19.4-21,17.7-32.3,14.3
				c-15.5-4.7-22-19.1-14.2-36C251.8,475.8,263.3,452.1,277.4,456.3z"/>
			
				<ellipse transform="matrix(0.1878 -0.9822 0.9822 0.1878 -281.5623 672.5856)" fill="#254043" cx="265.9" cy="506.5" rx="15" ry="15"/>
		</g>
		<g>
			<g>
				<path fill="#007C8A" d="M670.5,85.9c-41.2,5.2-56.4,156.4-56.4,156.4s35.7-4.5,74.8-9.4c39.1-4.9,74.8-9.4,74.8-9.4
					S711.7,80.7,670.5,85.9z"/>
				<path fill="#FFDAA4" d="M636.4,199.1c0,1.7-1.7,3-3.9,2.9c-2.1,0-3.8-1.4-3.8-3.1c0-1.6,1.8-2.9,3.9-2.9
					C634.7,196.1,636.4,197.4,636.4,199.1z"/>
				<path fill="#FFDAA4" d="M649.3,199c0.1,1.7-1.6,3-3.8,3.1c-2.1,0-3.9-1.3-3.9-2.9c0-1.6,1.7-3,3.8-3
					C647.6,196,649.3,197.3,649.3,199z"/>
				<path fill="#FFDAA4" d="M662.3,198.4c0.1,1.6-1.5,3.1-3.6,3.2c-2.1,0.1-3.9-1.1-4-2.8c-0.1-1.6,1.6-3.1,3.7-3.2
					C660.4,195.5,662.2,196.7,662.3,198.4z"/>
				<path fill="#FFDAA4" d="M675.2,197.3c0.2,1.6-1.4,3.1-3.5,3.3c-2.1,0.2-3.9-1-4.1-2.7c-0.1-1.6,1.5-3.1,3.5-3.3
					C673.2,194.5,675.1,195.7,675.2,197.3z"/>
				<path fill="#FFDAA4" d="M688.1,195.8c0.2,1.6-1.3,3.2-3.4,3.5c-2.1,0.3-4-0.9-4.2-2.5c-0.2-1.6,1.3-3.2,3.4-3.4
					C686,193.1,687.9,194.1,688.1,195.8z"/>
				<path fill="#FFDAA4" d="M700.9,193.8c0.3,1.6-1.2,3.2-3.3,3.6c-2.1,0.3-4-0.7-4.2-2.4c-0.2-1.6,1.2-3.2,3.3-3.5
					C698.7,191.2,700.6,192.2,700.9,193.8z"/>
				<path fill="#FFDAA4" d="M713.6,191.4c0.3,1.6-1.1,3.3-3.2,3.7c-2.1,0.4-4-0.6-4.3-2.2c-0.3-1.6,1.1-3.2,3.2-3.7
					C711.4,188.8,713.3,189.8,713.6,191.4z"/>
				<path fill="#FFDAA4" d="M726.3,188.5c0.4,1.6-1,3.3-3,3.8c-2.1,0.5-4-0.4-4.4-2.1c-0.4-1.6,1-3.3,3-3.8
					C723.9,186,725.9,186.9,726.3,188.5z"/>
				<path fill="#FFDAA4" d="M738.8,185.2c0.5,1.6-0.8,3.3-2.9,3.9c-2.1,0.6-4.1-0.3-4.5-1.9c-0.4-1.6,0.9-3.3,2.9-3.9
					C736.4,182.8,738.4,183.6,738.8,185.2z"/>
				<path fill="#D02332" d="M623.6,181.2c-0.5,2.7-1.1,5.4-1.6,8c40.9,2,81.8-3.2,121-15.2c-1.1-2.4-2.3-4.9-3.5-7.4
					C701.9,178,662.7,183,623.6,181.2z"/>
				<path fill="#00549C" d="M625.9,170.1c-0.4,1.8-0.8,3.6-1.2,5.3c37.9,1.6,75.8-3.2,112.1-14.1c-0.8-1.6-1.6-3.3-2.4-4.9
					C699.2,166.9,662.6,171.5,625.9,170.1z"/>
				<path fill="#1D1D1B" d="M628.6,158.9c-0.2,0.9-0.4,1.8-0.7,2.7c34.6,1.2,69.2-3.2,102.5-12.8c-0.4-0.8-0.9-1.6-1.3-2.4
					C696.5,155.7,662.5,160,628.6,158.9z"/>
				<path fill="#FFC20E" d="M632.7,143.7c-0.8,2.6-1.5,5.3-2.3,8c32.1,0.9,64.2-3.2,95.1-11.9c-1.4-2.4-2.8-4.8-4.2-7.2
					C692.5,140.6,662.6,144.3,632.7,143.7z"/>
				<path fill="#D02332" d="M636.2,132.5c-0.6,1.8-1.2,3.6-1.8,5.4c28.3,0.4,56.5-3.1,83.8-10.5c-1-1.6-2-3.2-3-4.8
					C689.4,129.5,662.9,132.8,636.2,132.5z"/>
				<path fill="#1D1D1B" d="M640.4,121.3c-0.4,0.9-0.7,1.8-1.1,2.7c23.9,0,47.6-3,70.7-8.9c-0.6-0.8-1.1-1.6-1.7-2.3
					C686.1,118.4,663.3,121.2,640.4,121.3z"/>
			</g>
			<g>
				<path fill="#254043" d="M839.5,230c-95.2,34-196.7,46.8-297.4,37.3c1.5-16.1,3-32.2,4.6-48.3c93.6,8.8,188-3,276.5-34.7
					C828.7,199.5,834.1,214.8,839.5,230z"/>
				<path fill="#FFC20E" d="M832.3,209.7c-1.2-3.4-2.5-6.9-3.7-10.3c-2.1-1.5-4.2-3-6.2-4.5c-1.9,7.2-4,14.4-6.2,21.6
					c-6-4.5-11.9-9.1-17.8-13.7c-2.2,7.1-4.5,14.2-7,21.3c-5.8-4.7-11.6-9.5-17.2-14.4c-2.5,7-5.1,14-7.8,21
					c-5.6-5-11.2-10-16.6-15.1c-2.7,6.9-5.6,13.8-8.6,20.7c-5.4-5.2-10.8-10.4-16-15.7c-3,6.8-6.1,13.6-9.4,20.4
					c-5.2-5.4-10.4-10.8-15.4-16.3c-3.3,6.7-6.6,13.4-10.1,20c-5-5.6-10-11.2-14.8-16.9c-3.5,6.6-7.1,13.1-10.9,19.6
					c-4.8-5.8-9.5-11.6-14.1-17.4c-3.8,6.4-7.6,12.8-11.6,19.2c-4.6-5.9-9.1-11.9-13.4-18c-4,6.3-8.1,12.5-12.4,18.7
					c-4.4-6.1-8.6-12.3-12.7-18.5c-4.3,6.1-8.6,12.2-13.1,18.2c-4.1-6.3-8.1-12.6-12-19c-4.5,5.9-9.1,11.8-13.8,17.7
					c-3.9-6.4-7.7-12.9-11.3-19.4c-1.6,2-3.3,4-4.9,5.9c-0.3,3.6-0.7,7.3-1,10.9c1.7-2,3.3-4,5-5.9c2.6,4.6,5.3,9.1,8,13.7
					c0,0,0,0.1-0.1,0.1c0,0,0.1,0,0.1,0c2.5,0.2,5.1,0.4,7.6,0.5c0,0,0.1,0,0.1,0c0,0,0-0.1-0.1-0.1c3.3-4.1,6.6-8.3,9.8-12.5
					c2.8,4.5,5.6,8.9,8.5,13.4c0,0,0,0.1-0.1,0.1c0,0,0.1,0,0.1,0c2.5,0.1,5.1,0.2,7.6,0.2c0,0,0.1,0,0.1,0c0,0,0-0.1-0.1-0.1
					c3.2-4.3,6.3-8.5,9.3-12.8c3,4.4,6,8.7,9,13c0,0,0,0.1-0.1,0.1c0,0,0.1,0,0.1,0c2.5,0,5.1,0,7.6-0.1c0,0,0.1,0,0.1,0
					c0,0,0-0.1-0.1-0.1c3-4.4,5.9-8.8,8.8-13.2c3.1,4.2,6.3,8.5,9.5,12.7c0,0,0,0.1-0.1,0.1c0,0,0.1,0,0.1,0
					c2.5-0.1,5.1-0.2,7.6-0.4c0,0,0.1,0,0.1,0c0,0,0-0.1-0.1-0.1c2.8-4.5,5.6-9,8.3-13.5c3.3,4.1,6.6,8.2,10,12.3c0,0,0,0.1-0.1,0.1
					c0,0,0.1,0,0.1,0c2.5-0.2,5-0.4,7.6-0.7c0,0,0.1,0,0.1,0c0,0,0-0.1-0.1-0.1c2.6-4.6,5.2-9.2,7.7-13.8c3.4,4,6.9,8,10.5,11.9
					c0,0,0,0.1-0.1,0.1c0,0,0.1,0,0.1,0c2.5-0.3,5-0.6,7.5-0.9c0,0,0.1,0,0.1,0c0,0,0-0.1-0.1-0.1c2.5-4.7,4.9-9.4,7.2-14.1
					c3.6,3.9,7.2,7.7,10.9,11.5c0,0,0,0.1-0.1,0.1c0,0,0.1,0,0.1,0c2.5-0.4,5-0.8,7.5-1.2c0,0,0.1,0,0.1,0c0,0-0.1-0.1-0.1-0.1
					c2.3-4.8,4.5-9.6,6.7-14.4c3.7,3.7,7.5,7.4,11.3,11.1c0,0,0,0.1,0,0.1c0,0,0.1,0,0.1,0c2.5-0.5,5-1,7.4-1.5c0,0,0.1,0,0.1,0
					c0,0-0.1,0-0.1-0.1c2.1-4.9,4.1-9.7,6.1-14.6c3.9,3.6,7.8,7.1,11.8,10.6c0,0,0,0.1,0,0.1c0,0,0.1,0,0.1,0
					c2.5-0.6,4.9-1.2,7.4-1.8c0,0,0.1,0,0.1,0c0,0-0.1,0-0.1-0.1c1.9-4.9,3.8-9.9,5.5-14.9c4,3.4,8.1,6.8,12.2,10.1c0,0,0,0.1,0,0.1
					c0,0,0.1,0,0.1,0c2.4-0.7,4.9-1.4,7.3-2.1c0,0,0.1,0,0.1,0c0,0-0.1,0-0.1-0.1c1.7-5,3.4-10,5-15.1c4.1,3.3,8.3,6.5,12.6,9.7
					c0,0,0,0.1,0,0.1c0,0,0.1,0,0.1,0c2.4-0.8,4.8-1.6,7.2-2.4c0,0,0.1,0,0.1,0c0,0-0.1,0-0.1-0.1c1.5-5.1,3-10.2,4.4-15.2
					C828.1,206.7,830.2,208.3,832.3,209.7z"/>
			</g>
		</g>
		<g>
			<path fill="#1D1D1B" d="M835.1,365.4c-15.8,0-36.9-5.1-39.7,11.2c-16.4,2.4-11.7,23.6-12.2,39.4c-0.4,14.4-15.8,23.9-33.6,23.3
				c19.3,9.7,41.9-1.5,50.9-10.8c11.7-12,11.6-28.7,11-35.4c6.7,0.8,23.4,1.3,35.7-10.1c9.5-8.8,21.3-31.1,12.1-50.6
				C859.3,350.2,849.5,365.4,835.1,365.4z"/>
			<path fill="#254043" d="M807.8,389.3l-3-3c1.3,8,3.1,27.5-9.1,39.4c0,0,0,0-0.1,0.1c-5.7,5.5-11.6,9-17.5,11
				c4.2-1.7,8.4-4.2,11.9-7.6c1.2-1.1,2.3-2.4,3.3-3.7c14.8-19.7,4.8-42.6,0.8-48.5c-0.5,0.1-0.9,0.2-1.3,0.3l-1,0.7
				c3.5,4.9,13.7,27.1-0.5,46c-3.6,4.7-8.3,7.9-13.2,10.1c1.6-1,3-2.1,4.3-3.4c2.1-2,3.8-4.4,5.1-7c7.4-14.8,0.4-36.1-2.1-40.2
				l-0.6,1.4c-0.2,0.5-0.4,1-0.6,1.6c2.6,5.5,7.6,23.2,1.1,36.2c-3.1,6.2-8.5,10.5-16.1,12.9c-5.6,2.8-12.5,4.2-19.8,4
				c1.4,0.7,2.9,1.3,4.3,1.8c13.8,1.5,29.2,0.3,43.5-13.6c0,0,0,0,0.1-0.1C809,416.1,808.9,399,807.8,389.3z"/>
			<path fill="#254043" d="M807.8,389.3l-3-3c7.9,1.5,27.4,3.8,39.6-8.1c0,0,0,0,0.1-0.1c5.7-5.5,9.3-11.3,11.4-17.2
				c-1.9,4.2-4.4,8.2-7.9,11.7c-1.2,1.1-2.4,2.2-3.8,3.2c-20.1,14.3-42.7,3.7-48.5-0.4c0.1-0.5,0.2-0.9,0.4-1.3l0.7-0.9
				c4.8,3.6,26.7,14.4,46,0.7c4.8-3.4,8.1-8,10.4-12.9c-1.1,1.5-2.2,3-3.5,4.2c-2.1,2-4.5,3.7-7.2,4.9c-15,7.1-36.1-0.6-40.2-3.1
				l1.4-0.6c0.5-0.2,1.1-0.4,1.6-0.5c5.4,2.7,23,8.2,36.1,2c6.3-3,10.7-8.3,13.3-15.8c2.9-5.5,4.5-12.4,4.5-19.7
				c0.7,1.4,1.2,2.9,1.7,4.4c1.2,13.8-0.5,29.2-14.8,43.1c0,0,0,0-0.1,0.1C834.5,391.3,817.4,390.7,807.8,389.3z"/>
		</g>
		<path fill="#007C8A" d="M446,677.1c21,10.4,32-29.9,57.7-32c0,0-11.7,14.6-23.6,32.1C468.3,694.7,446,677.1,446,677.1z"/>
		<path fill="#007C8A" d="M826.3,299.6c21,10.4,32-29.9,57.7-32c0,0-11.7,14.6-23.6,32.1C848.5,317.3,826.3,299.6,826.3,299.6z"/>
		<path fill="#007C8A" d="M485.2,328c21,10.4,32-29.9,57.7-32c0,0-11.7,14.6-23.6,32.1C507.4,345.6,485.2,328,485.2,328z"/>
		<path fill="#007C8A" d="M1080.2,652.8c13.7,18.9,42.2-11.6,65.9-1.5c0,0-17.2,7.5-35.8,17.5
			C1091.7,678.7,1080.2,652.8,1080.2,652.8z"/>
	</g>
</g>
</svg>
