<?xml version="1.0" encoding="utf-8"?>
<!-- Generator: Adobe Illustrator 15.1.0, SVG Export Plug-In . SVG Version: 6.00 Build 0)  -->
<!DOCTYPE svg PUBLIC "-//W3C//DTD SVG 1.1//EN" "http://www.w3.org/Graphics/SVG/1.1/DTD/svg11.dtd">
<svg version="1.1" id="Layer_1" xmlns="http://www.w3.org/2000/svg" xmlns:xlink="http://www.w3.org/1999/xlink" x="0px" y="0px"
	fill="#a00b2610" width="1400px" height="980px" viewBox="0 0 1400 980" enable-background="new 0 0 1400 980" xml:space="preserve">
<g>
	<g>
		<path d="M1086.259,595.731c-23.799,0.002-46.907-13.19-58.563-21.055c-22.022-14.855-48.382-16.46-58.692-16.46
			c-2.366,0-3.735,0.09-3.75,0.092c-0.868,0.047-1.715-0.313-2.267-0.99c-0.55-0.678-0.738-1.579-0.502-2.42
			c4.267-15.241,42.186-149.26,59.352-161.68c20.948-15.155,46.8-15.331,47.89-15.331c0.651,0,1.282,0.238,1.772,0.667
			c0.117,0.102,11.81,10.23,21.992,10.23c2.116,0,4.025-0.456,5.674-1.355c9.929-5.423,12.02-7.797,12.284-8.136
			c0.488-0.898,1.457-1.459,2.494-1.403c1.766,0.086,43.362,2.438,53.629,32.665c9.726,28.633,34.116,132.192,34.362,133.234
			c0.166,0.71,0.038,1.454-0.354,2.067c-0.392,0.612-1.016,1.04-1.729,1.186c-0.545,0.11-54.712,11.339-77.9,34.518
			C1112.541,590.964,1100.533,595.731,1086.259,595.731z M969.003,552.837c10.805,0,38.448,1.693,61.702,17.381
			c19.246,12.983,38.977,20.133,55.554,20.133c12.796,0,23.523-4.238,31.887-12.595c21.543-21.533,66.329-32.776,77.921-35.396
			c-3.899-16.464-24.818-104.253-33.588-130.073c-8.153-23.997-40.517-28.272-47.477-28.918c-2.636,2.687-8.392,6.125-13.26,8.784
			c-2.449,1.336-5.225,2.014-8.252,2.014c-10.604,0-21.632-8.354-24.714-10.871c-4.761,0.189-26.442,1.736-43.788,14.283
			c-11.607,8.4-39.641,96.107-56.336,155.261C968.767,552.837,968.884,552.837,969.003,552.837z"/>
		<path d="M963.255,576.74c-0.055,0-0.11-0.002-0.166-0.005c-1.484-0.091-2.612-1.366-2.521-2.85
			c0.007-0.132,0.016-0.261,0.024-0.391c-0.708,1.024-2.053,1.452-3.253,0.951c-1.371-0.575-2.016-2.149-1.443-3.521
			c1.845-4.407,3.801-8.235,5.372-11.311c0.135-0.262,0.27-0.527,0.406-0.794c0.587-5.659,1.112-5.946,2.11-6.491
			c2.202-1.199,3.568-0.562,4.328,0.179c1.671,1.629,1.022,3.463-1.139,7.756c-0.343,3.701-0.733,9.026-1.036,13.95
			C965.851,575.643,964.666,576.74,963.255,576.74z"/>
		<path d="M989.584,578.632c-0.054,0-0.11-0.002-0.166-0.005c-1.483-0.092-2.611-1.366-2.521-2.85
			c0.007-0.132,0.016-0.261,0.024-0.391c-0.706,1.024-2.055,1.452-3.252,0.951c-1.372-0.575-2.017-2.149-1.443-3.521
			c1.844-4.407,3.801-8.235,5.371-11.312c0.136-0.261,0.271-0.526,0.407-0.793c0.586-5.659,1.112-5.946,2.11-6.491
			c2.201-1.199,3.567-0.562,4.327,0.179c1.671,1.629,1.023,3.463-1.138,7.756c-0.344,3.701-0.734,9.027-1.037,13.95
			C992.18,577.534,990.996,578.632,989.584,578.632z"/>
		<path d="M1017.075,588.479c-0.055,0-0.11-0.002-0.167-0.005c-1.483-0.092-2.611-1.366-2.52-2.85
			c0.009-0.134,0.016-0.263,0.024-0.395c-0.708,1.024-2.057,1.456-3.255,0.955c-1.371-0.575-2.016-2.149-1.442-3.521
			c1.844-4.407,3.8-8.235,5.371-11.312c0.135-0.261,0.27-0.526,0.405-0.791c0.586-5.657,1.111-5.946,2.108-6.493
			c2.198-1.197,3.571-0.565,4.333,0.179c1.671,1.629,1.021,3.463-1.141,7.756c-0.341,3.7-0.733,9.026-1.035,13.95
			C1019.671,587.381,1018.486,588.479,1017.075,588.479z"/>
		<path d="M1041.129,602.027c-0.054,0-0.109-0.001-0.166-0.005c-1.483-0.091-2.611-1.366-2.521-2.85
			c0.007-0.131,0.016-0.261,0.024-0.391c-0.705,1.024-2.054,1.452-3.252,0.951c-1.371-0.574-2.016-2.15-1.443-3.521
			c1.845-4.404,3.799-8.231,5.372-11.308c0.133-0.263,0.27-0.528,0.404-0.797c0.589-5.658,1.114-5.946,2.112-6.49
			c2.196-1.2,3.566-0.566,4.328,0.179c1.671,1.629,1.022,3.461-1.139,7.755c-0.344,3.701-0.734,9.027-1.037,13.95
			C1043.725,600.93,1042.541,602.027,1041.129,602.027z"/>
		<path d="M1067.254,611.876c-0.055,0-0.11-0.002-0.166-0.005c-1.483-0.091-2.611-1.366-2.521-2.85
			c0.007-0.13,0.016-0.26,0.024-0.389c-0.709,1.021-2.051,1.448-3.251,0.949c-1.371-0.574-2.016-2.149-1.442-3.521
			c1.844-4.407,3.799-8.233,5.371-11.31c0.133-0.261,0.268-0.525,0.402-0.791c0.589-5.664,1.114-5.95,2.113-6.494
			c2.205-1.202,3.569-0.561,4.329,0.18c1.671,1.629,1.021,3.461-1.141,7.758c-0.343,3.7-0.733,9.024-1.036,13.946
			C1069.85,610.778,1068.666,611.876,1067.254,611.876z"/>
		<path d="M1201.307,566.894c-1.412,0-2.596-1.098-2.684-2.525c-0.303-4.923-0.693-10.249-1.037-13.952
			c-2.161-4.293-2.809-6.125-1.139-7.754c0.759-0.742,2.13-1.376,4.324-0.18c1.001,0.544,1.527,0.832,2.114,6.49
			c0.137,0.269,0.271,0.533,0.406,0.796c1.571,3.075,3.528,6.903,5.372,11.311c0.572,1.371-0.072,2.946-1.443,3.521
			c-1.198,0.499-2.547,0.073-3.252-0.951c0.009,0.13,0.018,0.259,0.024,0.391c0.091,1.483-1.037,2.759-2.521,2.85
			C1201.416,566.892,1201.36,566.894,1201.307,566.894z"/>
		<path d="M1174.977,572.486c-1.411,0-2.596-1.099-2.684-2.525c-0.303-4.924-0.693-10.25-1.036-13.95
			c-2.161-4.293-2.81-6.127-1.139-7.756c0.76-0.739,2.128-1.377,4.324-0.181c1,0.545,1.527,0.832,2.114,6.493
			c0.137,0.266,0.271,0.53,0.406,0.793c1.571,3.075,3.527,6.904,5.372,11.311c0.572,1.372-0.072,2.946-1.443,3.521
			c-1.198,0.501-2.547,0.074-3.253-0.951c0.009,0.13,0.018,0.26,0.024,0.391c0.092,1.484-1.036,2.759-2.521,2.85
			C1175.087,572.484,1175.031,572.486,1174.977,572.486z"/>
		<path d="M1147.488,582.335c-1.412,0-2.596-1.099-2.684-2.526c-0.303-4.925-0.693-10.249-1.037-13.951
			c-2.161-4.293-2.81-6.127-1.139-7.756c0.759-0.739,2.13-1.375,4.324-0.181c1,0.545,1.527,0.834,2.114,6.494
			c0.137,0.267,0.273,0.533,0.406,0.794c1.571,3.077,3.527,6.904,5.372,11.311c0.572,1.371-0.072,2.946-1.443,3.521
			c-1.198,0.499-2.547,0.072-3.252-0.951c0.008,0.13,0.018,0.26,0.024,0.391c0.091,1.483-1.037,2.759-2.521,2.85
			C1147.598,582.333,1147.542,582.335,1147.488,582.335z"/>
		<path d="M1123.432,598.323c-1.412,0-2.596-1.098-2.684-2.525c-0.303-4.923-0.693-10.249-1.036-13.95
			c-2.161-4.293-2.81-6.125-1.139-7.754c0.759-0.744,2.13-1.375,4.324-0.18c1,0.543,1.527,0.828,2.114,6.49
			c0.137,0.267,0.273,0.532,0.406,0.795c1.57,3.076,3.527,6.902,5.371,11.31c0.573,1.369-0.071,2.946-1.442,3.521
			c-1.198,0.501-2.547,0.073-3.253-0.951c0.009,0.13,0.018,0.259,0.024,0.391c0.091,1.483-1.036,2.759-2.521,2.85
			C1123.542,598.322,1123.486,598.323,1123.432,598.323z"/>
		<path d="M1101.286,611.874c-1.411,0-2.596-1.098-2.683-2.525c-0.304-4.923-0.695-10.249-1.039-13.95
			c-2.159-4.293-2.81-6.125-1.139-7.754c0.762-0.744,2.13-1.378,4.326-0.182c1,0.546,1.525,0.834,2.114,6.49
			c0.135,0.267,0.27,0.531,0.402,0.792c1.573,3.077,3.529,6.906,5.374,11.314c0.572,1.371-0.074,2.948-1.443,3.521
			c-1.198,0.501-2.541,0.072-3.251-0.949c0.009,0.13,0.018,0.259,0.024,0.389c0.092,1.481-1.036,2.759-2.52,2.85
			C1101.396,611.873,1101.341,611.874,1101.286,611.874z"/>
		<path d="M1088.28,471.792c-0.066,0-0.135-0.002-0.203-0.007c-1.024-0.077-1.916-0.732-2.296-1.688l-13.912-34.941l-5.149,7.206
			c-0.585,0.819-1.58,1.25-2.573,1.098c-0.996-0.144-1.828-0.831-2.157-1.781l-9.118-26.296l-6.505,3.02
			c-0.669,0.312-1.437,0.333-2.123,0.063c-0.685-0.271-1.229-0.813-1.506-1.498l-10.877-26.995
			c-0.555-1.378,0.112-2.944,1.491-3.499c1.378-0.559,2.943,0.11,3.501,1.489l9.816,24.368l6.635-3.081
			c0.691-0.319,1.483-0.333,2.185-0.037c0.7,0.298,1.241,0.877,1.49,1.596l8.389,24.193l4.988-6.983
			c0.573-0.8,1.527-1.229,2.514-1.107c0.978,0.119,1.811,0.762,2.176,1.676l13.695,34.404l20.671-35.313
			c0.512-0.873,1.439-1.382,2.479-1.328c1.009,0.06,1.9,0.679,2.307,1.604l1.978,4.501l5.431-20.131
			c0.238-0.883,0.907-1.583,1.778-1.862c0.865-0.278,1.821-0.098,2.529,0.485l6.965,5.727l6.227-29.601
			c0.305-1.454,1.744-2.385,3.186-2.079c1.454,0.307,2.386,1.732,2.079,3.186l-7.141,33.945c-0.192,0.919-0.853,1.672-1.741,1.984
			c-0.886,0.312-1.872,0.138-2.601-0.46l-7.172-5.899l-6.335,23.479c-0.298,1.102-1.258,1.897-2.396,1.983
			c-1.091,0.093-2.205-0.555-2.664-1.601l-2.928-6.666l-20.788,35.516C1090.117,471.289,1089.231,471.792,1088.28,471.792z"/>
		<path d="M1084.016,513.488c-1.862,0-3.796-0.102-5.816-0.316c-25.383-2.701-33.224-10.844-44.079-22.112
			c-1.408-1.46-2.876-2.986-4.452-4.571c-14.562-14.646-37.168-18.15-37.396-18.184c-1.468-0.217-2.483-1.585-2.266-3.054
			c0.217-1.468,1.569-2.494,3.053-2.268c0.994,0.147,24.576,3.772,40.423,19.712c1.598,1.606,3.086,3.151,4.512,4.632
			c10.813,11.226,17.34,18,40.773,20.495c17.545,1.86,27.952-5.771,38.958-13.854c5.423-3.981,11.027-8.099,17.546-11.031
			c18.621-8.375,45.783-10.556,46.928-10.645c1.503-0.097,2.776,0.993,2.891,2.475c0.115,1.48-0.993,2.774-2.474,2.89
			c-0.271,0.021-27.382,2.202-45.138,10.188c-5.999,2.697-11.133,6.468-16.567,10.46
			C1110.732,505.782,1100.237,513.488,1084.016,513.488z"/>
		<path d="M1083.773,541.706c-1.969,0-4.016-0.102-6.15-0.315c-26.95-2.689-35.287-10.813-46.827-22.054
			c-1.499-1.461-3.063-2.984-4.743-4.569c-15.591-14.713-42.599-18.201-42.87-18.236c-1.475-0.183-2.521-1.525-2.338-3
			c0.182-1.474,1.532-2.522,3-2.339c1.177,0.146,29.041,3.752,45.9,19.662c1.702,1.606,3.287,3.149,4.806,4.629
			c11.555,11.255,18.528,18.051,43.605,20.555c18.814,1.876,29.954-5.784,41.729-13.899c5.768-3.974,11.729-8.084,18.653-11.006
			c19.798-8.356,48.688-10.533,49.909-10.622c1.466-0.114,2.769,1.005,2.877,2.488c0.107,1.481-1.007,2.77-2.488,2.878
			c-0.289,0.021-29.233,2.207-48.207,10.213c-6.414,2.707-11.893,6.483-17.691,10.48
			C1112.123,534.022,1100.977,541.706,1083.773,541.706z"/>
		<path d="M1080.859,562.638c-0.748,0-1.489-0.31-2.02-0.911l-7.227-8.194l-11.451,6.624c-0.641,0.371-1.41,0.46-2.117,0.248
			c-0.711-0.213-1.302-0.709-1.634-1.371l-5.619-11.2l-13.646,4.804c-0.699,0.247-1.479,0.193-2.141-0.154
			c-0.66-0.345-1.148-0.95-1.347-1.67l-3.21-11.669l-15.188,4.442c-0.755,0.224-1.571,0.1-2.229-0.333
			c-0.66-0.431-1.097-1.132-1.195-1.913l-1.886-14.981l-16.362,5.956c-0.707,0.258-1.483,0.211-2.15-0.135
			c-0.666-0.341-1.159-0.945-1.361-1.667l-3.011-10.756l-11.571,7.233c-1.26,0.788-2.92,0.406-3.706-0.854
			c-0.788-1.259-0.406-2.92,0.854-3.706l14.619-9.141c0.719-0.45,1.609-0.538,2.397-0.228c0.79,0.307,1.392,0.967,1.619,1.783
			l3.196,11.421l16.803-6.116c0.768-0.28,1.622-0.194,2.321,0.231c0.698,0.427,1.166,1.146,1.268,1.96l1.915,15.195l14.781-4.322
			c0.69-0.205,1.435-0.119,2.065,0.232c0.631,0.351,1.093,0.94,1.284,1.636l3.17,11.521l13.158-4.633
			c1.273-0.45,2.69,0.119,3.298,1.331l5.401,10.767l10.888-6.299c1.11-0.645,2.519-0.409,3.364,0.55l6.979,7.917l8.271-6.68
			c0.852-0.688,2.037-0.789,2.989-0.263l12.136,6.7l4.449-14.384c0.219-0.708,0.72-1.295,1.385-1.62
			c0.668-0.324,1.44-0.361,2.13-0.104l17.725,6.657l5.231-19.07c0.211-0.767,0.748-1.4,1.47-1.733
			c0.722-0.331,1.552-0.328,2.273,0.012l20.616,9.734l9.674-18.18c0.672-1.263,2.223-1.779,3.512-1.173l23.93,11.158
			c1.347,0.627,1.93,2.228,1.301,3.574c-0.627,1.347-2.229,1.927-3.574,1.302l-21.618-10.08l-9.679,18.191
			c-0.674,1.268-2.225,1.782-3.523,1.168l-20.038-9.462l-5.165,18.825c-0.2,0.73-0.697,1.342-1.372,1.685
			c-0.674,0.345-1.464,0.387-2.168,0.123l-17.813-6.691l-4.581,14.815c-0.238,0.772-0.813,1.398-1.564,1.701
			c-0.748,0.301-1.598,0.252-2.305-0.141l-13.446-7.424l-8.867,7.162C1082.052,562.441,1081.453,562.638,1080.859,562.638z"/>
		<path d="M1093.981,412.26c-26.708,0-42.124-27.204-42.777-28.378c-0.72-1.298-0.253-2.932,1.044-3.655
			c1.297-0.722,2.934-0.256,3.658,1.042c0.147,0.264,14.935,26.352,39.12,25.596c24.037-0.737,32.928-24.009,33.015-24.244
			c0.516-1.394,2.061-2.105,3.456-1.59c1.395,0.517,2.105,2.063,1.589,3.458c-0.099,0.27-10.276,26.907-37.895,27.755
			C1094.787,412.255,1094.381,412.26,1093.981,412.26z"/>
	</g>
	<g>
		<path d="M745.837,613.304c-15.785,0-32.606-8.842-50.178-26.412c-22.296-22.296-30.537-43.385-24.493-62.681
			c8.326-26.585,41.376-40.987,55.174-43.476c8.973-1.615,10.462-5.042,12.93-10.722c2.541-5.85,6.021-13.861,19.091-21.869
			c16.306-9.998,33.339-8.572,50.623,4.237c1.193,0.884,1.443,2.569,0.56,3.764c-0.885,1.194-2.569,1.445-3.763,0.559
			c-15.565-11.531-30.154-12.833-44.609-3.972c-11.621,7.122-14.462,13.658-16.966,19.425c-2.626,6.042-5.104,11.749-16.912,13.875
			c-10.903,1.965-43.244,15.049-50.993,39.787c-5.397,17.234,2.396,36.502,23.163,57.27c20.769,20.767,40.037,28.559,57.269,23.161
			c24.741-7.75,37.821-40.089,39.786-50.992c2.127-11.806,7.833-14.286,13.875-16.911c5.768-2.507,12.304-5.346,19.427-16.967
			c8.677-14.157,7.327-29.156-4.011-44.581c-0.881-1.198-0.623-2.881,0.573-3.761c1.196-0.881,2.883-0.625,3.762,0.575
			c12.76,17.357,14.194,34.375,4.264,50.58c-8.01,13.068-16.021,16.548-21.869,19.088c-5.682,2.469-9.109,3.958-10.726,12.931
			c-2.487,13.798-16.884,46.846-43.473,55.174C754.253,612.664,750.081,613.304,745.837,613.304z"/>
		<path d="M766.172,540.508c-6.444,0-12.504-2.51-17.062-7.066c-4.557-4.558-7.066-10.617-7.066-17.063s2.51-12.506,7.066-17.062
			c4.558-4.559,10.616-7.068,17.062-7.068s12.505,2.51,17.063,7.068c9.408,9.405,9.408,24.713,0,34.124
			C778.677,537.998,772.617,540.508,766.172,540.508z M766.172,497.629c-5.008,0-9.716,1.951-13.257,5.493
			c-3.542,3.539-5.491,8.247-5.491,13.257c0,5.007,1.949,9.717,5.491,13.258c3.541,3.542,8.249,5.491,13.257,5.491
			c5.009,0,9.717-1.949,13.258-5.491c7.311-7.313,7.311-19.206,0-26.515C775.889,499.58,771.181,497.629,766.172,497.629z"/>
		<path d="M740.217,573.831c-0.688,0-1.377-0.263-1.902-0.788l-28.808-28.806c-0.504-0.505-0.788-1.189-0.788-1.902
			c0-0.715,0.284-1.397,0.788-1.902l6.183-6.181c1.051-1.051,2.753-1.051,3.805,0l28.806,28.807
			c0.504,0.504,0.788,1.188,0.788,1.901s-0.284,1.397-0.788,1.902l-6.181,6.181C741.594,573.568,740.905,573.831,740.217,573.831z
			 M715.215,542.335l25.002,25.002l2.377-2.377l-25.002-25.002L715.215,542.335z"/>
		<path d="M798.671,504.155L798.671,504.155c-0.712,0-1.397-0.284-1.901-0.788l-17.486-17.488c-1.051-1.051-1.051-2.753,0-3.804
			l79.732-79.733c1.009-1.009,2.795-1.009,3.805,0l17.486,17.488c1.051,1.051,1.051,2.753,0,3.804l-79.733,79.733
			C800.069,503.871,799.386,504.155,798.671,504.155z M784.989,483.977l13.682,13.685l75.929-75.929l-13.682-13.682L784.989,483.977
			z"/>
		<path d="M878.431,424.447c-0.697,0-1.386-0.268-1.904-0.788l-17.537-17.537c-0.874-0.874-1.04-2.228-0.404-3.288
			c0.693-1.156,17.041-28.356,21.746-33.563c3.592-3.972,8.242-6.538,11.849-6.538c1.989,0,3.181,0.774,3.83,1.424l22.479,22.48
			c0.678,0.678,1.475,1.928,1.423,4.03c-0.092,3.624-2.596,8.088-6.535,11.649c-5.207,4.706-32.408,21.054-33.563,21.748
			C879.383,424.321,878.905,424.447,878.431,424.447z M864.282,403.804l14.56,14.562c8.785-5.31,27.205-16.677,30.928-20.042
			c3.848-3.479,4.93-7.02,4.762-8.036l-22.164-22.167c-0.046-0.005-0.107-0.009-0.188-0.009c-1.426,0-4.696,1.27-7.857,4.766
			C880.96,376.601,869.593,395.021,864.282,403.804z"/>
		<path d="M881.248,375.084c-0.688,0-1.376-0.263-1.901-0.788l-7.116-7.116c-1.051-1.049-1.051-2.753,0-3.804
			c1.051-1.051,2.753-1.051,3.804,0l7.116,7.116c1.051,1.049,1.051,2.753,0,3.804C882.625,374.821,881.937,375.084,881.248,375.084z
			"/>
		<path d="M874.873,381.459c-0.688,0-1.376-0.263-1.902-0.788l-7.114-7.116c-1.051-1.051-1.051-2.753,0-3.804
			c1.052-1.051,2.754-1.051,3.805,0l7.114,7.116c1.051,1.051,1.051,2.753,0,3.804C876.25,381.197,875.562,381.459,874.873,381.459z"
			/>
		<path d="M870.869,390.204c-0.688,0-1.376-0.263-1.901-0.788l-7.116-7.116c-1.051-1.049-1.051-2.753,0-3.804
			c1.051-1.051,2.753-1.051,3.804,0l7.116,7.116c1.051,1.049,1.051,2.753,0,3.804C872.246,389.941,871.558,390.204,870.869,390.204z
			"/>
		<path d="M917.912,411.747c-0.688,0-1.377-0.263-1.902-0.788l-7.114-7.114c-1.051-1.051-1.051-2.755,0-3.804
			c1.051-1.051,2.753-1.051,3.804,0l7.114,7.114c1.051,1.049,1.051,2.753,0,3.804C919.288,411.484,918.6,411.747,917.912,411.747z"
			/>
		<path d="M911.536,418.123c-0.688,0-1.376-0.263-1.901-0.789l-7.115-7.114c-1.051-1.051-1.051-2.755,0-3.804
			c1.051-1.051,2.754-1.051,3.805,0l7.114,7.115c1.051,1.049,1.051,2.753,0,3.804C912.913,417.86,912.225,418.123,911.536,418.123z"
			/>
		<path d="M902.791,422.128c-0.688,0-1.376-0.263-1.901-0.788l-7.114-7.116c-1.052-1.051-1.052-2.753,0-3.804
			c1.051-1.051,2.753-1.051,3.804,0l7.114,7.116c1.051,1.051,1.051,2.753,0,3.804C904.168,421.865,903.479,422.128,902.791,422.128z
			"/>
	</g>
	<g>
		<g>
			<path d="M257.63,488.082c-1.001,0-1.963-0.562-2.426-1.525c-0.644-1.338-0.08-2.946,1.259-3.589
				c17.262-8.296,28.86-29.73,28.86-53.335c0-31.391-19.921-56.929-44.407-56.929c-24.487,0-44.409,25.538-44.409,56.929
				c0,23.415,11.473,44.786,28.549,53.181c1.334,0.655,1.883,2.266,1.228,3.601c-0.655,1.333-2.266,1.886-3.601,1.226
				c-19.17-9.423-31.557-32.191-31.557-58.008c0-34.358,22.335-62.31,49.789-62.31c27.453,0,49.788,27.952,49.788,62.31
				c0,25.629-12.823,49.011-31.91,58.183C258.418,487.998,258.021,488.082,257.63,488.082z"/>
			<path d="M234.743,501.551c-0.16,0-0.324-0.014-0.488-0.044c-8.967-1.645-14.761-6.405-14.761-12.128
				c0-7.122,9.305-12.7,21.183-12.7c11.877,0,21.181,5.578,21.181,12.7c0,5.723-5.793,10.484-14.76,12.128
				c-1.456,0.263-2.863-0.698-3.131-2.161c-0.268-1.461,0.7-2.863,2.161-3.132c5.997-1.098,10.35-3.974,10.35-6.835
				c0-3.456-6.757-7.319-15.801-7.319c-9.044,0-15.802,3.864-15.802,7.319c0,2.862,4.353,5.738,10.351,6.835
				c1.461,0.269,2.429,1.669,2.161,3.132C237.148,500.644,236.017,501.551,234.743,501.551z"/>
			<path d="M240.675,587.976c-0.38,0-9.356-0.08-13.573-7.108c-2.313-3.855-1.234-23.287,4.125-74.258
				c0.701-6.679,1.256-11.952,1.295-13.094c0.143-4.202,2.923-6.917,7.084-6.917c0.423,0,0.791,0.03,1.068,0.062
				c0.278-0.032,0.646-0.062,1.068-0.062c4.162,0,6.943,2.715,7.085,6.917c0.039,1.142,0.594,6.424,1.297,13.109
				c5.358,50.96,6.437,70.387,4.124,74.242C250.033,587.896,241.055,587.976,240.675,587.976z M239.607,491.979
				c-1.41,0-1.667,0.53-1.707,1.718c-0.043,1.273-0.482,5.496-1.321,13.474c-1.897,18.04-6.935,65.962-4.815,71.017
				c2.536,4.217,8.609,4.401,8.912,4.408c0.302-0.007,6.379-0.193,8.961-4.496c2.072-4.967-2.965-52.876-4.861-70.911
				c-0.84-7.99-1.28-12.218-1.323-13.491c-0.041-1.188-0.297-1.718-1.708-1.718c-0.287,0-0.5,0.029-0.563,0.042
				c-0.333,0.058-0.708,0.061-1.042-0.008C240.107,492.009,239.893,491.979,239.607,491.979z"/>
			<path d="M198.195,457.442c-1.017,0-1.99-0.58-2.444-1.564c-0.623-1.349-0.034-2.948,1.314-3.569
				c44.572-20.583,86.01-0.829,87.754,0.024c1.334,0.651,1.887,2.261,1.236,3.596c-0.651,1.334-2.26,1.89-3.596,1.24
				c-0.403-0.196-40.945-19.455-83.139,0.025C198.956,457.362,198.572,457.442,198.195,457.442z"/>
			<path d="M198.195,407.605c-1.017,0-1.99-0.58-2.444-1.564c-0.623-1.349-0.034-2.948,1.314-3.569
				c44.572-20.587,86.01-0.827,87.754,0.024c1.334,0.651,1.887,2.261,1.236,3.596c-0.651,1.334-2.26,1.892-3.596,1.24
				c-0.403-0.196-40.945-19.46-83.139,0.025C198.956,407.524,198.572,407.605,198.195,407.605z"/>
			<path d="M194.806,419.751c-1.045,0-2.038-0.611-2.475-1.634c-0.584-1.366,0.051-2.946,1.417-3.531
				c1.548-0.662,3.094-1.281,4.634-1.862c1.391-0.522,2.941,0.179,3.466,1.569c0.524,1.391-0.179,2.942-1.569,3.466
				c-1.468,0.554-2.94,1.144-4.417,1.774C195.518,419.681,195.159,419.751,194.806,419.751z M287.024,419.751
				c-0.371,0-0.746-0.077-1.105-0.238c-0.029-0.014-3.011-1.351-8.133-2.958c-1.417-0.445-2.206-1.955-1.761-3.372
				c0.446-1.417,1.959-2.205,3.373-1.762c5.464,1.715,8.607,3.128,8.739,3.188c1.353,0.613,1.953,2.205,1.342,3.559
				C289.028,419.163,288.048,419.751,287.024,419.751z M207.841,415.121c-1.17,0-2.247-0.771-2.585-1.951
				c-0.408-1.429,0.419-2.918,1.848-3.326c2.921-0.835,5.923-1.564,8.922-2.165c1.46-0.294,2.874,0.651,3.167,2.108
				c0.292,1.456-0.651,2.874-2.109,3.167c-2.857,0.572-5.717,1.266-8.501,2.063C208.335,415.087,208.086,415.121,207.841,415.121z
				 M269.943,414.306c-0.206,0-0.415-0.025-0.623-0.074c-2.837-0.672-5.735-1.257-8.616-1.739c-1.466-0.245-2.456-1.63-2.21-3.097
				c0.244-1.466,1.637-2.459,3.096-2.21c3,0.501,6.017,1.11,8.969,1.811c1.446,0.341,2.34,1.792,1.998,3.236
				C272.264,413.472,271.161,414.306,269.943,414.306z M225.403,411.588c-1.342,0-2.503-1.002-2.667-2.37
				c-0.177-1.475,0.875-2.814,2.351-2.991c3.008-0.361,6.082-0.613,9.136-0.75c1.485-0.065,2.742,1.084,2.808,2.567
				c0.065,1.485-1.083,2.743-2.568,2.808c-2.919,0.13-5.858,0.372-8.734,0.716C225.619,411.583,225.51,411.588,225.403,411.588z
				 M252.261,411.351c-0.089,0-0.177-0.003-0.267-0.012c-2.914-0.285-5.862-0.473-8.763-0.555c-1.485-0.042-2.655-1.28-2.613-2.766
				c0.042-1.485,1.287-2.648,2.766-2.613c3.025,0.085,6.1,0.28,9.136,0.58c1.479,0.144,2.56,1.46,2.415,2.939
				C254.799,410.314,253.628,411.351,252.261,411.351z"/>
			<path d="M194.806,444.651c-1.045,0-2.038-0.611-2.475-1.634c-0.584-1.366,0.051-2.946,1.417-3.531
				c1.548-0.662,3.094-1.28,4.634-1.862c1.391-0.521,2.941,0.179,3.466,1.569c0.524,1.391-0.179,2.943-1.569,3.466
				c-1.468,0.553-2.94,1.144-4.417,1.774C195.518,444.582,195.159,444.651,194.806,444.651z M287.024,444.651
				c-0.371,0-0.746-0.077-1.105-0.238c-0.029-0.014-3.011-1.35-8.133-2.958c-1.417-0.445-2.206-1.955-1.761-3.372
				c0.446-1.417,1.959-2.205,3.373-1.762c5.464,1.714,8.607,3.128,8.739,3.188c1.353,0.613,1.953,2.205,1.342,3.559
				C289.028,444.063,288.048,444.651,287.024,444.651z M207.841,440.021c-1.17,0-2.247-0.771-2.585-1.951
				c-0.408-1.429,0.419-2.918,1.848-3.326c2.921-0.835,5.923-1.564,8.922-2.165c1.46-0.289,2.874,0.652,3.167,2.109
				c0.292,1.456-0.651,2.874-2.109,3.167c-2.857,0.573-5.717,1.267-8.501,2.063C208.335,439.987,208.086,440.021,207.841,440.021z
				 M269.943,439.206c-0.206,0-0.415-0.024-0.623-0.073c-2.837-0.673-5.735-1.258-8.616-1.739c-1.466-0.245-2.456-1.631-2.21-3.097
				c0.244-1.466,1.637-2.457,3.096-2.21c3,0.5,6.017,1.11,8.969,1.811c1.446,0.342,2.34,1.792,1.998,3.237
				C272.264,438.373,271.161,439.206,269.943,439.206z M225.403,436.488c-1.342,0-2.503-1.002-2.667-2.37
				c-0.177-1.475,0.875-2.814,2.351-2.991c3.008-0.361,6.082-0.613,9.136-0.75c1.485-0.083,2.742,1.084,2.808,2.567
				c0.065,1.485-1.083,2.743-2.568,2.808c-2.919,0.129-5.858,0.371-8.734,0.716C225.619,436.483,225.51,436.488,225.403,436.488z
				 M252.261,436.251c-0.089,0-0.177-0.003-0.267-0.012c-2.914-0.285-5.862-0.473-8.763-0.555c-1.485-0.042-2.655-1.28-2.613-2.766
				c0.042-1.485,1.287-2.645,2.766-2.613c3.025,0.085,6.1,0.28,9.136,0.58c1.479,0.144,2.56,1.46,2.415,2.939
				C254.799,435.215,253.628,436.251,252.261,436.251z"/>
		</g>
		<g>
			<path d="M325.91,503.76c-0.198,0-0.393-0.002-0.591-0.004c-1.485-0.021-2.674-1.242-2.654-2.727
				c0.021-1.474,1.221-2.654,2.689-2.654c0.174-0.001,0.375,0.004,0.563,0.004c18.989,0,38.649-13.961,49.064-34.903
				c6.824-13.721,9.024-28.687,6.197-42.14c-2.777-13.222-10.098-23.382-20.61-28.61c-21.927-10.903-51.134,3.093-65.113,31.198
				c-10.424,20.965-9.667,45.21,1.884,60.332c0.902,1.181,0.676,2.869-0.504,3.771c-1.182,0.898-2.871,0.674-3.771-0.506
				c-12.967-16.973-13.919-42.877-2.427-65.993c15.299-30.762,47.741-45.844,72.327-33.621c12.018,5.976,20.356,17.455,23.48,32.321
				c3.075,14.633,0.714,30.843-6.645,45.643C368.493,488.604,346.899,503.76,325.91,503.76z"/>
			<path d="M316.343,511.963c-2.328,0-4.891-0.376-7.592-1.154c-1.427-0.409-2.252-1.9-1.842-3.327
				c0.41-1.43,1.899-2.258,3.329-1.843c5.86,1.684,11.039,1.047,12.313-1.514c1.537-3.093-2.792-9.563-10.889-13.589
				c-3.971-1.978-8.228-3.058-11.723-2.92c-2.894,0.1-4.966,0.988-5.686,2.437c-1.275,2.563,1.342,7.077,6.224,10.729
				c1.189,0.89,1.432,2.576,0.542,3.766c-0.891,1.188-2.576,1.429-3.767,0.543c-7.298-5.463-10.367-12.306-7.817-17.434
				c1.652-3.321,5.315-5.244,10.318-5.417c4.413-0.167,9.49,1.083,14.307,3.48c10.632,5.287,16.479,14.425,13.309,20.802
				C325.604,510.064,321.565,511.963,316.343,511.963z"/>
			<path d="M272.357,587.143c-4.251,0-7.713-1.695-7.858-1.77c-0.342-0.17-8.344-4.242-8.989-12.412
				c-0.354-4.48,9.264-21.396,36.754-64.643c3.605-5.671,6.452-10.149,6.995-11.155c1.836-3.399,4.521-3.905,5.957-3.905
				c1.986,0,3.622,0.886,4.405,1.401c1.056,0.382,3.336,1.444,4.436,3.771c0.588,1.247,1.032,3.298-0.197,5.995
				c-0.473,1.039-2.323,6.004-4.666,12.29c-17.9,48.031-25.587,65.914-29.375,68.336
				C277.646,586.439,275.136,587.143,272.357,587.143z M305.215,498.638c-0.174,0-0.638,0-1.223,1.083
				c-0.606,1.121-2.881,4.709-7.188,11.484c-9.73,15.306-35.575,55.964-35.929,61.432c0.399,4.986,5.963,7.893,6.019,7.92
				c0.013,0.007,2.513,1.205,5.462,1.205c1.735,0,3.27-0.419,4.562-1.243c4.067-3.526,20.896-48.684,27.232-65.683
				c2.799-7.511,4.284-11.484,4.812-12.643c0.206-0.451,0.413-1.073,0.228-1.466c-0.261-0.552-1.243-0.974-1.482-1.038
				c-0.35-0.094-0.677-0.256-0.962-0.479C306.51,499.036,305.787,498.638,305.215,498.638z"/>
			<path d="M362.291,487.902c-0.807,0-1.604-0.361-2.134-1.047c-0.275-0.357-27.999-35.656-74.453-37
				c-1.485-0.043-2.654-1.282-2.611-2.767s1.291-2.64,2.767-2.611c49.076,1.418,77.382,37.56,78.563,39.097
				c0.905,1.179,0.683,2.866-0.494,3.771C363.439,487.721,362.863,487.902,362.291,487.902z"/>
			<path d="M384.482,443.278c-0.806,0-1.604-0.361-2.134-1.049c-0.275-0.356-27.999-35.658-74.453-36.998
				c-1.484-0.044-2.654-1.282-2.611-2.768c0.042-1.485,1.25-2.667,2.768-2.611c49.075,1.415,77.381,37.56,78.563,39.098
				c0.903,1.179,0.682,2.865-0.495,3.771C385.631,443.096,385.055,443.278,384.482,443.278z"/>
			<path d="M382.106,455.665c-0.78,0-1.554-0.338-2.085-0.988c-0.02-0.024-2.099-2.554-5.977-6.281
				c-1.072-1.028-1.106-2.732-0.076-3.802c1.029-1.074,2.733-1.107,3.803-0.077c4.137,3.976,6.326,6.645,6.417,6.757
				c0.938,1.15,0.767,2.844-0.383,3.783C383.307,455.465,382.705,455.665,382.106,455.665z M369.21,443.167
				c-0.607,0-1.216-0.205-1.719-0.624c-2.238-1.862-4.575-3.678-6.944-5.395c-1.203-0.871-1.472-2.554-0.601-3.757
				c0.873-1.202,2.553-1.471,3.757-0.601c2.467,1.789,4.899,3.678,7.23,5.617c1.141,0.951,1.296,2.648,0.346,3.788
				C370.747,442.835,369.982,443.167,369.21,443.167z M354.683,432.646c-0.488,0-0.981-0.131-1.425-0.41
				c-2.491-1.559-5.048-3.037-7.602-4.396c-1.311-0.699-1.808-2.328-1.11-3.64c0.699-1.31,2.328-1.809,3.64-1.11
				c2.663,1.417,5.331,2.96,7.927,4.585c1.259,0.788,1.641,2.448,0.853,3.708C356.456,432.199,355.579,432.646,354.683,432.646z
				 M338.858,424.228c-0.364,0-0.733-0.075-1.088-0.231c-2.679-1.188-5.418-2.278-8.14-3.245c-1.4-0.498-2.132-2.035-1.635-3.435
				c0.498-1.399,2.035-2.137,3.436-1.636c2.85,1.013,5.715,2.154,8.519,3.396c1.358,0.601,1.972,2.189,1.37,3.548
				C340.875,423.631,339.89,424.228,338.858,424.228z M321.973,418.238c-0.232,0-0.468-0.031-0.702-0.094
				c-2.816-0.759-5.686-1.41-8.53-1.936c-1.462-0.27-2.427-1.673-2.157-3.133c0.271-1.461,1.682-2.424,3.134-2.158
				c2.986,0.552,5.998,1.236,8.953,2.032c1.435,0.387,2.285,1.863,1.898,3.298C324.246,417.446,323.16,418.238,321.973,418.238z
				 M304.362,414.984c-0.091,0-0.183-0.003-0.275-0.014c-1.55-0.156-3.121-0.282-4.71-0.373c-1.484-0.086-2.617-1.357-2.532-2.841
				c0.084-1.483,1.366-2.611,2.84-2.531c1.669,0.096,3.318,0.228,4.945,0.392c1.478,0.151,2.555,1.47,2.405,2.948
				C306.895,413.952,305.726,414.984,304.362,414.984z"/>
			<path d="M371.019,477.959c-0.78,0-1.553-0.338-2.085-0.988c-0.02-0.025-2.099-2.554-5.977-6.281
				c-1.072-1.028-1.106-2.732-0.076-3.803c1.029-1.073,2.733-1.106,3.803-0.077c4.137,3.976,6.326,6.645,6.417,6.757
				c0.939,1.151,0.767,2.844-0.382,3.783C372.219,477.759,371.617,477.959,371.019,477.959z M358.123,465.46
				c-0.606,0-1.217-0.205-1.719-0.624c-2.241-1.863-4.578-3.68-6.944-5.393c-1.204-0.872-1.472-2.554-0.601-3.757
				c0.872-1.203,2.553-1.471,3.757-0.601c2.464,1.785,4.896,3.672,7.23,5.615c1.142,0.951,1.298,2.646,0.347,3.789
				C359.661,465.129,358.895,465.46,358.123,465.46z M343.596,454.941c-0.488,0-0.981-0.133-1.425-0.41
				c-2.491-1.559-5.048-3.039-7.602-4.397c-1.311-0.699-1.808-2.328-1.11-3.64c0.699-1.31,2.327-1.81,3.64-1.11
				c2.663,1.418,5.331,2.961,7.927,4.587c1.259,0.788,1.641,2.449,0.853,3.708C345.368,454.493,344.491,454.941,343.596,454.941z
				 M327.77,446.522c-0.364,0-0.733-0.073-1.088-0.231c-2.681-1.186-5.419-2.279-8.141-3.244c-1.4-0.498-2.132-2.035-1.635-3.437
				c0.496-1.399,2.032-2.131,3.435-1.634c2.849,1.011,5.715,2.153,8.519,3.395c1.358,0.603,1.972,2.191,1.371,3.55
				C329.786,445.925,328.802,446.522,327.77,446.522z M310.885,440.534c-0.231,0-0.467-0.031-0.701-0.094
				c-2.82-0.758-5.69-1.41-8.531-1.934c-1.462-0.271-2.427-1.674-2.157-3.135c0.271-1.46,1.683-2.429,3.134-2.156
				c2.982,0.55,5.994,1.233,8.952,2.03c1.436,0.385,2.285,1.862,1.899,3.296C313.157,439.742,312.071,440.534,310.885,440.534z
				 M293.274,437.281c-0.091,0-0.183-0.005-0.275-0.014c-1.55-0.158-3.121-0.284-4.711-0.375c-1.483-0.084-2.616-1.357-2.531-2.839
				c0.084-1.485,1.374-2.624,2.84-2.533c1.669,0.096,3.318,0.228,4.945,0.394c1.478,0.149,2.555,1.469,2.404,2.948
				C295.807,436.248,294.637,437.281,293.274,437.281z"/>
		</g>
	</g>
	<g>
		<path d="M541.063,584.035c-0.688,0-1.377-0.263-1.902-0.788c-3.151-3.149-35.092-143.018-18.902-207.683
			c4.62-18.455,12.874-29.606,24.53-33.143c1.424-0.431,2.923,0.371,3.356,1.793c0.431,1.422-0.372,2.923-1.793,3.356
			c-6.779,2.056-12.28,7.498-16.351,16.176c-25.366,54.076,10.499,208.726,13.398,216.262c0.588,1.028,0.445,2.36-0.433,3.238
			C542.44,583.772,541.75,584.035,541.063,584.035z"/>
		<path d="M543.602,584.035c-1.037,0-2.026-0.603-2.467-1.613c-0.796-1.821-6.512-58.902-8.944-113.336
			c-5.118-114.522,7.648-123.388,11.843-126.3c1.219-0.85,2.896-0.546,3.744,0.676c0.848,1.219,0.545,2.896-0.675,3.743
			c-5.376,3.734-13.774,24.282-9.611,119.957c2.422,55.675,8.005,109.762,8.701,113.464c0.354,1.271-0.272,2.642-1.516,3.185
			C544.327,583.963,543.961,584.035,543.602,584.035z"/>
		<path d="M550.077,584.035c-0.688,0-1.377-0.263-1.902-0.788c-0.877-0.878-1.022-2.21-0.433-3.238
			c2.899-7.538,38.761-162.195,13.396-216.262c-4.07-8.679-9.571-14.12-16.351-16.176c-1.421-0.433-2.224-1.934-1.793-3.356
			c0.433-1.422,1.929-2.225,3.356-1.793c11.654,3.534,19.907,14.682,24.528,33.132c16.195,64.654-15.747,204.542-18.899,207.693
			C551.454,583.772,550.766,584.035,550.077,584.035z"/>
		<path d="M547.537,584.035c-0.359,0-0.725-0.072-1.075-0.226c-1.244-0.543-1.87-1.913-1.516-3.185
			c0.696-3.702,6.279-57.789,8.701-113.464c4.162-95.674-4.236-116.223-9.612-119.957c-1.221-0.846-1.523-2.524-0.675-3.743
			c0.846-1.223,2.521-1.526,3.744-0.676c4.196,2.913,16.961,11.778,11.844,126.3c-2.432,54.434-8.147,111.515-8.944,113.336
			C549.562,583.433,548.573,584.035,547.537,584.035z"/>
		<path d="M570.297,469.042c-1.323,0-2.477-0.976-2.661-2.324c-0.202-1.471,0.827-2.828,2.299-3.03
			c55.69-7.647,76.341-36.931,77.099-61.788c0.371-12.172-4.236-21.32-8.772-22.228c-4.526-0.902-8.292-0.212-11.501,2.123
			c-5.999,4.363-10.102,14.683-11.865,29.843c-2.582,22.205-39.715,35.031-41.294,35.565c-1.405,0.475-2.934-0.277-3.411-1.685
			c-0.477-1.406,0.277-2.934,1.684-3.41c0.354-0.121,35.488-12.258,37.678-31.092c1.969-16.931,6.694-28.226,14.044-33.573
			c4.432-3.221,9.722-4.246,15.721-3.046c7.898,1.578,13.528,13.474,13.095,27.667c-0.824,27.055-22.732,58.849-81.745,66.953
			C570.543,469.035,570.419,469.042,570.297,469.042z"/>
		<path d="M572.735,462.56c-1.352,0-2.517-1.016-2.67-2.391c-0.165-1.477,0.898-2.808,2.375-2.972
			c19.817-2.216,43.485-15.336,52.761-29.249c10.061-15.091,12.962-42.152,10.361-46.219c-2.113,0.895-4.378,10.04-6.217,17.462
			c-1.56,6.296-3.328,13.436-5.875,21.077c-7.621,22.87-48.334,33.552-50.063,33.997c-1.442,0.363-2.905-0.501-3.273-1.937
			c-0.37-1.439,0.498-2.906,1.937-3.275c0.395-0.102,39.601-10.391,46.297-30.485c2.479-7.44,4.22-14.469,5.756-20.671
			c3.225-13.017,5.354-21.614,11.767-21.62c0.001,0,0.002,0,0.002,0c1.054,0,3.018,0.375,4.362,2.886
			c4.308,8.043-0.524,36.693-10.577,51.77c-10.041,15.063-35.45,29.244-56.64,31.612C572.935,462.555,572.834,462.56,572.735,462.56
			z"/>
		<path d="M525.913,510.735c-0.122,0-0.245-0.009-0.369-0.024c-59.013-8.104-80.92-39.898-81.745-66.953
			c-0.434-14.194,5.196-26.089,13.095-27.667c5.999-1.202,11.291-0.175,15.72,3.046c7.35,5.347,12.075,16.642,14.044,33.573
			c2.19,18.833,37.323,30.971,37.678,31.09c1.407,0.478,2.161,2.005,1.683,3.412c-0.476,1.408-2.002,2.159-3.411,1.685
			c-1.579-0.536-38.712-13.36-41.294-35.565c-1.764-15.16-5.867-25.48-11.865-29.843c-3.209-2.334-6.968-3.025-11.5-2.123
			c-4.536,0.907-9.144,10.055-8.772,22.229c0.757,24.855,21.41,54.139,77.099,61.785c1.472,0.203,2.501,1.561,2.299,3.031
			C528.39,509.758,527.236,510.735,525.913,510.735z"/>
		<path d="M523.475,504.253c-0.1,0-0.201-0.005-0.302-0.018c-21.188-2.366-46.597-16.547-56.64-31.61
			c-10.052-15.078-14.885-43.728-10.577-51.769c1.344-2.512,3.309-2.886,4.362-2.886c0.001,0,0.002,0,0.003,0
			c6.413,0.003,8.543,8.604,11.768,21.622c1.536,6.202,3.277,13.229,5.755,20.668c6.706,20.119,45.901,30.384,46.296,30.486
			c1.44,0.369,2.307,1.836,1.938,3.275c-0.369,1.438-1.837,2.309-3.274,1.937c-1.729-0.442-42.442-11.125-50.063-33.997
			c-2.547-7.64-4.315-14.778-5.875-21.075c-1.838-7.422-4.104-16.568-6.217-17.465c-2.6,4.069,0.301,31.128,10.361,46.221
			c9.276,13.914,32.945,27.034,52.761,29.25c1.477,0.164,2.54,1.495,2.375,2.972C525.992,503.237,524.827,504.253,523.475,504.253z"
			/>
	</g>
	<g>
		<g>
			<path d="M682.273,833.561c-20.324,0-50.188-13.211-57.911-19.031c-1.998-1.505-6.158-4.638-5.43-50.772
				c0.389-24.602,2.021-51.398,2.706-61.779c1.31-19.84,7.751-26.296,29.961-30.034c7.491-1.259,15.581-12.348,18.066-16.514
				c0.763-1.275,2.413-1.692,3.688-0.932c1.276,0.76,1.693,2.411,0.932,3.688c-0.417,0.698-10.34,17.138-21.793,19.064
				c-19.818,3.333-24.344,7.787-25.486,25.08c-3.92,59.471-3.665,103.851,0.619,107.921c7.053,5.314,35.76,17.928,54.646,17.928
				c0.021,0,0.043,0.009,0.062,0c1.484,0,2.688,1.202,2.69,2.687C685.026,832.373,683.771,833.588,682.273,833.561z"/>
			<path d="M682.337,703.449c-0.203,0-0.408-0.023-0.613-0.07c-0.27-0.063-27.15-6.335-43.157-10.479
				c-1.438-0.373-2.302-1.841-1.93-3.279c0.372-1.438,1.845-2.294,3.279-1.93c15.943,4.128,42.761,10.384,43.029,10.447
				c1.448,0.338,2.347,1.784,2.01,3.231C684.665,702.611,683.559,703.449,682.337,703.449z"/>
			<path d="M680.7,659.5c-3.156,0-10.131-0.212-17.199-1.834c-1.271-0.291-2.149-1.452-2.085-2.753l1.658-33.84
				c0.07-1.433,1.252-2.56,2.687-2.56h16.574c1.486,0,2.69,1.205,2.69,2.69s-1.204,2.69-2.69,2.69h-14.012l-1.419,28.984
				c7.893,1.482,15.25,1.227,15.329,1.218c1.505-0.049,2.735,1.1,2.792,2.585c0.057,1.485-1.101,2.734-2.585,2.792
				C682.343,659.477,681.721,659.5,680.7,659.5z"/>
			<path d="M682.337,758.912c-0.127,0-0.255-0.009-0.385-0.028c-36.309-5.209-60.402-13.679-60.641-13.765
				c-1.4-0.497-2.131-2.035-1.635-3.435c0.497-1.397,2.033-2.137,3.435-1.634c0.235,0.082,23.867,8.381,59.604,13.509
				c1.471,0.21,2.492,1.573,2.281,3.044C684.805,757.945,683.654,758.912,682.337,758.912z"/>
			<path d="M682.337,787.19c-0.127,0-0.255-0.009-0.386-0.027c-36.308-5.213-60.402-13.685-60.641-13.771
				c-1.399-0.497-2.13-2.035-1.634-3.435c0.497-1.399,2.034-2.137,3.435-1.634c0.235,0.082,23.867,8.383,59.605,13.514
				c1.47,0.211,2.491,1.575,2.28,3.045C684.805,786.224,683.654,787.19,682.337,787.19z"/>
			<path d="M682.396,833.561c-0.022,0-0.042,0-0.064,0c-1.486-0.002-2.688-1.209-2.687-2.694c0.002-1.484,1.206-2.687,2.69-2.687
				c0.023,0,0.043,0,0.062,0c18.883,0.002,47.593-12.613,54.672-17.948c4.265-4.057,4.519-48.435,0.592-107.9
				c-1.14-17.293-5.666-21.745-25.485-25.08c-11.453-1.927-21.376-18.366-21.792-19.064c-0.761-1.277-0.344-2.927,0.931-3.688
				c1.276-0.765,2.926-0.347,3.689,0.931c2.492,4.166,10.596,15.259,18.065,16.514c22.212,3.738,28.652,10.194,29.96,30.034
				c0.686,10.365,2.319,37.133,2.708,61.779c0.727,46.135-3.431,49.266-5.43,50.772C732.586,820.35,702.719,833.559,682.396,833.561
				z"/>
			<path d="M682.333,703.449c-1.222,0-2.328-0.838-2.618-2.079c-0.337-1.447,0.562-2.894,2.01-3.231
				c0.269-0.063,27.087-6.319,43.03-10.447c1.437-0.364,2.907,0.492,3.278,1.93c0.374,1.438-0.491,2.906-1.93,3.279
				c-16.006,4.144-42.889,10.415-43.158,10.479C682.74,703.426,682.535,703.449,682.333,703.449z"/>
			<path d="M683.969,659.5c-1.022,0-1.643-0.023-1.738-0.026c-1.484-0.058-2.64-1.307-2.584-2.79
				c0.056-1.485,1.286-2.678,2.79-2.587c0.078,0.005,7.458,0.256,15.33-1.218l-1.42-28.984h-14.013c-1.486,0-2.69-1.205-2.69-2.69
				s1.204-2.69,2.69-2.69h16.574c1.434,0,2.616,1.127,2.687,2.56l1.658,33.84c0.065,1.301-0.814,2.462-2.085,2.753
				C694.101,659.288,687.125,659.5,683.969,659.5z"/>
			<path d="M682.332,758.912c-1.316,0-2.467-0.967-2.66-2.309c-0.211-1.471,0.81-2.834,2.281-3.044
				c35.738-5.128,59.371-13.427,59.605-13.509c1.399-0.505,2.937,0.234,3.435,1.634c0.497,1.399-0.235,2.938-1.634,3.435
				c-0.24,0.086-24.333,8.556-60.643,13.765C682.587,758.903,682.458,758.912,682.332,758.912z"/>
			<path d="M682.332,787.19c-1.316,0-2.467-0.967-2.66-2.308c-0.211-1.47,0.81-2.834,2.28-3.045
				c35.785-5.139,59.372-13.432,59.604-13.514c1.401-0.503,2.938,0.232,3.437,1.634c0.497,1.399-0.235,2.938-1.634,3.435
				c-0.238,0.086-24.333,8.558-60.642,13.771C682.588,787.182,682.458,787.19,682.332,787.19z"/>
			<path d="M680.263,833.512c-1.486,0-2.69-1.205-2.69-2.69V702.503c0-1.485,1.204-2.69,2.69-2.69c1.486,0,2.69,1.205,2.69,2.69
				v128.318C682.953,832.307,681.749,833.512,680.263,833.512z"/>
		</g>
		<path d="M766.096,733.425c-9.668,0-18.826-1.181-25.126-3.238c-1.413-0.461-2.184-1.981-1.722-3.393
			c0.461-1.413,1.982-2.185,3.393-1.722c5.783,1.888,14.332,2.973,23.455,2.973c17.655,0,28.442-4.004,29.057-6.067
			c0.006-0.02-0.298-0.631-2.121-1.594c-1.313-0.695-1.814-2.322-1.12-3.636c0.696-1.314,2.322-1.816,3.636-1.121
			c3.307,1.749,4.982,3.898,4.982,6.391C800.529,731.021,778.885,733.425,766.096,733.425z"/>
		<path d="M741.224,719.287c-1.115,0-2.157-0.697-2.543-1.811c-0.485-1.403,0.26-2.936,1.662-3.423
			c6.333-2.19,15.72-3.446,25.753-3.446c6.083,0,12.019,0.464,17.17,1.343c1.464,0.251,2.448,1.64,2.198,3.104
			c-0.251,1.465-1.645,2.445-3.104,2.2c-4.855-0.828-10.479-1.267-16.265-1.267c-9.459,0-18.204,1.149-23.992,3.152
			C741.813,719.24,741.515,719.287,741.224,719.287z"/>
		<path d="M763.654,806.332c-15.889,0-22.117-5.727-22.374-5.971c-1.077-1.021-1.125-2.725-0.102-3.802
			c1.012-1.07,2.697-1.126,3.777-0.126c0.156,0.135,5.348,4.519,18.698,4.519c11.354,0,17.858-4.198,19.825-5.706l11.703-73.65
			c0.232-1.468,1.618-2.468,3.079-2.235c1.468,0.233,2.468,1.611,2.234,3.079l-11.86,74.647c-0.093,0.583-0.375,1.119-0.803,1.525
			C787.502,798.928,779.547,806.332,763.654,806.332z"/>
		<path d="M764.892,759.731c-12.39,0-22.576-3.517-23.331-3.785c-1.399-0.495-2.132-2.031-1.638-3.431
			c0.493-1.401,2.031-2.137,3.431-1.641c0.309,0.106,30.803,10.591,48.69-5.801c1.095-1.008,2.797-0.931,3.801,0.164
			c1.003,1.097,0.93,2.797-0.165,3.801C786.565,757.392,774.995,759.731,764.892,759.731z"/>
		<path d="M794.974,742.722c-0.667,0-1.334-0.247-1.854-0.744c-8.465-8.089-20.318-27.933-4.592-45.147
			c5.583-6.11,11.724-8.977,18.277-8.503c12.67,0.909,21.829,14.173,22.212,14.736c0.724,1.063,0.593,2.49-0.312,3.405l-28.951,29.3
			c-1.046,1.056-2.748,1.064-3.805,0.022c-1.058-1.046-1.068-2.748-0.022-3.806l27.305-27.635
			c-2.691-3.285-9.17-10.118-16.829-10.657c-4.803-0.344-9.489,1.938-13.903,6.766c-16.096,17.62,3.498,36.82,4.339,37.63
			c1.07,1.028,1.106,2.73,0.08,3.803C796.39,742.443,795.684,742.722,794.974,742.722z"/>
		<path d="M793.862,728.936c-1.085,0-2.107-0.66-2.516-1.733c-3.116-8.198-2.918-15.767,0.561-21.315
			c2.812-4.483,7.547-7.33,12.994-7.808c9.798-0.878,20.411,6.609,20.857,6.929c1.211,0.861,1.491,2.539,0.631,3.75
			c-0.86,1.208-2.538,1.49-3.752,0.634c-0.093-0.066-9.43-6.637-17.267-5.953c-3.752,0.329-6.997,2.263-8.906,5.307
			c-2.561,4.085-2.593,9.961-0.09,16.544c0.529,1.39-0.168,2.942-1.557,3.472C794.503,728.88,794.179,728.936,793.862,728.936z"/>
	</g>
	<g>
		<path d="M402.611,734.679c-0.012,0-0.023-0.002-0.036,0h-17.652c-0.602,0-1.186-0.201-1.659-0.572
			c-5.628-4.41-12.337-10.471-12.337-14.303c0-3.439,4.21-29.405,4.69-32.354c0.137-0.839,0.661-1.563,1.415-1.954
			s1.649-0.406,2.414-0.033l21.947,10.642c0.928,0.45,1.517,1.389,1.517,2.42v13.804l2.284,18.905
			c0.07,0.239,0.108,0.493,0.108,0.756C405.302,733.474,404.098,734.679,402.611,734.679z M385.86,729.299h13.681l-1.992-16.488
			c-0.013-0.107-0.02-0.214-0.02-0.322v-12.279l-17.178-8.328c-1.728,10.774-3.964,25.364-4.042,27.802
			C376.793,721.15,381.115,725.489,385.86,729.299z"/>
		<path d="M346.352,765.725c-0.965,0-1.897-0.52-2.38-1.431c-2.483-4.69-4.637-15.085,4.983-20.857
			c5.721-3.434,5.414-4.456,4.122-8.765c-0.467-1.556-1.048-3.492-1.405-5.81c-0.864-5.611,1.745-12.394,6.492-16.873
			c4.514-4.262,10.2-5.926,16.014-4.684c1.453,0.31,2.379,1.739,2.069,3.191c-0.309,1.453-1.738,2.378-3.192,2.069
			c-5.434-1.161-9.351,1.593-11.198,3.334c-3.463,3.27-5.465,8.263-4.868,12.143c0.3,1.949,0.799,3.614,1.241,5.084
			c1.744,5.81,2.175,9.714-6.506,14.923c-7.702,4.622-3.193,13.356-2.998,13.726c0.695,1.313,0.195,2.942-1.119,3.636
			C347.207,765.625,346.776,765.725,346.352,765.725z"/>
		<path d="M351.004,792.991c-0.477,0-0.952-0.128-1.37-0.376l-17.957-10.642c-0.607-0.359-1.048-0.942-1.229-1.624l-8.644-32.588
			c-0.309-1.161,0.19-2.385,1.221-3c1.031-0.616,2.346-0.471,3.22,0.351l31.632,29.715c7.045-7.814,16.92-13.577,28.261-8.604
			c1.361,0.597,1.981,2.184,1.384,3.545c-0.597,1.357-2.185,1.979-3.544,1.384c-9.147-4.006-16.93,1.392-22.346,7.622
			c0.319,0.916,0.13,1.972-0.58,2.729c-0.596,0.633-1.428,0.909-2.23,0.834c-3.383,4.702-5.311,8.949-5.36,9.059
			c-0.313,0.7-0.91,1.236-1.641,1.469C351.555,792.949,351.278,792.991,351.004,792.991z M335.366,777.906l14.488,8.586
			c1.231-2.377,2.787-4.95,4.627-7.472l-25.066-23.55L335.366,777.906z"/>
		<path d="M359.088,816.307c-0.428,0-0.863-0.104-1.267-0.32c-0.778-0.417-18.991-10.432-15.909-29.918
			c0.232-1.47,1.608-2.475,3.077-2.237c1.468,0.231,2.469,1.61,2.237,3.078c-2.479,15.672,12.505,23.993,13.144,24.34
			c1.305,0.707,1.792,2.338,1.088,3.643C360.971,815.794,360.045,816.307,359.088,816.307z"/>
		<path d="M388.096,695.336c-0.333,0-0.671-0.063-0.998-0.194c-1.378-0.552-2.05-2.114-1.5-3.492
			c4.169-10.445,16.946-28.823,35.931-25.27c6.167-4.386,18.385-9.148,27.601-0.547c4.206-0.192,16.943,0.097,19.922,10.476
			c0.41,1.429-0.416,2.918-1.843,3.327c-1.429,0.414-2.919-0.413-3.329-1.842c-2.265-7.896-15.347-6.535-15.48-6.516
			c-0.833,0.088-1.673-0.212-2.252-0.827c-8.955-9.472-21.77,0.491-22.312,0.92c-0.645,0.51-1.488,0.702-2.287,0.51
			c-20.067-4.706-30.848,21.499-30.955,21.766C390.173,694.697,389.163,695.336,388.096,695.336z"/>
		<path d="M499.976,675.772c-1.216,0-2.319-0.83-2.615-2.065c-0.976-4.07-4.724-15.282-10.283-18.257
			c-1.555-0.832-3.077-0.923-4.792-0.292c-11.666,4.298-20.207,16.354-20.292,16.476c-0.853,1.216-2.526,1.517-3.746,0.662
			c-1.217-0.85-1.516-2.523-0.667-3.743c0.385-0.55,9.566-13.553,22.843-18.442c3.133-1.154,6.313-0.946,9.197,0.599
			c8.677,4.65,12.558,20.013,12.972,21.75c0.345,1.444-0.547,2.894-1.992,3.238C500.393,675.748,500.183,675.772,499.976,675.772z"
			/>
		<path d="M527.13,703.154c-0.869,0-1.72-0.418-2.239-1.194c-0.826-1.236-0.494-2.905,0.742-3.732l10.194-6.814l-1.963-9.694
			l-17.561,6.013c-1.407,0.487-2.937-0.27-3.417-1.673c-0.481-1.406,0.268-2.936,1.674-3.417l20.46-7.006
			c0.735-0.252,1.539-0.173,2.209,0.21c0.671,0.386,1.145,1.043,1.298,1.801l2.93,14.465c0.216,1.07-0.234,2.165-1.142,2.771
			l-11.694,7.818C528.163,703.008,527.644,703.154,527.13,703.154z"/>
		<path d="M356.326,833.561c-17.173,0-32.647-31.835-34.356-35.464c-0.217-0.462-0.299-0.977-0.235-1.485
			c1.226-9.645,2.856-18.952,4.847-27.664c0.331-1.45,1.773-2.36,3.222-2.022c1.448,0.331,2.355,1.772,2.024,3.221
			c-1.899,8.306-3.463,17.17-4.655,26.361c4.584,9.456,17.765,31.673,29.153,31.673c14.721,0,154.586-61.2,175.784-70.916
			c4.876-2.234,6.345-21.85-1.695-43.334c-5.379-14.373-21.768-46.655-57.609-36.103c-54.433,16.032-73.616,63.222-87.623,97.676
			c-10.84,26.67-19.399,47.736-39.647,41.305c-1.416-0.45-2.199-1.962-1.75-3.378s1.959-2.2,3.378-1.75
			c14.812,4.713,21.515-9.864,33.034-38.203c14.418-35.468,34.166-84.045,91.086-100.81c27.878-8.214,51.868,6.509,64.169,39.378
			c7.495,20.026,8.885,45.532-1.103,50.109C532.794,762.868,374.094,833.561,356.326,833.561z"/>
		<path d="M332.986,757.829c-0.254,0-0.513-0.034-0.77-0.111c-1.424-0.424-2.234-1.924-1.809-3.348
			c22.748-76.289,70.334-83.675,72.349-83.953c1.468-0.191,2.83,0.826,3.032,2.299c0.202,1.47-0.823,2.825-2.291,3.03l0,0
			c-0.46,0.066-46.243,7.416-67.933,80.162C335.215,757.074,334.146,757.829,332.986,757.829z"/>
	</g>
	<g>
		<path d="M951.614,813.739c-10.391,0-16.962-1.522-20.091-4.65c-1.026-1.026-1.054-2.683-0.061-3.742
			c5.483-5.849,54.172-57.142,74.925-57.142c2.475,0,4.576,0.678,6.249,2.017c1.06,0.848,2.228,1.767,3.468,2.742
			c16.706,13.148,31.514,25.854,29.274,36.791c-1.05,5.128-5.773,8.857-14.042,11.083
			C1008.269,807.052,973.481,813.739,951.614,813.739z M937.646,806.646c2.301,0.89,6.459,1.713,13.969,1.713
			c20.428,0,54.864-6.397,78.325-12.715c6.139-1.653,9.561-3.997,10.169-6.968c1.759-8.589-17.164-23.481-27.331-31.483
			c-1.253-0.986-2.432-1.913-3.503-2.771c-0.703-0.562-1.646-0.835-2.887-0.835C991.533,753.586,953.715,789.86,937.646,806.646z"/>
		<path d="M985.182,725.878c-0.703,0-1.405-0.273-1.934-0.819c-1.034-1.067-1.006-2.771,0.063-3.805
			c15.197-14.712,32.845-36.445,43.59-51.457c3.701-5.172,4.86-9.155,3.445-11.838c-4.088-7.76-28.167-7.279-41.103-7.022
			c-1.593,0.032-3.088,0.062-4.458,0.079c-5.825,0.07-14.096,16.415-19.831,62.082c-0.187,1.477-1.534,2.519-3.004,2.335
			c-1.475-0.187-2.521-1.531-2.335-3.004c8.365-66.594,20.965-66.744,25.107-66.793c1.355-0.017,2.837-0.046,4.411-0.077
			c21.26-0.432,40.767,0.012,45.973,9.892c2.441,4.633,1.152,10.513-3.831,17.478c-10.09,14.096-27.725,36.222-44.224,52.193
			C986.529,725.626,985.855,725.878,985.182,725.878z"/>
		<path d="M1043.574,797.902c-3.179,0-5.216-0.307-5.433-0.341c-1.468-0.233-2.47-1.61-2.237-3.078
			c0.233-1.466,1.604-2.45,3.074-2.238l0,0c0.126,0.024,12.853,1.892,24.96-4.715c8.12-4.426-2.357-30.62-8.768-42.76
			c-0.192-0.245-1.172-1.333-3.512-1.583c-3.854-0.41-12.961,1.34-30.47,17.746c-1.083,1.018-2.787,0.961-3.803-0.125
			c-1.016-1.084-0.96-2.786,0.124-3.803c14.83-13.894,26.671-20.332,35.199-19.109c4.936,0.704,6.876,3.76,7.081,4.105
			c3.755,7.077,21.435,42.234,6.724,50.252C1057.82,796.997,1049.023,797.902,1043.574,797.902z"/>
		<path d="M1043.574,833.51c-19.679,0-75.477-17.14-79.151-20.464c-1.102-0.997-1.188-2.697-0.19-3.799
			c0.967-1.07,2.597-1.181,3.695-0.28c4.787,3.038,67.519,22.086,78.67,18.895c6.813-1.946,10.545-7.385,12.165-10.453
			c2.214-4.196,3.067-8.92,2.125-11.754c-2.185-6.55-5.556-10.754-5.589-10.796c-0.936-1.152-0.762-2.846,0.389-3.783
			c1.152-0.935,2.841-0.767,3.779,0.382c0.163,0.198,4.011,4.957,6.524,12.497c1.422,4.267,0.475,10.384-2.47,15.964
			c-3.487,6.608-8.973,11.268-15.445,13.117C1046.939,833.359,1045.413,833.51,1043.574,833.51z"/>
		<path d="M1092.448,813.764c-9.645,0-28.051-2.603-28.87-2.718c-1.472-0.211-2.494-1.571-2.286-3.043
			c0.208-1.473,1.571-2.486,3.042-2.285c0.209,0.029,20.865,2.937,29.427,2.645c3.093-1.455,2.804-21.989-2.549-50.236
			c-0.238-1.258-0.813-2.062-1.861-2.604c-4.892-2.527-17.485,1.45-24.275,4.55c-1.349,0.613-2.948,0.024-3.565-1.329
			c-0.617-1.351-0.023-2.946,1.327-3.564c2.04-0.934,20.18-8.984,28.983-4.437c2.515,1.302,4.133,3.509,4.678,6.383
			c2.029,10.713,8.151,46.299,1.676,54.399c-1.404,1.759-3.073,2.176-4.225,2.216
			C1093.479,813.755,1092.976,813.764,1092.448,813.764z"/>
		<path d="M948.634,743.133c-42.504,0-87.678-10.67-87.678-30.443c0-19.779,45.174-30.452,87.678-30.452
			c5.806,0,11.63,0.192,17.306,0.57c1.483,0.101,2.604,1.382,2.507,2.864c-0.102,1.483-1.461,2.571-2.864,2.506
			c-5.559-0.371-11.262-0.561-16.948-0.561c-48.499,0-82.297,13.213-82.297,25.072c0,11.854,33.798,25.063,82.297,25.063
			c48.497,0,82.295-13.21,82.295-25.063c0-5.608-7.379-11.482-20.243-16.117c-1.397-0.502-2.123-2.044-1.618-3.443
			c0.503-1.399,2.046-2.124,3.443-1.618c15.568,5.608,23.799,12.931,23.799,21.179C1036.31,732.463,991.136,743.133,948.634,743.133
			z"/>
		<path d="M936.927,806.228h-31.533c-0.758,0-1.481-0.321-1.991-0.881c-1.76-1.939-43.124-47.979-42.446-92.697
			c0.023-1.474,1.223-2.65,2.69-2.65c0.013,0,0.026,0,0.04,0c1.485,0.023,2.673,1.245,2.65,2.73
			c-0.598,39.355,34.563,81.535,40.272,88.117h30.317c1.485,0,2.69,1.205,2.69,2.69S938.412,806.228,936.927,806.228z"/>
		<path d="M1027.284,754.719c-0.188,0-0.378-0.02-0.571-0.062c-1.451-0.313-2.375-1.744-2.06-3.197
			c3.729-17.252,6.269-38.865,6.293-39.082c0.172-1.475,1.48-2.533,2.984-2.361c1.475,0.174,2.533,1.508,2.361,2.984
			c-0.026,0.219-2.594,22.084-6.381,39.597C1029.64,753.857,1028.524,754.719,1027.284,754.719z"/>
		<path d="M895.854,737.124c-0.263,0-0.528-0.039-0.793-0.119c-1.421-0.437-2.218-1.942-1.779-3.363
			c0.553-1.797,5.755-17.491,15.302-16.807c1.721,0.139,2.717-1.102,4.75-4.161c2.522-3.799,5.985-8.999,13.95-7.738
			c8.082,1.275,18.479,3.223,22.47,5.3c0.843,0.167,3.65,0.063,5.922-0.019c9.342-0.337,22.146-0.799,25.512,6.369
			c1.367,2.915,5.66,4.5,9.812,6.032c5.093,1.88,10.865,4.011,11.309,9.524c0.119,1.482-0.984,2.778-2.466,2.897
			c-1.452,0.11-2.779-0.983-2.896-2.467c-0.169-2.087-3.88-3.457-7.811-4.907c-4.927-1.819-10.512-3.881-12.816-8.792
			c-1.855-3.951-14.411-3.498-20.448-3.28c-5.017,0.184-7.114,0.222-8.522-0.543c-0.907-0.498-5.081-2.304-20.9-4.801
			c-4.353-0.682-6.033,1.49-8.631,5.399c-2.053,3.091-4.62,6.964-9.644,6.551c-4.328-0.293-8.396,8.636-9.749,13.025
			C898.067,736.381,897.003,737.124,895.854,737.124z"/>
		<path d="M1019.352,730.771c-0.968,0-1.905-0.525-2.387-1.445c-0.081-0.157-8.377-15.714-19.965-13.977
			c-1.461,0.221-2.839-0.791-3.062-2.259c-0.221-1.47,0.79-2.839,2.259-3.062c15.429-2.321,25.132,16.031,25.54,16.812
			c0.685,1.317,0.172,2.939-1.144,3.626C1020.196,730.674,1019.772,730.771,1019.352,730.771z"/>
	</g>
	<g>
		<path d="M712.731,235.14c-14.724,0-29.087-0.713-42.691-2.118c-1.478-0.154-2.552-1.475-2.4-2.953
			c0.153-1.478,1.469-2.557,2.953-2.399c13.42,1.387,27.599,2.089,42.138,2.089c14.542,0,28.72-0.702,42.14-2.089
			c1.468-0.158,2.801,0.921,2.953,2.399c0.152,1.479-0.922,2.799-2.399,2.953C741.821,234.427,727.457,235.14,712.731,235.14z"/>
		<path d="M712.731,260.054c-16.845,0-33.276-0.711-48.837-2.114c-1.48-0.135-2.571-1.441-2.438-2.921
			c0.133-1.482,1.447-2.563,2.921-2.438c15.401,1.389,31.669,2.093,48.354,2.093c16.686,0,32.955-0.704,48.355-2.093
			c1.477-0.116,2.788,0.958,2.922,2.438c0.133,1.48-0.958,2.787-2.438,2.921C746.009,259.343,729.577,260.054,712.731,260.054z"/>
		<path d="M712.733,281.713c-54.924,0-113.296-11.733-113.296-33.476c0-17.28,37.571-27.527,72.732-31.354
			c1.458-0.167,2.805,0.906,2.965,2.384c0.161,1.477-0.906,2.804-2.384,2.965c-46.674,5.081-67.933,17.042-67.933,26.005
			c0,13.288,44.318,28.095,107.916,28.095c63.595,0,107.913-14.807,107.913-28.095c0-8.964-21.259-20.925-67.934-26.005
			c-1.478-0.161-2.544-1.489-2.383-2.965c0.159-1.478,1.481-2.55,2.965-2.384c35.162,3.827,72.732,14.075,72.732,31.354
			C826.027,269.979,767.655,281.713,712.733,281.713z"/>
		<path d="M712.733,314.146c-93.641,0-113.296-35.842-113.296-65.909c0-1.487,1.204-2.69,2.69-2.69s2.69,1.204,2.69,2.69
			c0,39.597,37.316,60.528,107.916,60.528c40.649,0,70.28-6.776,88.071-20.14c13.167-9.892,19.842-23.48,19.842-40.388
			c0-1.487,1.205-2.69,2.69-2.69c1.487,0,2.69,1.204,2.69,2.69C826.027,278.304,806.372,314.146,712.733,314.146z"/>
		<path d="M764.844,277.315c-1.359,0-2.525-1.026-2.673-2.408c-0.026-0.249-2.774-25.356-15.292-66.792
			c-11.22-37.134-31.066-43.068-34.136-43.772c-3.002,0.72-23.001,6.845-34.156,43.772c-12.518,41.436-15.267,66.542-15.293,66.792
			c-0.156,1.478-1.482,2.552-2.957,2.392c-1.478-0.156-2.549-1.48-2.394-2.956c0.026-0.254,2.812-25.806,15.493-67.783
			c13.096-43.357,37.857-47.468,38.907-47.622c0.259-0.039,0.521-0.039,0.781,0c1.047,0.154,25.808,4.265,38.906,47.622
			c12.681,41.977,15.465,67.529,15.491,67.783c0.156,1.476-0.916,2.8-2.393,2.956C765.033,277.31,764.938,277.315,764.844,277.315z"
			/>
		<path d="M687.885,298.973c-0.712,0-1.417-0.282-1.94-0.825l-17.58-18.287l-21.397,11.849c-1.229,0.685-2.778,0.301-3.552-0.877
			l-11.531-17.565l-12.368,8.773c-0.667,0.473-1.511,0.622-2.298,0.393c-0.786-0.224-1.427-0.795-1.742-1.548l-8.634-20.669
			c-0.573-1.37,0.074-2.946,1.446-3.519c1.372-0.569,2.947,0.074,3.52,1.445l7.337,17.565l11.9-8.442
			c0.597-0.426,1.34-0.583,2.056-0.45c0.718,0.135,1.349,0.557,1.75,1.167l11.692,17.812l21.024-11.642
			c1.068-0.589,2.398-0.391,3.243,0.488l17.458,18.163l22.979-15.199c1.241-0.82,2.911-0.48,3.729,0.758
			c0.82,1.24,0.48,2.909-0.76,3.729l-24.848,16.436C688.915,298.828,688.398,298.973,687.885,298.973z"/>
		<path d="M737.99,298.973c-0.513,0-1.029-0.146-1.483-0.447l-24.848-16.436c-1.239-0.819-1.579-2.489-0.76-3.729
			c0.819-1.238,2.488-1.578,3.729-0.758l22.978,15.199l17.458-18.163c0.847-0.879,2.178-1.077,3.244-0.488l21.024,11.642
			l11.692-17.812c0.401-0.609,1.033-1.032,1.752-1.167c0.714-0.133,1.459,0.026,2.054,0.448l11.901,8.444l7.337-17.565
			c0.574-1.371,2.15-2.014,3.519-1.445c1.371,0.573,2.02,2.147,1.446,3.519l-8.633,20.669c-0.314,0.753-0.956,1.324-1.742,1.548
			c-0.785,0.229-1.629,0.081-2.296-0.391l-12.371-8.776l-11.531,17.567c-0.772,1.179-2.32,1.562-3.552,0.877l-21.397-11.849
			l-17.579,18.287C739.407,298.691,738.702,298.973,737.99,298.973z"/>
		<path d="M704.118,215.075c-0.644,0-1.28-0.229-1.785-0.674l-5.055-4.473l-6.186,2.915c-1.139,0.538-2.504,0.212-3.276-0.79
			l-2.919-3.783l-2.859,1.727c-0.646,0.389-1.424,0.489-2.148,0.278c-0.724-0.213-1.324-0.72-1.657-1.396l-2.9-5.901
			c-0.655-1.333-0.106-2.946,1.228-3.601c1.334-0.653,2.947-0.105,3.601,1.228l1.606,3.268l2.402-1.45
			c1.172-0.704,2.685-0.422,3.521,0.66l3.065,3.971l5.833-2.748c0.973-0.46,2.123-0.294,2.929,0.418l4.948,4.379l6.672-3.755
			c1.294-0.729,2.936-0.27,3.664,1.026c0.729,1.294,0.27,2.934-1.026,3.663l-8.341,4.694
			C705.023,214.961,704.569,215.075,704.118,215.075z"/>
		<path d="M720.936,215.075c-0.452,0-0.906-0.114-1.319-0.345l-8.341-4.694c-1.294-0.729-1.753-2.368-1.024-3.663
			c0.729-1.296,2.37-1.755,3.663-1.026l6.673,3.755l4.947-4.379c0.806-0.711,1.957-0.879,2.929-0.418l5.834,2.748l3.065-3.971
			c0.835-1.082,2.35-1.366,3.521-0.66l2.4,1.45l1.606-3.267c0.655-1.336,2.27-1.883,3.6-1.229c1.334,0.655,1.884,2.269,1.229,3.601
			l-2.899,5.901c-0.332,0.676-0.933,1.182-1.656,1.396c-0.724,0.21-1.503,0.11-2.149-0.278l-2.858-1.727l-2.919,3.783
			c-0.772,1.002-2.139,1.328-3.277,0.79l-6.187-2.915l-5.055,4.473C722.214,214.846,721.578,215.075,720.936,215.075z"/>
	</g>
	<g>
		<g>
			<path d="M499.279,251.059c-1.317,0-2.466-0.963-2.658-2.305c-0.043-0.299-0.813-6.018,1.739-11.211
				c-2.822-0.25-6.262-0.026-8.324,1.808c-0.88,0.785-2.165,0.902-3.178,0.292c-1.009-0.61-1.503-1.804-1.222-2.948
				c0.098-0.397,2.494-9.757,10.662-12.824c6.002-2.254,13.237-0.462,21.502,5.323c1.217,0.851,1.513,2.529,0.661,3.746
				c-0.853,1.216-2.527,1.515-3.748,0.662c-6.723-4.706-12.282-6.286-16.524-4.694c-1.864,0.701-3.309,1.974-4.402,3.349
				c4.931-0.627,9.636,0.717,9.934,0.804c0.911,0.268,1.613,0.997,1.848,1.916c0.235,0.921-0.033,1.897-0.705,2.568
				c-3.775,3.772-2.925,10.389-2.916,10.456c0.201,1.469-0.825,2.827-2.292,3.032C499.528,251.05,499.403,251.059,499.279,251.059z"
				/>
			<path d="M510.318,262.098c-0.927,0-1.809-0.48-2.303-1.299c-0.608-1.009-0.49-2.298,0.292-3.179
				c1.833-2.062,2.056-5.503,1.806-8.323c-5.191,2.552-10.909,1.783-11.209,1.739c-1.471-0.21-2.493-1.573-2.283-3.042
				c0.21-1.469,1.561-2.502,3.036-2.284c0.129,0.018,6.698,0.839,10.455-2.916c0.672-0.673,1.65-0.937,2.567-0.706
				c0.919,0.235,1.648,0.937,1.916,1.848c0.088,0.296,1.437,5.006,0.804,9.943c1.381-1.1,2.66-2.556,3.36-4.442
				c1.574-4.238-0.009-9.789-4.706-16.497c-0.852-1.217-0.556-2.895,0.661-3.746c1.218-0.851,2.895-0.555,3.748,0.66
				c5.785,8.265,7.577,15.499,5.323,21.502c-3.065,8.169-12.426,10.565-12.822,10.663
				C510.749,262.072,510.532,262.098,510.318,262.098z"/>
			<path d="M411.553,332.899c-10.16,0-18.675-3.388-25.5-7.87c-1.024-0.672-1.463-1.955-1.067-3.116
				c0.396-1.161,1.526-1.914,2.752-1.814c1.458,0.108,35.762,2.351,43.324-29.195c5.025-20.968,29.982-45.609,58.052-57.321
				c1.374-0.571,2.947,0.077,3.519,1.447c0.572,1.371-0.076,2.948-1.447,3.519c-26.632,11.111-50.23,34.158-54.893,53.61
				c-5.861,24.454-26.122,31.072-38.675,32.789c22.121,8.319,48.09-4.069,75.742-36.334c9.16-10.689,36.523-31.313,37.685-32.185
				c1.187-0.892,2.873-0.657,3.766,0.533c0.894,1.188,0.654,2.874-0.532,3.767c-0.28,0.21-28.055,21.142-36.813,31.361
				C450.916,323.071,428.854,332.899,411.553,332.899z"/>
			<path d="M514.032,232.618c-1.085,0-2.106-0.662-2.514-1.737c-0.527-1.387,0.172-2.94,1.559-3.47
				c0.123-0.047,12.36-4.793,14.136-12.728c0.324-1.45,1.762-2.357,3.213-2.037c1.45,0.324,2.362,1.762,2.038,3.212
				c-2.41,10.77-16.867,16.352-17.48,16.584C514.67,232.562,514.349,232.618,514.032,232.618z"/>
		</g>
		<g>
			<path d="M459.414,190.173c-1.113,0-2.153-0.697-2.54-1.806c-0.1-0.288-1.953-5.75-0.446-11.337
				c-2.814,0.296-6.15,1.177-7.822,3.372c-0.713,0.937-1.956,1.303-3.062,0.898c-1.107-0.404-1.823-1.481-1.765-2.659
				c0.019-0.408,0.572-10.053,8-14.631c5.461-3.365,12.904-2.997,22.125,1.095c1.357,0.603,1.97,2.191,1.368,3.55
				c-0.601,1.357-2.188,1.974-3.55,1.368c-7.5-3.326-13.26-3.81-17.119-1.433c-1.695,1.045-2.867,2.571-3.676,4.13
				c4.719-1.566,9.595-1.147,9.903-1.118c0.945,0.088,1.774,0.667,2.181,1.526c0.407,0.858,0.331,1.867-0.199,2.655
				c-2.963,4.405-0.878,10.75-0.856,10.813c0.489,1.403-0.252,2.938-1.655,3.426C460.006,190.124,459.708,190.173,459.414,190.173z"
				/>
			<path d="M472.363,198.883c-0.743,0-1.472-0.308-1.994-0.885c-0.792-0.872-0.922-2.159-0.324-3.173
				c1.403-2.377,0.962-5.797,0.176-8.516c-4.607,3.501-10.366,3.843-10.669,3.858c-1.457,0.072-2.749-1.065-2.824-2.548
				c-0.076-1.481,1.061-2.745,2.541-2.823c0.111-0.007,6.732-0.456,9.704-4.871c0.529-0.787,1.426-1.24,2.383-1.183
				c0.948,0.053,1.797,0.603,2.235,1.445c0.143,0.275,2.37,4.636,2.697,9.601c1.144-1.343,2.119-3.018,2.444-5.002
				c0.73-4.463-1.889-9.605-7.785-15.287c-1.07-1.032-1.102-2.734-0.071-3.804c1.031-1.068,2.734-1.104,3.803-0.07
				c7.266,6.999,10.412,13.754,9.354,20.079c-1.44,8.606-10.167,12.754-10.537,12.927
				C473.132,198.801,472.746,198.883,472.363,198.883z"/>
			<path d="M395.079,293.145c-0.96,0-1.868-0.517-2.35-1.382c-0.507-0.911-12.274-22.683-0.184-56.6
				c12.206-34.241,25.211-42.262,43.211-53.365c3.455-2.131,7.026-4.335,10.836-6.876c1.234-0.827,2.906-0.494,3.73,0.744
				c0.825,1.235,0.492,2.906-0.744,3.73c-3.889,2.596-7.503,4.825-10.998,6.981c-17.702,10.918-29.396,18.133-40.967,50.592
				c-6.461,18.122-5.58,32.605-3.648,41.672c5.961-32.195,22.795-42.278,37.308-47.375c30.267-10.631,40.613-37.026,40.714-37.292
				c0.528-1.387,2.08-2.086,3.468-1.561c1.388,0.525,2.088,2.074,1.564,3.463c-0.444,1.179-11.253,28.976-43.964,40.465
				c-9.387,3.298-31.37,11.018-35.298,54.353c-0.106,1.177-0.967,2.146-2.121,2.389
				C395.452,293.125,395.265,293.145,395.079,293.145z"/>
			<path d="M470.348,169.236c-0.898,0-1.777-0.45-2.287-1.27c-0.784-1.261-0.396-2.92,0.863-3.705
				c0.112-0.07,11.21-7.079,11.43-15.206c0.041-1.487,1.353-2.645,2.762-2.617c1.485,0.041,2.657,1.277,2.617,2.762
				c-0.299,11.032-13.413,19.285-13.97,19.632C471.321,169.107,470.831,169.236,470.348,169.236z"/>
		</g>
	</g>
	<g>
		<path d="M992.306,275.047c-10.924,0-19.811-11.789-19.811-26.279s8.887-26.279,19.811-26.279s19.812,11.789,19.812,26.279
			S1003.229,275.047,992.306,275.047z M992.306,227.87c-7.956,0-14.43,9.375-14.43,20.898c0,11.522,6.474,20.898,14.43,20.898
			c7.957,0,14.431-9.375,14.431-20.898C1006.736,237.245,1000.263,227.87,992.306,227.87z"/>
		<path d="M992.306,283.934c-2.294,0-4.461-1.068-6.189-2.999c-2.282,0.963-4.693,0.935-6.752-0.095
			c-1.886-0.942-3.349-2.63-4.247-4.858c-2.189-0.196-4.139-1.167-5.552-2.785c-1.575-1.801-2.38-4.295-2.321-7.057
			c-2.27-1.102-3.956-2.962-4.764-5.323c-0.73-2.133-0.68-4.489,0.119-6.791c-1.481-1.833-2.28-4.012-2.28-6.298
			c0-2.517,0.991-4.929,2.772-6.862c-0.96-2.559-1.022-5.214-0.14-7.526c0.809-2.11,2.301-3.768,4.296-4.81
			c0.093-2.456,0.888-4.632,2.317-6.269c1.563-1.788,3.781-2.787,6.254-2.818c0.953-2.529,2.6-4.431,4.71-5.375
			c1.885-0.846,4.032-0.869,6.094-0.077c1.639-1.604,3.599-2.464,5.683-2.464c2.295,0,4.46,1.068,6.19,2.999
			c2.289-0.963,4.699-0.936,6.753,0.094c1.885,0.942,3.348,2.631,4.246,4.857c2.188,0.196,4.139,1.168,5.552,2.787
			c1.574,1.8,2.38,4.294,2.32,7.057c2.271,1.102,3.955,2.96,4.763,5.323c0.73,2.131,0.681,4.487-0.117,6.79
			c1.481,1.834,2.28,4.013,2.28,6.295c0,2.519-0.991,4.932-2.772,6.864c0.96,2.559,1.022,5.212,0.14,7.526
			c-0.808,2.109-2.3,3.766-4.294,4.81c-0.093,2.454-0.891,4.631-2.319,6.269c-1.564,1.79-3.781,2.788-6.255,2.82
			c-0.952,2.529-2.599,4.431-4.709,5.375c-1.887,0.844-4.03,0.869-6.094,0.077C996.351,283.072,994.391,283.934,992.306,283.934z
			 M986.884,274.707c0.182,0,0.364,0.018,0.545,0.056c0.76,0.156,1.415,0.634,1.797,1.311c0.892,1.576,2.014,2.48,3.08,2.48
			c1.269,0,2.279-1.233,2.77-1.969c0.401-0.601,1.026-1.016,1.735-1.151c0.717-0.137,1.447,0.021,2.039,0.435
			c1.11,0.772,2.154,1.003,3.037,0.613c1.078-0.483,1.93-1.926,2.275-3.86c0.129-0.732,0.559-1.377,1.182-1.783
			c0.622-0.404,1.384-0.536,2.107-0.357c1.486,0.361,2.749,0.086,3.543-0.823c0.804-0.919,1.146-2.452,0.94-4.205
			c-0.156-1.315,0.671-2.55,1.949-2.906c0.946-0.263,2.189-0.884,2.752-2.349c0.534-1.403,0.271-3.194-0.726-4.916
			c-0.685-1.184-0.371-2.696,0.729-3.51c1.466-1.084,2.273-2.519,2.273-4.042c0-1.347-0.655-2.661-1.846-3.699
			c-0.942-0.821-1.193-2.186-0.606-3.289c0.812-1.529,1.018-3.076,0.58-4.354c-0.611-1.785-2.249-2.412-3.17-2.625
			c-1.403-0.328-2.3-1.701-2.035-3.116c0.38-2.031,0.075-3.795-0.839-4.841c-0.713-0.813-1.812-1.117-3.062-0.925
			c-1.412,0.214-2.745-0.702-3.041-2.096c-0.352-1.654-1.102-2.875-2.053-3.351c-0.969-0.487-2.221-0.181-3.487,0.777
			c-0.618,0.47-1.411,0.646-2.168,0.489c-0.76-0.156-1.415-0.634-1.797-1.308c-0.892-1.577-2.016-2.482-3.083-2.482
			c-1.268,0-2.278,1.233-2.769,1.969c-0.401,0.601-1.026,1.014-1.735,1.149c-0.719,0.135-1.445-0.021-2.037-0.433
			c-1.112-0.772-2.161-1.007-3.037-0.613c-1.081,0.483-1.932,1.925-2.277,3.86c-0.129,0.73-0.559,1.376-1.181,1.781
			c-0.623,0.405-1.385,0.538-2.108,0.357c-1.488-0.364-2.75-0.086-3.543,0.825c-0.802,0.918-1.146,2.45-0.938,4.205
			c0.154,1.317-0.675,2.55-1.951,2.906c-0.946,0.263-2.189,0.883-2.752,2.349c-0.534,1.401-0.271,3.193,0.726,4.915
			c0.685,1.186,0.371,2.696-0.729,3.51c-1.467,1.084-2.273,2.52-2.273,4.041c0,1.349,0.654,2.664,1.846,3.703
			c0.942,0.821,1.192,2.186,0.606,3.289c-0.812,1.529-1.018,3.076-0.582,4.356c0.611,1.783,2.251,2.408,3.174,2.624
			c1.402,0.328,2.3,1.701,2.035,3.118c-0.382,2.03-0.077,3.793,0.837,4.837c0.711,0.813,1.81,1.116,3.063,0.925
			c1.397-0.229,2.741,0.702,3.039,2.098c0.352,1.653,1.1,2.874,2.051,3.351c0.974,0.483,2.225,0.179,3.49-0.778
			C985.731,274.895,986.302,274.707,986.884,274.707z"/>
		<path d="M932.382,275.047c-8.24,0-14.696-11.544-14.696-26.279s6.456-26.279,14.696-26.279c8.241,0,14.696,11.544,14.696,26.279
			S940.623,275.047,932.382,275.047z M932.382,227.87c-4.406,0-9.315,8.582-9.315,20.898c0,12.314,4.909,20.898,9.315,20.898
			c4.407,0,9.316-8.583,9.316-20.898C941.698,236.452,936.789,227.87,932.382,227.87z"/>
		<path d="M932.382,283.934c-1.152,0-3.053-0.408-4.737-2.659c-0.743,0.28-1.414,0.366-1.957,0.366
			c-1.094,0-2.166-0.352-3.098-1.016c-1.384-0.986-2.422-2.611-3.057-4.764c-1.604-0.375-2.982-1.419-3.971-3.028
			c-1.108-1.806-1.643-4.233-1.553-6.966c-1.637-1.168-2.825-3.009-3.374-5.293c-0.499-2.081-0.431-4.406,0.181-6.676
			c-1.082-1.811-1.667-3.951-1.667-6.168c0-2.435,0.723-4.803,2.021-6.717c-0.744-2.531-0.823-5.113-0.206-7.409
			c0.548-2.042,1.601-3.687,3.037-4.789c0.019-1.955,0.371-4.246,1.563-6.189c1.088-1.774,2.657-2.862,4.476-3.121
			c0.679-2.433,1.853-4.256,3.408-5.248c0.865-0.553,1.846-0.846,2.835-0.846c0.485,0,1.084,0.072,1.75,0.298
			c1.599-1.845,3.313-2.181,4.349-2.181c1.152,0,3.053,0.408,4.738,2.659c0.744-0.28,1.413-0.366,1.958-0.366
			c1.095,0,2.166,0.351,3.098,1.014c1.384,0.99,2.421,2.615,3.055,4.764c1.604,0.375,2.984,1.418,3.973,3.03
			c1.106,1.808,1.641,4.235,1.552,6.964c1.636,1.17,2.825,3.011,3.373,5.294c0.497,2.084,0.431,4.408-0.181,6.677
			c1.083,1.811,1.668,3.949,1.668,6.165c0,2.438-0.724,4.806-2.023,6.72c0.744,2.531,0.825,5.112,0.211,7.405
			c-0.547,2.042-1.602,3.688-3.039,4.79c-0.02,1.955-0.37,4.246-1.563,6.188c-1.091,1.777-2.658,2.863-4.477,3.125
			c-0.68,2.433-1.854,4.254-3.408,5.247c-0.865,0.552-1.847,0.844-2.836,0.844c-0.486,0-1.084-0.07-1.75-0.296
			C935.134,283.597,933.419,283.934,932.382,283.934z M928.58,274.707c0.164,0,0.329,0.014,0.495,0.045
			c0.907,0.17,1.664,0.793,2.006,1.653c0.52,1.313,1.049,1.906,1.301,2.097c0.209-0.16,0.629-0.611,1.074-1.564
			c0.371-0.793,1.104-1.356,1.967-1.51c0.859-0.156,1.742,0.123,2.366,0.739c0.451,0.449,0.709,0.503,0.713,0.503
			c0.345-0.273,1.086-1.538,1.382-3.911c0.1-0.806,0.561-1.524,1.252-1.953c0.691-0.428,1.541-0.522,2.307-0.252
			c0.154,0.054,0.298,0.083,0.415,0.083c0.104,0,0.379,0,0.759-0.617c0.62-1.011,0.883-2.709,0.722-4.661
			c-0.097-1.179,0.588-2.284,1.688-2.722c0.721-0.286,1.281-1.058,1.578-2.174c0.433-1.611,0.238-3.622-0.53-5.519
			c-0.396-0.978-0.184-2.095,0.541-2.86c1.03-1.087,1.62-2.674,1.62-4.355c0-1.526-0.478-2.96-1.347-4.039
			c-0.594-0.741-0.757-1.739-0.424-2.627c0.632-1.695,0.784-3.443,0.431-4.922c-0.31-1.292-0.953-2.163-1.811-2.447
			c-1.227-0.406-1.99-1.625-1.822-2.905c0.291-2.212,0.05-4.212-0.647-5.349c-0.378-0.618-0.655-0.618-0.761-0.618
			c-0.066,0-0.142,0.009-0.224,0.028c-0.727,0.158-1.487,0.011-2.102-0.413c-0.615-0.422-1.024-1.081-1.135-1.818
			c-0.324-2.159-0.997-3.156-1.342-3.403c-0.002,0-0.002,0-0.002,0c-0.056,0-0.404,0.152-0.894,0.678
			c-0.627,0.68-1.552,0.986-2.468,0.816c-0.907-0.17-1.663-0.793-2.005-1.653c-0.522-1.315-1.049-1.908-1.302-2.099
			c-0.208,0.161-0.629,0.611-1.073,1.566c-0.371,0.792-1.105,1.355-1.967,1.508c-0.854,0.151-1.745-0.121-2.364-0.737
			c-0.454-0.45-0.712-0.502-0.715-0.502c-0.345,0.271-1.086,1.536-1.382,3.909c-0.1,0.808-0.561,1.525-1.253,1.953
			c-0.689,0.429-1.539,0.524-2.307,0.252c-0.153-0.054-0.298-0.083-0.415-0.083c-0.104,0-0.378,0-0.755,0.617
			c-0.623,1.012-0.886,2.711-0.725,4.661c0.097,1.181-0.589,2.286-1.69,2.724c-0.716,0.284-1.276,1.056-1.576,2.175
			c-0.433,1.609-0.24,3.62,0.529,5.513c0.397,0.978,0.186,2.097-0.538,2.862c-1.031,1.089-1.622,2.676-1.622,4.354
			c0,1.527,0.479,2.963,1.347,4.042c0.594,0.741,0.757,1.739,0.424,2.627c-0.632,1.697-0.786,3.443-0.433,4.92
			c0.313,1.294,0.957,2.165,1.814,2.45c1.225,0.406,1.988,1.624,1.82,2.904c-0.291,2.212-0.049,4.21,0.648,5.345
			c0.38,0.62,0.656,0.62,0.762,0.62c0.066,0,0.142-0.009,0.223-0.026c0.727-0.159,1.488-0.01,2.103,0.414
			c0.613,0.422,1.023,1.081,1.134,1.816c0.322,2.161,0.994,3.154,1.342,3.401c0.054-0.016,0.397-0.141,0.895-0.675
			C927.121,275.013,927.839,274.707,928.58,274.707z"/>
		<path d="M948.441,301.926c-0.867,0-1.673-0.364-2.269-1.025c-0.631-0.702-1.945-2.163-0.771-13.251
			c0.011-0.108,0.029-0.217,0.055-0.324c2.245-9.684,4.903-18.989,10.909-18.989c2.228,0,4.249,1.329,6.18,4.063
			c5.212,7.386,9.219,20.727,6.375,26.215c-1.319,2.547-4.101,3.426-7.062,2.021c-2.324-1.102-4.442-1.661-6.297-1.661
			c-2.454,0-3.892,0.983-4.666,1.808C950.009,301.728,949.071,301.926,948.441,301.926z M955.563,293.596
			c2.657,0,5.551,0.734,8.6,2.179c0.049,0.023,0.093,0.042,0.133,0.06c0.976-2.655-1.073-13.148-6.146-20.331
			c-1.154-1.638-1.795-1.787-1.801-1.787c-0.674,0.203-2.688,2.046-5.616,14.672c-0.213,2.021-0.368,4.412-0.401,6.309
			C951.9,293.977,953.676,293.596,955.563,293.596z"/>
		<path d="M966.877,368.327c-20.199,0-33.582-2.979-37.142-22.559c-3.287-18.079,0.743-38.28,1.375-41.247
			c-0.271-7.738-1.969-8.383-9.721-11.323c-17.6-6.675-21.118-32.7-10.752-79.562c6.748-30.496,24.942-51.45,51.233-59.001
			c29.057-8.351,65.484,1.168,86.603,22.636c26.184,26.617,23.078,72.007,17.114,94.629c-1.799,6.826-5.645,18.513-11.195,20.098
			c-3.005,0.858-5.58,0.937-7.753,0.538c0.171,13.94-0.66,49.983-13.618,54.71c-7.66,2.795-13.894,6.015-19.922,9.128
			c-11.424,5.901-22.211,11.474-39.278,11.861C971.426,368.29,969.108,368.327,966.877,368.327z M984.207,156.985
			c-7.156,0-14.206,0.914-20.851,2.821c-17.195,4.939-39.389,18.49-47.464,54.994c-9.557,43.196-7.064,67.881,7.406,73.368
			c8.917,3.382,12.873,5.349,13.199,16.521c0.007,0.222-0.014,0.447-0.063,0.666c-0.047,0.212-4.688,21.394-1.406,39.451
			c2.909,16.001,12.658,18.63,38.67,18.051c15.825-0.359,25.606-5.412,36.932-11.262c6.177-3.191,12.564-6.491,20.55-9.403
			c7.803-2.846,10.529-31.691,10.034-52.074c-0.296-0.233-0.575-0.475-0.832-0.72c-9.285,9.957-20.368,13.14-35.446,10.309
			c-6.722-1.259-10.778,2.191-12.454,10.537c-0.083,0.406-0.151,0.68-0.191,0.797c-0.469,1.41-1.996,2.175-3.403,1.701
			c-1.409-0.469-2.17-1.993-1.7-3.401l0.02-0.156c2.249-11.192,9.063-16.578,18.721-14.765c14.327,2.687,24.06-0.596,32.516-10.987
			c0.591-0.725,1.509-1.097,2.447-0.967c0.928,0.125,1.725,0.725,2.102,1.582c0.106,0.224,0.687,1.33,2.046,2.207
			c0.14,0.068,0.273,0.148,0.399,0.238c1.537,0.846,3.918,1.349,7.479,0.333c1.243-0.427,5.021-5.768,8.107-18.847
			c6.172-26.146,5.583-64.603-16.385-86.933C1029.648,165.807,1006.434,156.985,984.207,156.985z"/>
		<path d="M1006.29,335.422c-0.979,0-1.924-0.538-2.398-1.469c-0.676-1.324-0.148-2.944,1.174-3.619
			c12.65-6.449,8.6-31.657,8.558-31.911c-0.245-1.464,0.744-2.852,2.21-3.097c1.468-0.249,2.854,0.746,3.097,2.21
			c0.2,1.196,4.704,29.372-11.419,37.591C1007.118,335.328,1006.701,335.422,1006.29,335.422z"/>
		<path d="M962.836,330.813c-17.998,0-31.267-4.063-32.297-4.389c-1.416-0.447-2.201-1.957-1.756-3.374
			c0.448-1.417,1.963-2.198,3.373-1.758c0.459,0.144,46.307,14.124,83.071-11.046c1.229-0.839,2.9-0.529,3.739,0.701
			c0.841,1.226,0.527,2.898-0.699,3.739C999.664,327.42,979.277,330.813,962.836,330.813z"/>
		<path d="M950.645,347.979c-1.126,0-2.176-0.713-2.552-1.839c-2.688-8.053-0.389-27.272-0.117-29.437
			c0.184-1.475,1.537-2.51,3.003-2.335c1.474,0.186,2.519,1.529,2.335,3.004c-0.693,5.547-2.066,21.224-0.117,27.063
			c0.471,1.408-0.291,2.932-1.699,3.403C951.214,347.933,950.927,347.979,950.645,347.979z"/>
		<path d="M940.628,346.931c-1.126,0-2.176-0.713-2.552-1.839c-2.688-8.051-0.389-27.27-0.117-29.435
			c0.184-1.475,1.539-2.517,3.004-2.334c1.473,0.184,2.518,1.529,2.334,3.002c-0.693,5.549-2.066,21.224-0.117,27.063
			c0.471,1.408-0.291,2.932-1.699,3.403C941.197,346.886,940.91,346.931,940.628,346.931z"/>
		<path d="M961.486,347.979c-1.127,0-2.176-0.713-2.553-1.841c-2.687-8.051-0.389-27.268-0.117-29.433
			c0.185-1.475,1.536-2.512,3.004-2.337c1.473,0.184,2.519,1.529,2.335,3.004c-0.693,5.547-2.067,21.224-0.117,27.063
			c0.471,1.41-0.291,2.934-1.701,3.403C962.055,347.933,961.768,347.979,961.486,347.979z"/>
		<path d="M974.047,346.931c-1.126,0-2.175-0.713-2.552-1.839c-2.687-8.051-0.389-27.27-0.117-29.435
			c0.184-1.475,1.536-2.517,3.004-2.334c1.473,0.184,2.519,1.529,2.335,3.002c-0.694,5.549-2.067,21.224-0.118,27.063
			c0.472,1.41-0.29,2.934-1.7,3.403C974.616,346.886,974.329,346.931,974.047,346.931z"/>
		<path d="M995.824,342.08c-1.126,0-2.175-0.712-2.552-1.839c-2.687-8.051-0.389-27.268-0.117-29.433
			c0.185-1.475,1.531-2.51,3.004-2.336c1.473,0.184,2.519,1.529,2.335,3.004c-0.693,5.547-2.067,21.224-0.117,27.062
			c0.471,1.41-0.291,2.934-1.701,3.405C996.394,342.036,996.106,342.08,995.824,342.08z"/>
		<path d="M985.74,344.859c-1.127,0-2.176-0.713-2.552-1.839c-2.688-8.052-0.39-27.27-0.118-29.435
			c0.185-1.475,1.533-2.515,3.004-2.334c1.473,0.184,2.519,1.529,2.335,3.002c-0.693,5.548-2.066,21.224-0.117,27.065
			c0.471,1.408-0.291,2.932-1.701,3.403C986.309,344.815,986.021,344.859,985.74,344.859z"/>
		<path d="M1006.288,337.516c-1.126,0-2.176-0.713-2.552-1.841c-2.688-8.051-0.389-27.269-0.117-29.433
			c0.184-1.475,1.534-2.515,3.003-2.336c1.474,0.184,2.519,1.529,2.335,3.004c-0.693,5.547-2.066,21.224-0.117,27.063
			c0.471,1.41-0.291,2.934-1.701,3.403C1006.857,337.47,1006.57,337.516,1006.288,337.516z"/>
		<path d="M958.067,238.69c-0.827,0-1.645-0.38-2.172-1.098c-0.878-1.198-0.62-2.883,0.579-3.76
			c0.092-0.075,3.297-2.732,3.852-10.577c0.552-7.805-11.171-17.709-19.186-22.464c-1.453-0.863-2.665-1.189-3.248-0.872
			c-0.934,0.506-1.487,2.806-1.535,3.951c-0.038,0.928-0.553,1.771-1.362,2.228c-0.81,0.458-1.795,0.467-2.611,0.022
			c-8.869-4.825-16.425,8.057-16.499,8.188c-0.744,1.288-2.391,1.725-3.674,0.988c-1.287-0.743-1.729-2.387-0.988-3.674
			c3.146-5.459,11.074-14.043,20.428-11.56c0.581-1.785,1.663-3.781,3.678-4.875c2.397-1.298,5.275-0.97,8.56,0.976
			c2.333,1.384,22.765,13.914,21.805,27.472c-0.731,10.36-5.495,14.138-6.037,14.535C959.178,238.522,958.62,238.69,958.067,238.69z
			"/>
		<path d="M957.867,238.685c-0.543,0-1.089-0.168-1.563-0.515c-0.541-0.397-5.307-4.175-6.039-14.535
			c-0.713-10.078,14.585-21.354,27.542-29.039c3.284-1.948,6.161-2.279,8.56-0.978c2.003,1.088,3.086,3.067,3.669,4.845
			c5.307-1.835,10.394-1.885,15.148-0.146c9.902,3.624,14.624,13.735,14.82,14.164c0.618,1.352,0.023,2.948-1.327,3.566
			c-1.347,0.618-2.942,0.026-3.563-1.32l0,0c-0.04-0.086-4.032-8.542-11.813-11.369c-4.293-1.557-9.045-1.133-14.131,1.263
			c-0.814,0.385-1.766,0.334-2.54-0.133c-0.771-0.468-1.255-1.289-1.294-2.189c-0.066-1.34-0.64-3.469-1.538-3.951
			c-0.586-0.313-1.795,0.014-3.245,0.876c-15.76,9.346-25.309,18.555-24.921,24.032c0.555,7.845,3.762,10.5,3.898,10.61
			c1.142,0.915,1.366,2.594,0.475,3.753C959.474,238.313,958.675,238.685,957.867,238.685z"/>
		<path d="M958.207,206.304c-0.504,0-1.005-0.14-1.445-0.42c-3.654-2.33-9.086-7.862-6.263-13.834
			c2.592-5.479,7.205-13.178,7.399-13.502c0.512-0.852,1.426-1.363,2.442-1.303c0.991,0.051,1.875,0.643,2.299,1.541
			c2.867,6.088,7.22,16.916,4.141,21.021c-2.903,3.873-7.156,6.104-7.335,6.197C959.057,206.204,958.631,206.304,958.207,206.304z
			 M959.841,185.912c-1.471,2.592-3.241,5.823-4.478,8.437c-1.027,2.17,1.396,4.671,3.002,6.016c1.171-0.793,2.846-2.1,4.11-3.787
			C962.936,195.45,961.776,190.909,959.841,185.912z"/>
		<path d="M981.598,293.302c-3.457,0-7.057-3.219-11.003-9.841c-0.537-0.902-0.502-2.033,0.092-2.898
			c0.595-0.865,1.636-1.305,2.673-1.13c13.92,2.377,13.927,6.23,13.929,7.497c0.002,1.382-0.508,3.366-1.94,4.8
			C984.319,292.759,983.023,293.302,981.598,293.302z M979.482,286.498c1.389,1.361,2.104,1.424,2.115,1.424v2.69l0.004-2.69
			c0.033-0.04,0.122-0.212,0.194-0.424C981.311,287.195,980.498,286.848,979.482,286.498z"/>
		<path d="M938.768,292.193c-1.04,0-2.037-0.338-2.877-0.981c-1.675-1.275-2.351-3.084-1.805-4.841
			c1.102-3.548,6.542-5.053,10.864-5.263c0.999-0.049,1.932,0.456,2.441,1.309c0.51,0.853,0.507,1.917-0.007,2.769
			C946.392,286.831,942.838,292.193,938.768,292.193z"/>
		<path d="M974.11,314.298c-6.277,0.002-15.186-3.776-18.8-5.438c-1.69,0.674-5.237,1.914-11.983,3.65
			c-3.558,0.913-7.899,1.609-9.99-1.098c-1.356-1.755-0.938-3.995-0.167-5.382c0.722-1.301,2.363-1.767,3.659-1.045
			c1.071,0.595,1.578,1.814,1.317,2.951c0.698-0.007,1.895-0.137,3.841-0.636c9.33-2.4,12.111-3.77,12.138-3.783
			c0.746-0.375,1.643-0.394,2.394-0.032c7.209,3.461,16.623,6.444,19.247,5.216c1.342-0.624,1.932-1.249,2.038-1.627
			c0.046-0.167-0.005-0.384-0.005-0.385c-0.825-1.237-0.49-2.906,0.746-3.731c1.234-0.823,2.904-0.492,3.73,0.747
			c0.669,1.005,1.258,2.87,0.708,4.825c-0.589,2.098-2.255,3.797-4.95,5.051C976.946,314.086,975.603,314.298,974.11,314.298z"/>
		<path d="M976.771,368.106c-1.415,0-2.599-1.102-2.683-2.533c-0.246-4.139-9.422-4.044-9.518-4.044
			c-1.158,0.016-2.338-0.771-2.675-1.958c-0.106-0.329-1.207-3.499-5.916-3.462c-4.652,0.095-5.644,3.081-5.739,3.42
			c-0.198,0.687-0.668,1.293-1.293,1.64c-0.625,0.345-1.368,0.457-2.057,0.255c-2.186-0.632-3.084-0.168-3.27,0.205l-2.506-0.974
			l-2.562-0.827c0.569-1.764,2.85-4.531,7.54-4.034c1.503-2.37,4.547-4.958,9.777-5.065c5.636-0.142,8.856,2.876,10.351,5.433
			c5.417,0.236,12.838,2.324,13.235,9.095c0.088,1.483-1.043,2.757-2.527,2.845C976.876,368.104,976.823,368.106,976.771,368.106z"
			/>
	</g>
</g>
</svg>
